<?xml version="1.0" encoding="UTF-8" standalone="no"?>
<svg height="247.2pt" id="svg4195" version="1.1" viewBox="0 0 240 247.16254" width="240pt" xmlns="http://www.w3.org/2000/svg" xmlns:cc="http://creativecommons.org/ns#" xmlns:dc="http://purl.org/dc/elements/1.1/" xmlns:rdf="http://www.w3.org/1999/02/22-rdf-syntax-ns#">
  <metadata id="metadata4260">
    <rdf:RDF>
      <cc:Work rdf:about="">
        <dc:format>image/svg+xml</dc:format>
        <dc:type rdf:resource="http://purl.org/dc/dcmitype/StillImage"/>
        <dc:title/>
      </cc:Work>
    </rdf:RDF>
  </metadata>
  <defs id="defs4258">
    <clipPath clipPathUnits="userSpaceOnUse" id="clipPath4326">
      <rect fill="#bfd7e3" height="249.7" id="rect4328" width="242.5" x="19.99" y="84.28"/>
    </clipPath>
  </defs>
  <g id="surface1" transform="translate(-18.47 -85.56)">
    <g clip-path="url(#clipPath4326)" id="g4294" transform="matrix(.9897 0 0 .9897 -1.315 2.156)">
      <rect fill="#bfd7e3" height="251.1" id="rect4198" width="242.5" x="19.99" y="83.14"/>
      <g id="g4262" transform="translate(-54.1 -65.25)">
        <path d="m86.96 148.6 198 0.6678 1.646 2.774 1.308 3.234 0.8192 2.08-0.3234 0.1613 0.5659 1.345 0.8822-0.3059 1.66 4.335 0.8676 2.226 0.9719 2.466-0.1943 0.0898 4.412 12.25 5.254 15.46 4.405 14.12 0.4342 1.586 4.64 20.55 2.217 12.61 0.4316 2.449 0.5999 4.359 0.1008 4.022-0.6826 3.645-1.172 3.611-1.053 1.553-2.283 1.567-6.017 4.046 0.2387 0.3918-3.632 2.501 1.329 2.016-6.872 5.037-5.415 3.967-15 11.1-3.233-4.382-15.25 12.74-3.213 2.732-12.84 10.72-3.95 5.101-1.476 3.392-0.7838 1.727 0.252 0.1439-0.1244 0.313-0.4715-0.2484-0.8765 1.663 0.1046 0.642-2.954 6.056 0.4048 0.1992-0.2356 0.5398 0.5194 0.2505-0.0399 0.1872 1.491 0.7348-1.012 2.216-0.004 0.006 0.006 0.004 5.62 2.173-1.896 4.953-2.6-0.9926-1.483-0.5707-0.0415-0.0165-0.1345 0.3402-0.08 0.1988-2.16 0.0342-0.2504 0.6557 2.169 0.8297-0.1259 0.278 0.2112 0.0768 2.753 1.016-0.4259 1.155-7.699-2.88-0.5555 1.478 4.723 1.786-0.1884 0.5603-4.707-1.821-0.3756 0.8831-0.7594-0.2755-0.6635 1.847-0.2464 0.6822 0.7737 0.2819-0.6462 1.923 7.374 2.844-0.4845 1.263-7.406-2.902-1.127 3.037 8.621 3.327-0.4354 1.196-8.769-3.022-0.8552 2.362-0.8051-0.2932-0.9789 2.592 8.574 3.119-0.3883 1.113-8.604-3.178-1.654 4.036 0.066 1.453-1.6 3.959-1.785 4.292-0.4805 0.5643 4.943 2.896 2.561-4.212 1.32 0.8081-2.621 4.306 1.498 0.9214-0.7513 1.235-7.895-4.86-2.182 2.43-3.149 3.314 2.229 2.674-2.256 2.263-6.257 5.511-1.662-2.306-1.748 0.6097 0.7345 2.666-5.075-0.2704-0.0471 1.074-3.397-1.007-7.837-3.226-5.158-2.849-2.002-1.941-1.111-2.406-0.2485-0.9858-1.06 0.232-2.434 1.859-1.702-0.9662 4.239-3.369-0.1144-0.5432-5.966 2.908-5.811-6.352-1.838-5.525 2.667-0.6994-0.4859-2.107-0.7953-3.501-3.246 0.6327-9.96-28.49 0.2419-0.0946 1.131 2.876 5.327-1.639-2.476-7.375-0.9926 0.3205-4.575 1.344 1.139 3.278-0.2392 0.0931-1.327-3.436-11.16-28.86 7.557-2.674-0.2206-0.5598 7.751-2.523-2.804-8.342-2.38 0.8025-0.5371-1.526-5.317 1.896-0.73-1.965 6.916-2.412-1.105-2.92-1.663 0.5415-1.356-4.019 2.374-0.8458-9.882-26.99-5.384-11.6-12.75 5.448-2.166-5.002-3.272-7.541 12.5-5.29-2.182-4.656-2.68-5.729-1.865-3.863-12.56 6.626-0.7729-1.42 12.66-6.772-0.1378-0.3005 0.3458-0.3604 0.001-0.6648-0.4668-0.3694-0.4791 0.0359-1.08-2.298-4.974 2.359-0.7484-1.506 4.979-2.376-9.847-20.99-2.562 1.219-0.7407-1.654 2.501-1.225-2.155-4.47-4.975 2.449-1.699-3.642-0.2664 0.1476 0.4135 0.9338-3.169 1.53-1.181-2.533 3.153-1.5 0.5141 1.018 0.2941-0.1558-1.595-3.395-2.889 1.451-0.1887-0.3728-2.11 1.012-0.1577-0.2716 0.3643-0.1588 0.01979 0.0357 4.6-2.212 0.2968-0.423 7.803-3.744-1.12-2.972-0.7501 0.2722-0.08733-0.2029-11.32 4.308-0.6075-1.53 11.33-4.403-0.8992-2.309 0.7273-0.3134-1.499-4.097-0.7348-1.714-2.335 0.8385-0.711-1.781-11.26 4.435-0.9427-2.439 11.28-4.375-0.6558-1.708 2.339-0.923z" fill="#fff" id="box4200"/>
        <path d="m86.96 148.6 198 0.6678 1.646 2.774 1.308 3.234 0.8192 2.08-0.3234 0.1613 0.5659 1.345 0.8822-0.3059 1.66 4.335 0.8676 2.226 0.9719 2.466-0.1943 0.0898 4.412 12.25 5.254 15.46 4.405 14.12 0.4342 1.586 4.64 20.55 2.217 12.61 0.4316 2.449 0.5999 4.359 0.1008 4.022-0.6826 3.645-1.172 3.611-1.053 1.553-2.283 1.567-6.017 4.046 0.2387 0.3918-3.632 2.501 1.329 2.016-6.872 5.037-5.415 3.967-15 11.1-3.233-4.382-15.25 12.74-3.213 2.732-12.84 10.72-3.95 5.101-1.476 3.392-0.7838 1.727 0.252 0.1439-0.1244 0.313-0.4715-0.2484-0.8765 1.663 0.1046 0.642-2.954 6.056 0.4048 0.1992-0.2356 0.5398 0.5194 0.2505-0.0399 0.1872 1.491 0.7348-1.012 2.216-0.004 0.006 0.006 0.004 5.62 2.173-1.896 4.953-2.6-0.9926-1.483-0.5707-0.0415-0.0165-0.1345 0.3402-0.08 0.1988-2.16 0.0342-0.2504 0.6557 2.169 0.8297-0.1259 0.278 0.2112 0.0768 2.753 1.016-0.4259 1.155-7.699-2.88-0.5555 1.478 4.723 1.786-0.1884 0.5603-4.707-1.821-0.3756 0.8831-0.7594-0.2755-0.6635 1.847-0.2464 0.6822 0.7737 0.2819-0.6462 1.923 7.374 2.844-0.4845 1.263-7.406-2.902-1.127 3.037 8.621 3.327-0.4354 1.196-8.769-3.022-0.8552 2.362-0.8051-0.2932-0.9789 2.592 8.574 3.119-0.3883 1.113-8.604-3.178-1.654 4.036 0.066 1.453-1.6 3.959-1.785 4.292-0.4805 0.5643 4.943 2.896 2.561-4.212 1.32 0.8081-2.621 4.306 1.498 0.9214-0.7513 1.235-7.895-4.86-2.182 2.43-3.149 3.314 2.229 2.674-2.256 2.263-6.257 5.511-1.662-2.306-1.748 0.6097 0.7345 2.666-5.075-0.2704-0.0471 1.074-3.397-1.007-7.837-3.226-5.158-2.849-2.002-1.941-1.111-2.406-0.2485-0.9858-1.06 0.232-2.434 1.859-1.702-0.9662 4.239-3.369-0.1144-0.5432-5.966 2.908-5.811-6.352-1.838-5.525 2.667-0.6994-0.4859-2.107-0.7953-3.501-3.246 0.6327-9.96-28.49 0.2419-0.0946 1.131 2.876 5.327-1.639-2.476-7.375-0.9926 0.3205-4.575 1.344 1.139 3.278-0.2392 0.0931-1.327-3.436-11.16-28.86 7.557-2.674-0.2206-0.5598 7.751-2.523-2.804-8.342-2.38 0.8025-0.5371-1.526-5.317 1.896-0.73-1.965 6.916-2.412-1.105-2.92-1.663 0.5415-1.356-4.019 2.374-0.8458-9.882-26.99-5.384-11.6-12.75 5.448-2.166-5.002-3.272-7.541 12.5-5.29-2.182-4.656-2.68-5.729-1.865-3.863-12.56 6.626-0.7729-1.42 12.66-6.772-0.1378-0.3005 0.3458-0.3604 0.001-0.6648-0.4668-0.3694-0.4791 0.0359-1.08-2.298-4.974 2.359-0.7484-1.506 4.979-2.376-9.847-20.99-2.562 1.219-0.7407-1.654 2.501-1.225-2.155-4.47-4.975 2.449-1.699-3.642-0.2664 0.1476 0.4135 0.9338-3.169 1.53-1.181-2.533 3.153-1.5 0.5141 1.018 0.2941-0.1558-1.595-3.395-2.889 1.451-0.1887-0.3728-2.11 1.012-0.1577-0.2716 0.3643-0.1588 0.01979 0.0357 4.6-2.212 0.2968-0.423 7.803-3.744-1.12-2.972-0.7501 0.2722-0.08733-0.2029-11.32 4.308-0.6075-1.53 11.33-4.403-0.8992-2.309 0.7273-0.3134-1.499-4.097-0.7348-1.714-2.335 0.8385-0.711-1.781-11.26 4.435-0.9427-2.439 11.28-4.375-0.6558-1.708 2.339-0.923-2.142-5.547" fill="none" id="box4202" stroke="#000" stroke-width=".4"/>
        <g id="neiBack" fill="none" stroke="#000000" stroke-width="0.4" >
          <path d="m189.8 269.6 8.792 2.119 7.878 1.836 0.3947 15.56 1.479 0.1353 2.544 4 10.37 0.5652 1.687 0.4145 0.3162 0.6288-1.62 10.53-0.9985 7.123 0.075 7.744-22.06-6.568-4.758 6.453-5.316 6.256-2.181 1.356 3.396-58.15"/>
          <path d="m220.7 320.2 14.42 4.575-0.7838 1.727 0.252 0.1439-0.1244 0.313-0.4715-0.2484-0.8765 1.663 0.1046 0.642-2.954 6.056 0.4048 0.1992-0.2356 0.5398 0.5194 0.2505-0.0399 0.1872 1.491 0.7348-1.012 2.216-0.004 0.006 0.006 0.004 5.62 2.173-1.896 4.953-2.6-0.9926-1.483-0.5707-0.0415-0.0165-0.1345 0.3402-0.08 0.1988-2.16 0.0342-0.2504 0.6557 2.169 0.8297-0.1259 0.278 0.2112 0.0768 2.753 1.016-0.4259 1.155-7.699-2.88-0.5555 1.478 4.723 1.786-0.1884 0.5603-4.707-1.821-0.3756 0.8831-0.7594-0.2755-0.6635 1.847-0.2464 0.6822 0.7737 0.2819-0.6462 1.923 7.374 2.844-0.4845 1.263-7.406-2.902-1.127 3.037 8.621 3.327-0.4354 1.196-8.769-3.022-0.8552 2.362-0.8051-0.2932-0.9789 2.592 8.574 3.119-0.3883 1.113-8.604-3.178-1.654 4.036 0.066 1.453-1.6 3.959-1.785 4.292-0.4805 0.5643 4.943 2.896 2.561-4.212 1.32 0.8081-2.621 4.306 1.498 0.9214-0.7513 1.235-7.895-4.86-2.182 2.43-3.149 3.314 2.229 2.674-2.256 2.263-6.257 5.511-1.662-2.306-1.748 0.6097 0.7345 2.666-5.075-0.2704-0.0471 1.074-3.397-1.007-7.837-3.226-5.158-2.849-2.002-1.941-1.111-2.406-0.2485-0.9858-9.367-44.19-5.069-15.04 29.05 0.7193 2.181-1.356 5.316-6.256 4.758-6.453 22.06 6.568"/>
          <path d="m157.4 327 5.069 15.04 9.367 44.19-1.06 0.232-2.434 1.859-1.702-0.9662 4.239-3.369-0.1144-0.5432-5.966 2.908-5.811-6.352-1.838-5.525 2.667-0.6994-0.4859-2.107-0.7953-3.501-3.246 0.6327-9.96-28.49 0.2419-0.0946 1.131 2.876 5.327-1.639-2.476-7.375-0.9926 0.3205-4.575 1.344 1.139 3.278-0.2392 0.0931-1.327-3.436-11.16-28.86 7.557-2.674-0.2206-0.5598 7.751-2.523 1.491-0.4709 8.424 26.41"/>
          <path d="m235.1 324.8-0.7838 1.727 0.252 0.1439-0.1244 0.313-0.4715-0.2484-0.8765 1.663 0.1046 0.642-2.954 6.056 0.4048 0.1992-0.2356 0.5398 0.5194 0.2505-0.0399 0.1872 1.491 0.7348-1.012 2.216-0.004 0.006 0.006 0.004 5.62 2.173-1.896 4.953-2.6-0.9926-1.483-0.5707-0.0415-0.0165-0.1345 0.3402-0.08 0.1988-2.16 0.0342-0.2504 0.6557 2.169 0.8297-0.1259 0.278 0.2112 0.0768 2.753 1.016-0.4259 1.155-7.699-2.88-0.5555 1.478 4.723 1.786-0.1884 0.5603-4.707-1.821-0.3756 0.8831-0.7594-0.2755-0.6635 1.847-6.336-2.267 3.209-8.47-2.719-1.706 1.407-9.553 2.406-8.721 14.42 4.575"/>
          <path d="m186.4 327.7-29.05-0.7193-8.424-26.41-1.491 0.4709-2.804-8.342-2.38 0.8025-0.5371-1.526-5.317 1.896-0.73-1.965 6.916-2.412-1.105-2.92-1.663 0.5415-1.356-4.019 2.374-0.8458-9.882-26.99 3.125-0.3001 35.31 9.542 20.42 5.047-3.396 58.15"/>
          <path d="m193 225.7 2.276-33.62 6.363-2.159 2.997-1.03 3.963 12.7 5.198 21.44-13.86 1.237-6.942 1.439"/>
          <path d="m110.7 244.1-3.272-7.541 12.5-5.29-2.182-4.656-2.68-5.729-1.865-3.863-12.56 6.626-0.7729-1.42 12.66-6.772-0.1378-0.3005 0.3458-0.3604 0.001-0.6648-0.4668-0.3694-0.4791 0.0358-1.08-2.298-4.974 2.359-0.7484-1.506 4.979-2.376-9.847-20.99-2.562 1.219-0.7407-1.654 2.501-1.225-2.155-4.47-4.975 2.449-1.699-3.642-0.2664 0.1476 0.4135 0.9338-3.169 1.53-1.181-2.533 3.153-1.5 0.5141 1.018 0.2941-0.1559-1.595-3.395-2.889 1.451-0.1887-0.3728-2.11 1.012-0.1577-0.2716 0.3643-0.1588 0.01979 0.0357 4.6-2.212 0.2968-0.423 7.803-3.744-1.12-2.972-0.7501 0.2722-0.08733-0.2029-11.32 4.308-0.6075-1.53 11.33-4.403-0.8992-2.309 0.7273-0.3134-1.499-4.097 50.26 0.2674 4.728 61.14 2.067 4.881-38.51 16.04"/>
          <path d="m200.4 248.7 18.9-1.748 1.13 5.419 2.878 21.05-16.84 0.0739-7.878-1.836 1.815-22.96"/>
          <path d="m134.1 255-3.125 0.3001-5.384-11.6-12.75 5.448-2.166-5.002 38.51-16.04 10.79-4.492 24.53 1.742 8.508 0.3634 6.942-1.439-0.5486 10.2 0.006 1.584 1.556 7.289-0.3503 0.5208-0.1894 4.865-1.815 22.96-8.792-2.119-20.42-5.047-35.31-9.542"/>
          <path d="m110.7 244.1 38.51-16.04 10.79-4.492 7.807 38.44 1.619 2.48-35.31-9.542-3.125 0.3001-5.384-11.6-12.75 5.448-2.166-5.002"/>
          <path d="m219.3 247-18.9 1.748 0.1894-4.865 0.3503-0.5208-1.556-7.289-0.006-1.584 0.5486-10.2 13.86-1.237 5.514 23.95"/>
          <path d="m167.8 262 1.619 2.48-35.31-9.542-3.125 0.3001-5.384-11.6-12.75 5.448-2.166-5.002 38.51-16.04 10.79-4.492 7.807 38.44"/>
          <path d="m149.2 228.1-2.067-4.881-4.728-61.14 15.11 0.0531 36.64-0.0291 2.6 3.868 2.048 5.502 2.848 8.655 0.9272 8.187-0.9136 1.616-6.363 2.159-2.276 33.62-8.508-0.3634-24.53-1.742-10.79 4.492"/>
          <path d="m194.1 162.1 6.093 0.0796 32.99 0.008 11.68-0.1243 44.18 0.4233 2.465 0.3997 0.8676 2.226 0.9719 2.466-0.1943 0.0898 4.412 12.25 5.254 15.46 4.405 14.12-8.554 3.076-8.21 2.124-8.046-0.0416-37.37 4.755-31.28 3.625-5.198-21.44-3.963-12.7-2.997 1.03 0.9136-1.616-0.9272-8.187-2.848-8.655-2.048-5.502-2.6-3.868"/>
          <path d="m307.3 209.5 0.4342 1.586 4.64 20.55 2.217 12.61 0.4316 2.449 0.5999 4.359 0.1008 4.022-0.6826 3.645-1.172 3.611-1.053 1.553-2.283 1.567-6.017 4.046 0.2387 0.3918-3.632 2.501 1.329 2.016-6.872 5.037-5.415 3.967-18.2-24.54-18.39 13.05-1.225-1.834-0.8334-2.216-2.455-18.64-28.58 3.173-1.13-5.419-5.514-23.95 31.28-3.625 37.37-4.755 8.046 0.0416 8.21-2.124 8.554-3.076"/>
          <path d="m290.1 283.4-15 11.1-3.233-4.382-15.25 12.74-3.213 2.732-12.84 10.72-3.95 5.101-1.476 3.392-14.42-4.575-0.075-7.744 0.9985-7.123 1.62-10.53-0.3162-0.6288-1.687-0.4145 1.458-2.524 1.762 0.6924 0.667-0.0789 28.38-19.96 18.39-13.05 18.2 24.54"/>
          <path d="m244.9 162.1 44.18 0.4233 2.465 0.3997 0.8676 2.226 0.9719 2.466-0.1943 0.0898 4.412 12.25 5.254 15.46 4.405 14.12-8.554 3.076-8.21 2.124-8.046-0.0416-37.37 4.755-0.1802-57.35"/>
          <path d="m221.3 293.8-10.37-0.5652-2.544-4-1.479-0.1353-0.3947-15.56 16.84-0.0739-2.878-21.05 28.58-3.173 2.455 18.64 0.8334 2.216 1.225 1.834 2.23 3.409-9.047 6.461 4.985 7.141-16.88 12.18-2.778-3.425-3.037 2.416-5.04-5.674-1.013-0.2211-1.687-0.4145"/>
        </g>
        <g id="parks" fill="#c7deb3">
          <path d="m155.2 368.8-0.4355-1.252 5.878-0.1066 0.047 9.235 3.503-0.0534 1.054 2.679 1.52 1.537 2.172 1.115 1.922 0.0939 2.507-0.5746 4.324-2.756 6.42-1.739 2.616 6.967 1.78 2.298 3.615 1.424 0.6175 0.9715-0.3401 1.09 2.098 3.08 1.355 0.326 1.784 1.431-1.748 0.6098 0.7345 2.666-5.075-0.2704-0.0471 1.074-3.397-1.007-7.837-3.226-5.158-2.849-2.002-1.941-1.111-2.406-0.2485-0.9858-1.06 0.232-2.434 1.859-1.702-0.9662 4.239-3.369-0.1144-0.5432-5.966 2.908-5.811-6.352-1.838-5.525 2.667-0.6994-0.4859-2.107-0.7953-3.501z" id="park4240"/>
          <path d="m184.5 162.1-0.0575-13.19 7.111 0.0251-0.003 8.452 2.53 4.7-4.597 0.003z" id="park4246"/>
          <path d="m165.5 193.8 16.76 1.166-0.629 8.508-16.76-1.222z" id="park4242"/>
          <path d="m244.9 180.2 12.21 0.0416 0.0499 12.58-12.22-0.0171z" id="park4244"/>
        </g>
        <g fill="none" id="streets" stroke="#357087" stroke-width="3">
          <path d="m291.5 162.9-2.465-0.3997-44.18-0.4233-11.68 0.1243-32.99-0.008-6.093-0.0796-36.64 0.0291-15.11-0.0531-50.26-0.2675" id="street4248"/>
          <path d="m131 255.3 3.125-0.3001 35.31 9.542 20.42 5.047 8.792 2.119 7.878 1.836 16.84-0.0739 28.99-3.372 3.654 0.1102" id="street4250"/>
          <path d="m189.5 162.1 6.454 18.2-0.7102 11.79-2.276 33.62-3.191 43.86-3.396 58.15-1.399 20.28-0.7438 19.92-0.3811 5.018 0.2688 4.04" id="street4252"/>
          <path d="m131.5 235.4 17.62-7.336 10.79-4.492 24.53 1.742 8.508 0.3634 6.942-1.439 13.86-1.237 31.28-3.625 37.37-4.755 8.046 0.0416 8.21-2.124 3.108-1.116" id="street4254"/>
        </g>
        <g id="nei" fill="#800000" fill-opacity="0" >
          <path id="path4204" d="m189.8 269.6 8.792 2.119 7.878 1.836 0.3947 15.56 1.479 0.1353 2.544 4 10.37 0.5652 1.687 0.4145 0.3162 0.6288-1.62 10.53-0.9985 7.123 0.075 7.744-22.06-6.568-4.758 6.453-5.316 6.256-2.181 1.356 3.396-58.15"/>
          <path id="path4206" d="m220.7 320.2 14.42 4.575-0.7838 1.727 0.252 0.1439-0.1244 0.313-0.4715-0.2484-0.8765 1.663 0.1046 0.642-2.954 6.056 0.4048 0.1992-0.2356 0.5398 0.5194 0.2505-0.0399 0.1872 1.491 0.7348-1.012 2.216-0.004 0.006 0.006 0.004 5.62 2.173-1.896 4.953-2.6-0.9926-1.483-0.5707-0.0415-0.0165-0.1345 0.3402-0.08 0.1988-2.16 0.0342-0.2504 0.6557 2.169 0.8297-0.1259 0.278 0.2112 0.0768 2.753 1.016-0.4259 1.155-7.699-2.88-0.5555 1.478 4.723 1.786-0.1884 0.5603-4.707-1.821-0.3756 0.8831-0.7594-0.2755-0.6635 1.847-0.2464 0.6822 0.7737 0.2819-0.6462 1.923 7.374 2.844-0.4845 1.263-7.406-2.902-1.127 3.037 8.621 3.327-0.4354 1.196-8.769-3.022-0.8552 2.362-0.8051-0.2932-0.9789 2.592 8.574 3.119-0.3883 1.113-8.604-3.178-1.654 4.036 0.066 1.453-1.6 3.959-1.785 4.292-0.4805 0.5643 4.943 2.896 2.561-4.212 1.32 0.8081-2.621 4.306 1.498 0.9214-0.7513 1.235-7.895-4.86-2.182 2.43-3.149 3.314 2.229 2.674-2.256 2.263-6.257 5.511-1.662-2.306-1.748 0.6097 0.7345 2.666-5.075-0.2704-0.0471 1.074-3.397-1.007-7.837-3.226-5.158-2.849-2.002-1.941-1.111-2.406-0.2485-0.9858-9.367-44.19-5.069-15.04 29.05 0.7193 2.181-1.356 5.316-6.256 4.758-6.453 22.06 6.568"/>
          <path id="path4208" d="m157.4 327 5.069 15.04 9.367 44.19-1.06 0.232-2.434 1.859-1.702-0.9662 4.239-3.369-0.1144-0.5432-5.966 2.908-5.811-6.352-1.838-5.525 2.667-0.6994-0.4859-2.107-0.7953-3.501-3.246 0.6327-9.96-28.49 0.2419-0.0946 1.131 2.876 5.327-1.639-2.476-7.375-0.9926 0.3205-4.575 1.344 1.139 3.278-0.2392 0.0931-1.327-3.436-11.16-28.86 7.557-2.674-0.2206-0.5598 7.751-2.523 1.491-0.4709 8.424 26.41"/>
          <path id="path4210" d="m235.1 324.8-0.7838 1.727 0.252 0.1439-0.1244 0.313-0.4715-0.2484-0.8765 1.663 0.1046 0.642-2.954 6.056 0.4048 0.1992-0.2356 0.5398 0.5194 0.2505-0.0399 0.1872 1.491 0.7348-1.012 2.216-0.004 0.006 0.006 0.004 5.62 2.173-1.896 4.953-2.6-0.9926-1.483-0.5707-0.0415-0.0165-0.1345 0.3402-0.08 0.1988-2.16 0.0342-0.2504 0.6557 2.169 0.8297-0.1259 0.278 0.2112 0.0768 2.753 1.016-0.4259 1.155-7.699-2.88-0.5555 1.478 4.723 1.786-0.1884 0.5603-4.707-1.821-0.3756 0.8831-0.7594-0.2755-0.6635 1.847-6.336-2.267 3.209-8.47-2.719-1.706 1.407-9.553 2.406-8.721 14.42 4.575"/>
          <path id="path4212" d="m186.4 327.7-29.05-0.7193-8.424-26.41-1.491 0.4709-2.804-8.342-2.38 0.8025-0.5371-1.526-5.317 1.896-0.73-1.965 6.916-2.412-1.105-2.92-1.663 0.5415-1.356-4.019 2.374-0.8458-9.882-26.99 3.125-0.3001 35.31 9.542 20.42 5.047-3.396 58.15"/>
          <path id="path4214" d="m193 225.7 2.276-33.62 6.363-2.159 2.997-1.03 3.963 12.7 5.198 21.44-13.86 1.237-6.942 1.439"/>
          <path id="path4216" d="m110.7 244.1-3.272-7.541 12.5-5.29-2.182-4.656-2.68-5.729-1.865-3.863-12.56 6.626-0.7729-1.42 12.66-6.772-0.1378-0.3005 0.3458-0.3604 0.001-0.6648-0.4668-0.3694-0.4791 0.0358-1.08-2.298-4.974 2.359-0.7484-1.506 4.979-2.376-9.847-20.99-2.562 1.219-0.7407-1.654 2.501-1.225-2.155-4.47-4.975 2.449-1.699-3.642-0.2664 0.1476 0.4135 0.9338-3.169 1.53-1.181-2.533 3.153-1.5 0.5141 1.018 0.2941-0.1559-1.595-3.395-2.889 1.451-0.1887-0.3728-2.11 1.012-0.1577-0.2716 0.3643-0.1588 0.01979 0.0357 4.6-2.212 0.2968-0.423 7.803-3.744-1.12-2.972-0.7501 0.2722-0.08733-0.2029-11.32 4.308-0.6075-1.53 11.33-4.403-0.8992-2.309 0.7273-0.3134-1.499-4.097 50.26 0.2674 4.728 61.14 2.067 4.881-38.51 16.04"/>
          <path id="path4218" d="m200.4 248.7 18.9-1.748 1.13 5.419 2.878 21.05-16.84 0.0739-7.878-1.836 1.815-22.96"/>
          <path id="path4220" d="m134.1 255-3.125 0.3001-5.384-11.6-12.75 5.448-2.166-5.002 38.51-16.04 10.79-4.492 24.53 1.742 8.508 0.3634 6.942-1.439-0.5486 10.2 0.006 1.584 1.556 7.289-0.3503 0.5208-0.1894 4.865-1.815 22.96-8.792-2.119-20.42-5.047-35.31-9.542"/>
          <path id="path4222" d="m110.7 244.1 38.51-16.04 10.79-4.492 7.807 38.44 1.619 2.48-35.31-9.542-3.125 0.3001-5.384-11.6-12.75 5.448-2.166-5.002"/>
          <path id="path4224" d="m219.3 247-18.9 1.748 0.1894-4.865 0.3503-0.5208-1.556-7.289-0.006-1.584 0.5486-10.2 13.86-1.237 5.514 23.95"/>
          <path id="path4226" d="m167.8 262 1.619 2.48-35.31-9.542-3.125 0.3001-5.384-11.6-12.75 5.448-2.166-5.002 38.51-16.04 10.79-4.492 7.807 38.44"/>
          <path id="path4228" d="m149.2 228.1-2.067-4.881-4.728-61.14 15.11 0.0531 36.64-0.0291 2.6 3.868 2.048 5.502 2.848 8.655 0.9272 8.187-0.9136 1.616-6.363 2.159-2.276 33.62-8.508-0.3634-24.53-1.742-10.79 4.492"/>
          <path id="path4230" d="m194.1 162.1 6.093 0.0796 32.99 0.008 11.68-0.1243 44.18 0.4233 2.465 0.3997 0.8676 2.226 0.9719 2.466-0.1943 0.0898 4.412 12.25 5.254 15.46 4.405 14.12-8.554 3.076-8.21 2.124-8.046-0.0416-37.37 4.755-31.28 3.625-5.198-21.44-3.963-12.7-2.997 1.03 0.9136-1.616-0.9272-8.187-2.848-8.655-2.048-5.502-2.6-3.868"/>
          <path id="path4232" d="m307.3 209.5 0.4342 1.586 4.64 20.55 2.217 12.61 0.4316 2.449 0.5999 4.359 0.1008 4.022-0.6826 3.645-1.172 3.611-1.053 1.553-2.283 1.567-6.017 4.046 0.2387 0.3918-3.632 2.501 1.329 2.016-6.872 5.037-5.415 3.967-18.2-24.54-18.39 13.05-1.225-1.834-0.8334-2.216-2.455-18.64-28.58 3.173-1.13-5.419-5.514-23.95 31.28-3.625 37.37-4.755 8.046 0.0416 8.21-2.124 8.554-3.076"/>
          <path id="path4234" d="m290.1 283.4-15 11.1-3.233-4.382-15.25 12.74-3.213 2.732-12.84 10.72-3.95 5.101-1.476 3.392-14.42-4.575-0.075-7.744 0.9985-7.123 1.62-10.53-0.3162-0.6288-1.687-0.4145 1.458-2.524 1.762 0.6924 0.667-0.0789 28.38-19.96 18.39-13.05 18.2 24.54"/>
          <path id="path4236" d="m244.9 162.1 44.18 0.4233 2.465 0.3997 0.8676 2.226 0.9719 2.466-0.1943 0.0898 4.412 12.25 5.254 15.46 4.405 14.12-8.554 3.076-8.21 2.124-8.046-0.0416-37.37 4.755-0.1802-57.35"/>
          <path id="path4238" d="m221.3 293.8-10.37-0.5652-2.544-4-1.479-0.1353-0.3947-15.56 16.84-0.0739-2.878-21.05 28.58-3.173 2.455 18.64 0.8334 2.216 1.225 1.834 2.23 3.409-9.047 6.461 4.985 7.141-16.88 12.18-2.778-3.425-3.037 2.416-5.04-5.674-1.013-0.2211-1.687-0.4145"/>
        </g>
      </g>
    </g>
  </g>
</svg>