<?xml version="1.0" encoding="utf-8"?>
<!DOCTYPE svg
  PUBLIC '-//W3C//DTD SVG 1.1//EN'
  'http://www.w3.org/Graphics/SVG/1.1/DTD/svg11.dtd'>
<svg 
  version="1.1" 
  enable_background="new 0 0 300 311" 
  height="311px" 
  pretty_print="False" 
  style="stroke-linejoin: round; stroke:#000; fill: none;" 
  viewBox="0 0 300 311" 
  width="300px" 
  xmlns="http://www.w3.org/2000/svg" 
  xmlns:cc="http://creativecommons.org/ns#" 
  xmlns:dc="http://purl.org/dc/elements/1.1/" 
  xmlns:rdf="http://www.w3.org/1999/02/22-rdf-syntax-ns#" 
  xmlns:xlink="http://www.w3.org/1999/xlink">
	<defs>
		<style type="text/css"><![CDATA[path { fill-rule: evenodd; }]]></style>
		<g id="neighs" pointer-events="all">
			<path id="Civic_Center" d="M142.835256,152.992871L138.779185,222.422084L144.541364,217.087415L153.410056,205.629124L179.748881,213.474125L182.406794,182.400978L180.393875,181.906635L168.011043,181.232259L164.974012,176.457253L163.209109,176.292072L162.736675,157.715954L153.332093,155.522910L142.835256,152.992871Z " data-area="downtown" data-id="Civic Center"/>
			<path id="Battery Park" d="M104.088580,221.559802L94.035618,190.024122L92.255086,190.585479L73.902950,196.730842L87.562394,231.919101L88.997196,235.636611L89.415336,235.484895L88.072773,231.996179L94.720557,230.009718L97.674408,238.815095L91.314686,240.770796L90.200245,237.561712L89.767349,237.713745L101.561224,271.470510L105.436949,270.713512L106.385330,274.894902L106.964159,277.409139L103.779356,278.243235L105.972860,284.843415L112.911350,292.429331L120.036141,288.959021L120.170723,289.607848L115.107678,293.628718L117.142512,294.781230L120.048168,292.564108L121.314421,292.288476L110.139971,239.515798L104.088580,221.559802Z " data-area="downtown" data-id="Battery Park"/>
			<path id="Financial District" d="M179.748881,213.474125L153.410056,205.629124L144.541364,217.087415L138.779185,222.422084L104.088580,221.559802L110.139971,239.515798L121.314421,292.288476L121.609800,293.463855L122.934957,296.338030L125.327295,298.656676L131.486372,302.059286L140.842879,305.913489L144.898366,307.115683L144.955672,305.834781L151.016022,306.157786L150.141033,302.974234L152.226440,302.245419L154.212422,304.999404L161.684852,298.421510L164.379007,295.719339L161.718114,292.523788L165.477560,288.568156L168.082958,285.665247L177.512085,291.470307L178.410037,289.994220L176.618983,288.896513L179.748380,283.752317L178.175016,282.788026L175.115673,287.817167L169.212184,284.360233L169.785086,283.686173L171.916925,278.559941L173.826456,273.832762L173.748469,272.100402L175.722993,267.279555L185.997725,271.076505L186.463664,269.745450L176.221767,266.019738L177.392577,262.926391L178.354346,263.274307L179.373923,260.455160L189.845141,264.065404L190.365961,262.637250L180.069020,258.662687L181.417339,255.036270L190.259950,258.501470L190.838697,256.992605L182.034109,253.598097L182.806268,251.300533L181.882087,250.964428L182.174687,250.150222L183.438081,246.915296L189.942103,249.392474L190.860807,247.045360L194.384982,248.264971L194.894200,246.886599L188.811113,244.459067L189.805128,241.958360L196.973056,244.680149L199.237614,238.765054L192.528439,236.167748L192.521569,236.165083L192.525396,236.156723L193.733854,233.511441L190.673957,232.089752L194.703643,223.998116L194.581995,223.231806L195.627268,221.245587L196.035389,220.997180L196.972965,218.934787L179.748881,213.474125Z " data-area="downtown" data-id="Financial District"/>
			<path id="South Street Seaport" d="M196.972965,218.934787L179.748881,213.474125L175.195647,235.292972L178.443355,237.329119L174.608403,247.441812L182.174687,250.150222L183.438081,246.915296L189.942103,249.392474L190.860807,247.045360L194.384982,248.264971L194.894200,246.886599L188.811113,244.459067L189.805128,241.958360L196.973056,244.680149L199.237614,238.765054L192.528439,236.167748L192.521569,236.165083L192.525396,236.156723L193.733854,233.511441L190.673957,232.089752L194.703643,223.998116L194.581995,223.231806L195.627268,221.245587L196.035389,220.997180L196.972965,218.934787Z " data-area="downtown" data-id="South Street Seaport"/>
			<path id="Tribeca" d="M138.779185,222.422084L142.835256,152.992871L117.512319,146.712105L76.314620,135.576461L72.585199,135.932879L84.374388,168.153326L81.541862,169.161789L83.160079,173.962675L85.144734,173.315744L86.465406,176.801000L78.206424,179.679415L79.080447,182.023213L85.427741,179.764492L86.069955,181.584357L88.908786,180.626861L92.255086,190.585479L94.035618,190.024122L104.088580,221.559802L138.779185,222.422084Z " data-area="downtown" data-id="Tribeca"/>
			<path id="Noho" d="M146.642579,100.633344L154.932166,98.914534L171.471742,97.439085L165.263313,71.852685L160.532063,56.690323L156.953439,57.919428L149.358820,60.499456L146.642579,100.633344Z " data-area="downtown" data-id="Noho"/>
			<path id="West Village" d="M48.354827,122.620479L94.329090,103.483921L91.862379,97.656909L86.221996,24.683694L68.215998,24.587784L26.240716,24.361942L28.031782,29.251630L27.163496,29.624440L28.237380,32.379902L14.714193,37.634500L15.440831,39.458018L29.852983,33.966883L31.287699,37.784917L21.972739,42.250261L15.620336,45.203287L16.172693,46.285234L21.976155,43.410750L23.387537,46.224271L19.226230,48.183767L20.635532,51.210443L24.771314,49.227909L26.268984,52.439624L32.208024,49.517063L34.777938,54.854253L31.791234,56.313650L32.677447,58.287297L35.734131,56.833940L47.485606,81.886970L41.542433,84.721535L42.433939,86.520744L48.370672,83.703877L49.659216,86.448305L50.339597,86.108539L51.315681,87.991010L35.431061,96.508551L36.353779,98.203785L51.338933,90.298106L59.366908,107.304482L44.451613,113.617855L48.354827,122.620479Z " data-area="downtown" data-id="West Village"/>
			<path id="Little Italy" d="M155.500070,128.114168L153.332093,155.522910L162.736675,157.715954L182.841277,157.626155L179.406748,132.493239L178.055466,126.024567L155.500070,128.114168Z " data-area="downtown" data-id="Little Italy"/>
			<path id="Soho" d="M76.314620,135.576461L117.512319,146.712105L142.835256,152.992871L153.332093,155.522910L155.500070,128.114168L155.723117,122.305557L156.142914,121.682617L154.276517,111.091400L154.932166,98.914534L146.642579,100.633344L136.488378,100.202905L107.211333,98.120755L94.329090,103.483921L48.354827,122.620479L50.939677,128.590936L66.159223,122.088042L72.585199,135.932879L76.314620,135.576461Z " data-area="downtown" data-id="Soho"/>
			<path id="West Soho" d="M48.354827,122.620479L50.939677,128.590936L66.159223,122.088042L72.585199,135.932879L76.314620,135.576461L117.512319,146.712105L107.211333,98.120755L94.329090,103.483921L48.354827,122.620479Z " data-area="downtown" data-id="West Soho"/>
			<path id="Nolita" d="M178.055466,126.024567L171.471742,97.439085L154.932166,98.914534L154.276517,111.091400L156.142914,121.682617L155.723117,122.305557L155.500070,128.114168L178.055466,126.024567Z " data-area="downtown" data-id="Nolita"/>
			<path id="Hudson Square" d="M117.512319,146.712105L107.211333,98.120755L94.329090,103.483921L48.354827,122.620479L50.939677,128.590936L66.159223,122.088042L72.585199,135.932879L76.314620,135.576461L117.512319,146.712105Z " data-area="downtown" data-id="Hudson Square"/>
			<path id="Central Village" d="M94.329090,103.483921L107.211333,98.120755L136.488378,100.202905L146.642579,100.633344L149.358820,60.499456L156.953439,57.919428L156.938304,46.221166L153.259771,34.420211L147.985357,24.708665L104.253362,24.744721L86.221996,24.683694L91.862379,97.656909L94.329090,103.483921Z " data-area="downtown" data-id="Central Village"/>
			<path id="East Village" d="M147.985357,24.708665L153.259771,34.420211L156.938304,46.221166L156.953439,57.919428L160.532063,56.690323L165.263313,71.852685L171.471742,97.439085L208.807833,93.104270L253.418268,87.419738L263.024968,87.465418L272.825673,84.928414L283.037234,81.251520L277.773731,64.390901L271.493737,45.942195L266.222864,31.323661L266.454113,31.219174L264.258182,25.619674L261.315601,25.143342L208.578640,24.652013L194.637843,24.803556L155.257822,24.801623L147.985357,24.708665Z " data-area="downtown" data-id="East Village"/>
			<path id="Lower East Side" d="M283.037234,81.251520L272.825673,84.928414L263.024968,87.465418L253.418268,87.419738L208.807833,93.104270L171.471742,97.439085L178.055466,126.024567L179.406748,132.493239L213.520510,128.704042L216.456143,150.950960L217.449927,153.599954L218.913425,155.788523L240.873195,140.200368L262.602711,169.500795L269.066506,164.761700L277.269992,158.747099L275.683538,156.337403L280.020471,153.351874L279.732659,152.885864L286.918214,148.051503L289.640643,146.177824L290.897331,144.323491L292.296627,140.012387L293.110735,135.660494L292.675588,128.807196L291.754867,122.730824L289.103641,107.680379L283.037234,81.251520Z " data-area="downtown" data-id="Lower East Side"/>
			<path id="Two Bridges" d="M262.602711,169.500795L240.873195,140.200368L218.913425,155.788523L185.035374,179.625490L182.134060,178.890165L180.393875,181.906635L182.406794,182.400978L179.748881,213.474125L196.972965,218.934787L198.736969,214.884858L203.451958,208.794595L218.783032,195.998950L222.619373,192.738361L240.829584,177.528248L244.690385,182.758940L262.602711,169.500795Z " data-area="downtown" data-id="Two Bridges"/>
			<path id="Alphabet City" d="M208.578640,24.652013L208.651534,46.273061L208.700402,60.845109L208.807833,93.104270L253.418268,87.419738L263.024968,87.465418L272.825673,84.928414L283.037234,81.251520L277.773731,64.390901L271.493737,45.942195L266.222864,31.323661L266.454113,31.219174L264.258182,25.619674L261.315601,25.143342L208.578640,24.652013Z " data-area="downtown" data-id="Alphabet City"/>
			<path id="Chinatown" d="M180.393875,181.906635L182.406794,182.400978L183.616429,182.663351L189.635135,189.439225L193.260823,186.554278L196.578321,190.644485L216.728785,176.096108L210.776974,167.570732L221.575988,159.858154L218.913425,155.788523L217.449927,153.599954L216.456143,150.950960L213.520510,128.704042L179.406748,132.493239L182.841277,157.626155L162.736675,157.715954L163.209109,176.292072L164.974012,176.457253L168.011043,181.232259L180.393875,181.906635Z " data-area="downtown" data-id="Chinatown"/>
		</g>
	</defs>
	<metadata>
		<views>
			<view h="311.564416504" padding="0" w="300">
				<proj dist="1.6" id="satellite" lat0="40.71875" lon0="-74.001" tilt="0" up="-29"/>
				<bbox h="1.54" w="1.49" x="999.26" y="999.23"/>
			</view>
		</views>
	</metadata>
	<rect width="300" height="311" style="fill:#bfd7e3;" />
	<g class="" id="contour" fill="#ffffff" stroke="#000000" stroke-width="1">
		<path d="M0.000000,4.916209L0.192492,5.405816L11.824532,1.006112L13.426541,5.019979L1.750432,9.536850L2.963548,12.466066L4.154178,15.369998L4.998779,15.002038L4.959580,14.912268L4.308506,15.200168L3.228328,12.593755L6.290345,11.407437L7.264651,14.064902L6.469970,14.403603L6.512918,14.504177L8.268634,13.755837L8.225003,13.656852L7.561817,13.947600L6.503160,11.373065L9.537933,10.171495L10.613976,12.769476L9.717977,13.140415L9.771389,13.266903L11.540041,12.522293L11.492167,12.408902L10.801576,12.700739L9.761678,10.074778L12.438149,9.032621L13.458833,11.656446L12.818434,11.921554L12.879134,12.068223L14.402070,11.439899L14.353129,11.321609L13.681727,11.598125L12.652023,8.966720L14.602607,8.220033L15.371375,10.223068L18.939994,8.985878L20.090958,8.587335L21.265991,11.620054L22.640009,15.212237L19.849083,16.313660L20.634026,18.367732L7.148288,23.554148L8.305236,26.476377L21.739873,21.190397L22.622163,23.422921L25.367004,22.315886L26.240716,24.361942L28.031782,29.251630L27.163496,29.624440L28.237380,32.379902L14.714193,37.634500L15.440831,39.458018L29.852983,33.966883L31.287699,37.784917L21.972739,42.250261L15.620336,45.203287L16.172693,46.285234L21.976155,43.410750L23.387537,46.224271L19.226230,48.183767L20.635532,51.210443L24.771314,49.227909L26.268984,52.439624L32.208024,49.517063L34.777938,54.854253L31.791234,56.313650L32.677447,58.287297L35.734131,56.833940L47.485606,81.886970L41.542433,84.721535L42.433939,86.520744L48.370672,83.703877L49.659216,86.448305L50.339597,86.108539L51.315681,87.991010L35.431061,96.508551L36.353779,98.203785L51.338933,90.298106L59.366908,107.304482L44.451613,113.617855L48.354827,122.620479L50.939677,128.590936L66.159223,122.088042L72.585199,135.932879L84.374388,168.153326L81.541862,169.161789L83.160079,173.962675L85.144734,173.315744L86.465406,176.801000L78.206424,179.679415L79.080447,182.023213L85.427741,179.764492L86.069955,181.584357L88.908786,180.626861L92.255086,190.585479L73.902950,196.730842L87.562394,231.919101L88.997196,235.636611L89.415336,235.484895L88.072773,231.996179L94.720557,230.009718L97.674408,238.815095L91.314686,240.770796L90.200245,237.561712L89.767349,237.713745L101.561224,271.470510L105.436949,270.713512L106.385330,274.894902L106.964159,277.409139L103.779356,278.243235L105.972860,284.843415L112.911350,292.429331L120.036141,288.959021L120.170723,289.607848L115.107678,293.628718L117.142512,294.781230L120.048168,292.564108L121.314421,292.288476L121.609800,293.463855L122.934957,296.338030L125.327295,298.656676L131.486372,302.059286L140.842879,305.913489L144.898366,307.115683L144.955672,305.834781L151.016022,306.157786L150.141033,302.974234L152.226440,302.245419L154.212422,304.999404L161.684852,298.421510L164.379007,295.719339L161.718114,292.523788L165.477560,288.568156L168.082958,285.665247L177.512085,291.470307L178.410037,289.994220L176.618983,288.896513L179.748380,283.752317L178.175016,282.788026L175.115673,287.817167L169.212184,284.360233L169.785086,283.686173L171.916925,278.559941L173.826456,273.832762L173.748469,272.100402L175.722993,267.279555L185.997725,271.076505L186.463664,269.745450L176.221767,266.019738L177.392577,262.926391L178.354346,263.274307L179.373923,260.455160L189.845141,264.065404L190.365961,262.637250L180.069020,258.662687L181.417339,255.036270L190.259950,258.501470L190.838697,256.992605L182.034109,253.598097L182.806268,251.300533L181.882087,250.964428L182.174687,250.150222L183.438081,246.915296L189.942103,249.392474L190.860807,247.045360L194.384982,248.264971L194.894200,246.886599L188.811113,244.459067L189.805128,241.958360L196.973056,244.680149L199.237614,238.765054L192.528439,236.167748L192.521569,236.165083L192.525396,236.156723L193.733854,233.511441L190.673957,232.089752L194.703643,223.998116L194.581995,223.231806L195.627268,221.245587L196.035389,220.997180L196.972965,218.934787L198.736969,214.884858L203.451958,208.794595L218.783032,195.998950L222.619373,192.738361L240.829584,177.528248L244.690385,182.758940L262.602711,169.500795L269.066506,164.761700L277.269992,158.747099L275.683538,156.337403L280.020471,153.351874L279.732659,152.885864L286.918214,148.051503L289.640643,146.177824L290.897331,144.323491L292.296627,140.012387L293.110735,135.660494L292.675588,128.807196L291.754867,122.730824L289.103641,107.680379L283.037234,81.251520L277.773731,64.390901L271.493737,45.942195L266.222864,31.323661L266.454113,31.219174L264.258182,25.619674L262.263983,20.386147L261.222384,20.810987L260.543959,19.205298L260.994541,18.986347L258.644869,13.221664L255.134985,7.940184L251.645743,5.498031L248.529451,4.262409L244.066955,2.971499L240.781280,1.658616L239.126057,0.693631L238.538527,0.000000L5.635178,0.000000L0.000000,2.179983L0.000000,4.916209Z "/>
	</g>
	<use xlink:href="#neighs" class="neighBack" fill="#000000" fill-opacity="0" stroke="#000000" stroke-width="0.4"/>
	<g class="" fill="#c7deb3" id="parks" stroke="none">
		<path d="M101.561224,271.470510L105.436949,270.713512L106.385330,274.894902L106.964159,277.409139L103.779356,278.243235L105.972860,284.843415L112.911350,292.429331L120.036141,288.959021L120.170723,289.607848L115.107678,293.628718L117.142512,294.781230L120.048168,292.564108L121.314421,292.288476L121.609800,293.463855L122.934957,296.338030L125.327295,298.656676L131.486372,302.059286L140.842879,305.913489L144.898366,307.115683L144.955672,305.834781L151.016022,306.157786L150.141033,302.974234L152.226440,302.245419L150.097405,300.537558L148.478966,300.149410L145.974140,296.469422L146.381348,295.168840L145.644156,294.006100L141.328526,292.308277L139.202311,289.560945L136.077513,281.241333L128.415190,283.317783L123.251148,286.607771L120.256445,287.291697L117.961904,287.178803L115.368668,285.847562L113.552742,284.014128L112.294291,280.813644L108.112163,280.875480L108.058181,269.849751L101.038930,269.975556L101.561224,271.470510Z "/>
		<path d="M113.828992,62.587927L113.076887,72.673472L133.085335,74.130725L133.834256,63.977934L113.828992,62.587927Z "/>
		<path d="M208.651534,46.273061L208.701975,61.315246L223.292822,61.332346L223.226344,46.319504L208.651534,46.273061Z "/>
		<path d="M136.552860,24.718423L142.498561,24.713377L147.985357,24.708665L144.963832,19.098591L144.968999,9.009836L136.480281,8.982266L136.552860,24.718423Z "/>
	</g>
	<g id="streets" stroke="#357087" stroke-width="3">
		<path d="M264.258182,25.619674L261.315601,25.143342L208.578640,24.652013L194.637843,24.803556L155.257822,24.801623L147.985357,24.708665L142.498561,24.713377L104.253362,24.744721L86.221996,24.683694L26.240716,24.361942 "/>
		<path d="M72.585199,135.932879L76.314620,135.576461L117.512319,146.712105L142.835256,152.992871L153.332093,155.522910L162.736675,157.715954L182.841277,157.626155L217.449927,153.599954L221.814463,153.729324 "/>
		<path d="M142.498561,24.713377L150.203750,46.431053L149.358820,60.499456L146.642579,100.633344L142.835256,152.992871L138.779185,222.422084L136.077513,281.241333 M136.480281,8.982266L133.784926,0.000000 "/>
		<path d="M73.298271,112.238576L94.329090,103.483921L107.211333,98.120755L136.488378,100.202905L146.642579,100.633344L154.932166,98.914534L171.471742,97.439085L208.807833,93.104270L253.418268,87.419738L263.024968,87.465418L272.825673,84.928414L276.533356,83.593412 "/>
		<path d="M124.601054,63.336478L124.640872,24.743776L124.583367,0.000000 "/>
	</g>
</svg>