<?xml version="1.0" encoding="UTF-8" standalone="no"?>
<svg id="svg4192"
    xmlns:rdf="http://www.w3.org/1999/02/22-rdf-syntax-ns#"
    xmlns="http://www.w3.org/2000/svg" 
    height="265.2" 
    width="300" 
    version="1.1"
    viewBox="-1 -1 301 267">
    <g id="layer1" transform="translate(-232.86 -411.19)">
        <g id="downtown" 
            fill="#39c8f7" 
            stroke="#000" 
            stroke-width="0.6"
            fill-opacity=".4" 
            transform="matrix(.52724 0 0 .52724 225.48 399.59)">
            <path id="civic_center"
                    title="Civic Center"
                    fill="#7817d7" 
                    d="m221 298 17 12 16 11-19 27 3 2 1 9 23 11 3 2v1l-17 17-11 11-10 13-41-32-19 7-20 5-6 1 80-97"/>
            <path id="financial_district" 
                    title="Financial District"
                    fill="#57de63" 
                    d="m227 414 27 22-4 2h1l-1 1-1-1-4 2v1l-15 8h1l-1 1 1 1h-1l3 3-5 3 10 9-11 6-4-4-3-2h-1v1l-5-2h-1l3 4v1l5 4-2 2-14-13-3 2 8 8-1 1-8-8-2 1-2-1-3 3h-2l2 2-4 2 13 12-3 2-13-12-6 4 15 14-2 1-16-13-5 3-2-1-5 3 15 14-2 1-15-13-9 5-2 3-8 5-10 6h-2l8 10 11-5 2 3-11 5 2 2-3 2-12-16-8 2-11 3 2 7-8 1-21 4-1-6h-5l-2 5-11-5-1 1-7-5-13-12-8-10-2-5v-6l1-1 34-85 7-30 65 29 6-1 20-5 19-7 41 32"/>
            <path id="battery_park" 
                    title="Battery Park" 
                    fill="#57de63" 
                    d="m76 366-7 30-34 85-3-1-8 1-2-3 14-2v-1l-17-1-5-16 2-11 7 1 2-4 2-7-8-2 14-58-1 6 14 2 4-15h-3l-12-2-1 7h-1l1-7 11-60 21 2v-1l20 3 4 1-14 53"/>
            <path id="south_street_sea_port" 
                    title="South Street Sea Port" 
                    fill="#d91cba" 
                    d="m254 436-4 2h1l-1 1-1-1-4 2v1l-15 8h1l-1 1 1 1h-1l3 3-5 3 10 9-11 6-4-4-3-2h-1v1l-5-2h-1l3 4v1l5 4-2 2-14-13-3 2 8 8-1 1-8-8-2 1-2-1-3 3-12-10 18-12-4-5 15-15 16-13 27 22"/>
            <path id="tribeca"
                    title="Tribeca" 
                    fill="#b3d93d"
                    d="m141 395-65-29 14-53-4-1 4-17-6-1 1-3-15-2 1-4 19 3 1-6-4-1 2-8 6 1 11-56 8 3 67 50 40 27-80 97"/>
            <path id="noho" 
                title="Noho"
                    fill="#2111eb" 
                    d="m283 227 47-56 17 3 8 1-7 25-15 42-33-11-17-4"/>
            <path id="west_village"
                title="West Village"
                    fill="#2111eb" 
                    d="m75 180 2-16 34 3 1-10 1-12 1-9h-37l1-3h36l1-1h1l1-1-1-1h-1v-5l-14-1v-3h15l4-45h-8l1-4 7 1 1-10-15-1 1-7h-1v2l-9-1v-5h9v2h1l1-7h-9l1-1h-6v-1h1l13 1 1-1 22 1 1-6h-2l-31-4 1-3 31 3 1-5 2 1 2-9 112 48-65 109-2 10-106-9"/>
            <path id="little_italy"
                title="Little Italy"
                    fill="#eb261e"
                    d="m271 273 45 15-5 10-19 39-38-16-16-11 33-37"/>
            <path id="soho"
                    title="Soho"
                    fill="#38de91" 
                    d="m114 221-8-3 3-24-36-3 2-11 106 9 30 3 53 26 19 9 17 4-14 17-2 2-5 14-2 1-6 8-33 37-17-12-40-27-67-50"/>
            <path id="west_soho"
                    title="West Soho"
                    fill="#d9ee7d" 
                    d="m75 180 106 9 30 3-30 73v6l-67-50-8-3 3-24-36-3 2-11"/>
            <path id="nolita"
                    title="Nolita"
                    fill="#8fe633"
                    d="m316 288-45-15 6-8 2-1 5-14 2-2 14-17 33 11-17 46"/>
            <path id="hudson_square" 
                    title="Hudson Square"
                    fill="#e3c74a" 
                    d="m181 265v6l-67-50-8-3 3-24-36-3 2-11 106 9 30 3-30 73"/>
            <path id="central_village"
                    title="Central Village"
                    fill="#82cf75"
                    d="m181 189 2-10 65-109 34 15 83 34 1 9-2 12-5 17-8 15-4 2-17-3-47 56-19-9-53-26-30-3"/>
            <path id="east_village"
                    title="East Village"
                    fill="#cc1e45"
                    d="m365 119 14 6 74 31 26 11 99 43 5 3-1 4v5h-1l-5 25-8 32-8 28-23-3-21-4-18-8-90-27-75-23 15-42 7-25-8-1 4-2 8-15 5-17 2-12-1-9"/>
            <path id="lower_east_side"
                    title="Lower East Side"
                    fill="#e63a6b"
                    d="m560 307-1 3-15 40-10 23-3 5-4 8-4 7-7 5-7 5-4 2-7 1-19 1v1l-11 1 1 4-22 2-17 2-11-59-57 5-1-5 1-4 18-34-69-22 5-10 17-46 75 23 90 27 18 8 21 4 23 3"/>
            <path id="two_bridges"
                    title="Two Brideges"
                    fill="#549cd9"
                    d="m430 417-48 5-2-11-50 8-11 1-42 6-15 5-8 5-27-22 10-13 11-11 17-17v-1l-3-2 6-3 3 2 2 1 89-7 57-5 11 59"/>
            <path id="alphabet_city"
                    title="Alphabet City"
                    fill="#73deb8"
                    d="m479 167 99 43 5 3-1 4v5h-1l-5 25-8 32-8 28-23-3-21-4-18-8-90-27 71-98"/>
            <path id="chinatown"
                    title="Chinatown"
                    fill="#c7b845" 
                    d="m262 370-23-11-1-9-3-2 19-27 38 16 19-39 69 22-18 34-1 4 1 5v8l-28 2 2 17-53 5-2-9-10 2-4-15-2-1-3-2"/>
        </g>
    </g>
</svg>