<?xml version="1.0" encoding="UTF-8" standalone="no"?>
<svg id="svg3652" xmlns:rdf="http://www.w3.org/1999/02/22-rdf-syntax-ns#" xmlns="http://www.w3.org/2000/svg" fill="none" enable_background="new 0 0 300 267" stroke-linejoin="round" pretty_print="False" height="303.77" viewBox="0 0 300 303.76898" width="300" stroke="#000000" version="1.1" xmlns:cc="http://creativecommons.org/ns#" xmlns:xlink="http://www.w3.org/1999/xlink" xmlns:dc="http://purl.org/dc/elements/1.1/">
 <defs id="defs3654">
  <style id="style3656" type="text/css"><![CDATA[path { fill-rule: evenodd; }]]></style>
  <g id="neighs" pointer-events="all" transform="matrix(1.155 0 0 1.155 -3.1382 .56801)">
   <path id="Civic Center" data-id="Civic Center" data-area="downtown" d="m126.03 122.63-3.6472 62.402 5.1791-4.7946 7.9714-10.298 23.673 7.0516 2.3896-27.928-1.8092-0.44436-11.13-0.60641-2.7296-4.2918-1.5863-0.14851-0.42419-16.696-8.4527-1.9713-9.4344-2.2742z"/>
   <path id="Financial District" data-id="Financial District" data-area="downtown" d="m159.21 176.99-23.673-7.0516-7.9714 10.298-5.1791 4.7946-31.18-0.77582 5.4385 16.139 10.042 47.432 0.26545 1.0564 1.191 2.5833 2.1502 2.084 5.5357 3.0584 8.4095 3.4644 3.645 1.0806 0.0515-1.1513 5.447 0.29045-0.78636-2.8614 1.8744-0.65501 1.7849 2.4753 6.7163-5.912 2.4216-2.4286-2.3915-2.8722 3.3791-3.5552 2.3418-2.6091 8.4747 5.2178 0.8071-1.3267-1.6098-0.98665 2.8128-4.6235-1.4141-0.86674-2.7498 4.5201-5.3059-3.1072 0.51494-0.60583 1.9162-4.6074 1.7164-4.2487-0.0701-1.557 1.7748-4.3329 9.2348 3.4129 0.41881-1.1963-9.2053-3.3489 1.0524-2.7802 0.86442 0.31273 0.91646-2.5338 9.4114 3.2451 0.46814-1.2836-9.2547-3.5726 1.2119-3.2594 7.9476 3.1147 0.52021-1.3562-7.9134-3.0512 0.69407-2.065-0.83064-0.30211 0.26301-0.7318 1.1356-2.9075 5.8457 2.2266 0.82578-2.1096 3.1675 1.0963 0.45771-1.2389-5.4674-2.182 0.89348-2.2476 6.4424 2.4465 2.0355-5.3164-6.0301-2.3346-0.006-0.002 0.003-0.008 1.0862-2.3775-2.7502-1.2779 3.622-7.2726-0.10932-0.68876 0.93953-1.7852 0.36682-0.22326 0.84274-1.8536-15.481-4.9084z"/>
   <path id="Battery Park" data-id="Battery Park" data-area="downtown" d="m91.208 184.26-9.0348-28.344-1.6003 0.5045-16.495 5.523 12.276 31.627 1.2895 3.3413 0.37582-0.13635-1.2066-3.1357 5.975-1.7853 2.6547 7.9143-5.7161 1.7576-1.0016-2.8843-0.38909 0.13664 10.599 30.341 3.4835-0.68029 0.8523 3.7582 0.52019 2.2598-2.8625 0.74961 1.9714 5.9322 6.2361 6.8183 6.4038-3.1189 0.12095 0.58317-4.5507 3.6138 1.8289 1.0359 2.6116-1.9927 1.1381-0.2477-10.042-47.432-5.4385-16.139z"/>
   <path id="South Street Seaport" data-id="South Street Seaport" data-area="downtown" d="m174.69 181.9-15.481-4.9084-4.0929 19.611 2.919 1.8302-3.4471 9.0891 6.8005 2.4345 1.1356-2.9075 5.8457 2.2266 0.82578-2.1096 3.1675 1.0963 0.45771-1.2389-5.4674-2.182 0.89348-2.2476 6.4424 2.4465 2.0355-5.3164-6.0301-2.3346-0.006-0.002 0.003-0.008 1.0862-2.3775-2.7502-1.2779 3.622-7.2726-0.10932-0.68876 0.93953-1.7852 0.36682-0.22326 0.84274-1.8536z"/>
   <path id="Tribeca" data-id="Tribeca" data-area="downtown" d="m122.39 185.03 3.6472-62.402-22.76-5.6457-37.028-10.01-3.352 0.32026 10.595 28.96-2.5459 0.90634 1.4543 4.315 1.7838-0.58141 1.1869 3.1326-7.4232 2.5869 0.78551 2.1066 5.705-2.03 0.57718 1.6357 2.5515-0.86053 3.0074 8.9508 1.6003-0.5045 9.0348 28.344 31.18 0.77582z"/>
   <path id="Noho" data-id="Noho" data-area="downtown" d="m129.46 75.571 7.4507-1.5447 14.866-1.3257-5.5795-22.997-4.2521-13.628-3.2165 1.1046-6.8261 2.3187-2.4423 36.072z"/>
   <path id="West Village" data-id="West Village" data-area="downtown" d="m41.117 95.331 41.322-17.199-2.2169-5.2373-5.0679-65.588-16.184-0.086618-37.727-0.20395 1.6097 4.3949-0.78042 0.33506 0.96514 2.4766-12.155 4.7225 0.65306 1.639 12.954-4.9351 1.2894 3.4317-8.3723 4.0132-5.7096 2.654 0.49643 0.97246 5.2162-2.5834 1.2685 2.5288-3.7402 1.7611 1.2666 2.7204 3.7173-1.7818 1.346 2.8867 5.338-2.6266 2.3097 4.7971-2.6845 1.3116 0.79648 1.7739 2.7474-1.3062 10.562 22.518-5.3418 2.5476 0.80124 1.6171 5.336-2.5316 1.1581 2.4667 0.61153-0.30536 0.87725 1.692-14.277 7.6551 0.82929 1.5237 13.469-7.1052 7.2151 15.285-13.406 5.6741 3.508 8.0916z"/>
   <path id="Little Italy" data-id="Little Italy" data-area="downtown" d="m137.42 100.27-1.9492 24.635 8.4527 1.9713 18.07-0.0802-3.0864-22.589-1.2144-5.814-20.273 1.8776z"/>
   <path id="Soho" data-id="Soho" data-area="downtown" d="m66.247 106.98 37.028 10.01 22.76 5.6457 9.4344 2.2742 1.9492-24.635 0.2006-5.2207 0.37733-0.55988-1.6773-9.5194 0.58957-10.944-7.4507 1.5447-9.1265-0.38711-26.314-1.8721-11.579 4.8201-41.322 17.199 2.3231 5.3663 13.679-5.8444 5.7753 12.444 3.352-0.32026z"/>
   <path id="West Soho" data-id="West Soho" data-area="downtown" d="m41.117 95.331 2.3231 5.3663 13.679-5.8444 5.7753 12.444 3.352-0.32026 37.028 10.01-9.2573-43.674-11.579 4.8201-41.322 17.199z"/>
   <path id="Nolita" data-id="Nolita" data-area="downtown" d="m157.69 98.393-5.9168-25.693-14.866 1.3257-0.58957 10.944 1.6773 9.5194-0.37733 0.55988-0.2006 5.2207 20.273-1.8776z"/>
   <path id="Hudson Square" data-id="Hudson Square" data-area="downtown" d="m103.27 116.99-9.2573-43.674-11.579 4.8201-41.322 17.199 2.3231 5.3663 13.679-5.8444 5.7753 12.444 3.352-0.32026 37.028 10.01z"/>
   <path id="Central Village" data-id="Central Village" data-area="downtown" d="m82.439 78.132 11.579-4.8201 26.314 1.8721 9.1265 0.38711 2.4423-36.072 6.8261-2.3187-0.0133-10.514-3.306-10.607-4.7404-8.7288-39.306 0.031399-16.206-0.055266 5.0679 65.588 2.2169 5.2373z"/>
   <path id="East Village" data-id="East Village" data-area="downtown" d="m130.67 7.3304 4.7404 8.7288 3.306 10.607 0.0133 10.514 3.2165-1.1046 4.2521 13.628 5.5795 22.997 33.558-3.8952 40.096-5.1082 8.6344 0.04128 8.8089-2.28 9.1782-3.3045-4.7304-15.154-5.644-16.582-4.7371-13.139 0.20784-0.09391-1.9736-5.0328-2.6448-0.42819-47.4-0.44282-12.53 0.13588-35.395-0.00265-6.5364-0.083717z"/>
   <path id="Lower East Side" data-id="Lower East Side" data-area="downtown" d="m252.05 58.154-9.1782 3.3045-8.8089 2.28-8.6344-0.04128-40.096 5.1082-33.558 3.8952 5.9168 25.693 1.2144 5.814 30.661-3.4049 2.638 19.995 0.89315 2.3809 1.3153 1.9671 19.738-14.01 19.53 26.336 5.8097-4.2593 7.3734-5.4057-1.4258-2.1658 3.8981-2.6833-0.25867-0.41885 6.4584-4.3449 2.4469-1.684 1.1296-1.6666 1.2578-3.8748 0.73181-3.9114-0.39095-6.1597-0.8274-5.4614-2.3826-13.527-5.4518-23.754z"/>
   <path id="Two Bridges" data-id="Two Bridges" data-area="downtown" d="m233.68 137.47-19.53-26.336-19.738 14.01-30.45 21.424-2.6077-0.66097-1.5641 2.7111 1.8092 0.44436-2.3896 27.928 15.481 4.9084 1.5856-3.64 4.238-5.4738 13.78-11.5 3.4482-2.9305 16.368-13.67 3.4699 4.7014 16.1-11.916z"/>
   <path id="Alphabet City" data-id="Alphabet City" data-area="downtown" d="m185.13 7.2809 0.065 19.433 0.0436 13.097 0.0958 28.994 40.096-5.1082 8.6344 0.04128 8.8089-2.28 9.1782-3.3045-4.7304-15.154-5.644-16.582-4.7371-13.139 0.20784-0.09391-1.9736-5.0328-2.6448-0.42819-47.4-0.44282z"/>
   <path id="Chinatown" data-id="Chinatown" data-area="downtown" d="m159.79 148.62 1.8092 0.44436 1.0872 0.23585 5.4094 6.0902 3.2588-2.5929 2.9816 3.6763 18.111-13.076-5.3492-7.6627 9.7063-6.9318-2.393-3.6578-1.3153-1.9671-0.89315-2.3809-2.638-19.995-30.661 3.4049 3.0864 22.589-18.07 0.0802 0.42419 16.696 1.5863 0.14851 2.7296 4.2918 11.13 0.60641z"/>
   <path id="Meatpacking District" data-id="Meatpacking District" data-area="downtown" d="m43.987 7.1393-22.744-0.1233 1.6097 4.3949-0.78042 0.33506 0.96514 2.4766-12.155 4.7225 0.65306 1.639 12.954-4.9351 1.2894 3.4317 3.0353 7.7968 18.662-10.634-3.4886-9.1038z"/>
  </g>
 </defs>
 <metadata id="metadata3658">
  <views>
   <view padding="0" h="267.406752256" w="300">
    <proj id="satellite" dist="1.6" lat0="40.7163266713" tilt="0" up="-29" lon0="-73.9987462161"/>
    <bbox y="999.27" h="1.47" w="1.65" x="999.17"/>
   </view>
  </views>
  <rdf:RDF>
   <cc:Work rdf:about="">
    <dc:format>image/svg+xml</dc:format>
    <dc:type rdf:resource="http://purl.org/dc/dcmitype/StillImage"/>
    <dc:title/>
   </cc:Work>
  </rdf:RDF>
 </metadata>
 <rect id="rect26" width="300" fill="#bfd7e3" stroke="none" height="303.77"/>
 <g id="contour" stroke="#000" fill="#fff" transform="matrix(1.155 0 0 1.155 -3.1382 .56801)">
  <path id="path3664" fill-rule="evenodd" d="m15.631 0.12957 0.57268 1.4987-12.121 4.6612 1.0398 2.6265 12.075-4.7507 0.79294 2.0066 2.4671-0.99493 0.78524 1.839 1.6097 4.3949-0.78042 0.33506 0.96514 2.4766-12.155 4.7225 0.65306 1.639 12.954-4.9351 1.2894 3.4317-8.3723 4.0132-5.7096 2.654 0.49643 0.97246 5.2162-2.5834 1.2685 2.5288-3.7402 1.7611 1.2666 2.7204 3.7173-1.7818 1.346 2.8867 5.338-2.6266 2.3097 4.7971-2.6845 1.3116 0.79648 1.7739 2.7474-1.3062 10.562 22.518-5.3418 2.5476 0.80124 1.6171 5.336-2.5316 1.1581 2.4667 0.61153-0.30536 0.87725 1.692-14.277 7.6551 0.82929 1.5237 13.469-7.1052 7.2151 15.285-13.406 5.6741 3.508 8.0916 2.3231 5.3663 13.679-5.8444 5.7753 12.444 10.595 28.96-2.5459 0.90634 1.4543 4.315 1.7838-0.58141 1.1869 3.1326-7.4232 2.5869 0.78551 2.1066 5.705-2.03 0.57718 1.6357 2.5515-0.86053 3.0074 8.9508-16.495 5.523 12.276 31.627 1.2895 3.3413 0.37582-0.13635-1.2066-3.1357 5.975-1.7853 2.6547 7.9143-5.7161 1.7576-1.0016-2.8843-0.38909 0.13664 10.599 30.341 3.4835-0.68029 0.8523 3.7582 0.52019 2.2598-2.8625 0.74961 1.9714 5.9322 6.2361 6.8183 6.4038-3.1189 0.12095 0.58317-4.5507 3.6138 1.8289 1.0359 2.6116-1.9927 1.1381-0.2477 0.26545 1.0564 1.191 2.5833 2.1502 2.084 5.5357 3.0584 8.4095 3.4644 3.645 1.0806 0.0515-1.1513 5.447 0.29045-0.78636-2.8614 1.8744-0.65501 1.7849 2.4753 6.7163-5.912 2.4216-2.4286-2.3915-2.8722 3.3791-3.5552 2.3418-2.6091 8.4747 5.2178 0.8071-1.3267-1.6098-0.98665 2.8128-4.6235-1.4141-0.86674-2.7498 4.5201-5.3059-3.1072 0.51494-0.60583 1.9162-4.6074 1.7164-4.2487-0.0701-1.557 1.7748-4.3329 9.2348 3.4129 0.41881-1.1963-9.2053-3.3489 1.0524-2.7802 0.86442 0.31273 0.91646-2.5338 9.4114 3.2451 0.46814-1.2836-9.2547-3.5726 1.2119-3.2594 7.9476 3.1147 0.52021-1.3562-7.9134-3.0512 0.69407-2.065-0.83064-0.30211 0.26301-0.7318 1.1356-2.9075 5.8457 2.2266 0.82578-2.1096 3.1675 1.0963 0.45771-1.2389-5.4674-2.182 0.89348-2.2476 6.4424 2.4465 2.0355-5.3164-6.0301-2.3346-0.006-0.002 0.003-0.008 1.0862-2.3775-2.7502-1.2779 3.622-7.2726-0.10932-0.68876 0.93953-1.7852 0.36682-0.22326 0.84274-1.8536 1.5856-3.64 4.238-5.4738 13.78-11.5 3.4482-2.9305 16.368-13.67 3.4699 4.7014 16.1-11.916 5.8097-4.2593 7.3734-5.4057-1.4258-2.1658 3.8981-2.6833-0.25867-0.41885 6.4584-4.3449 2.4469-1.684 1.1296-1.6666 1.2578-3.8748 0.73181-3.9114-0.39095-6.1597-0.8274-5.4614-2.3826-13.527-5.4518-23.754-4.7304-15.154-5.644-16.582-4.7371-13.139 0.20784-0.09391-1.9736-5.0328-1.7922-4.7039-0.93619 0.38182-0.60973-1.4432 0.40499-0.19678-0.88913-3.9132-215.72 0.12128z"/>
 </g>
 <use id="use30" fill-opacity="0" xlink:href="#neighs" stroke="#000000" stroke-width=".4" class="neighBack" fill="#000000"/>
 <g id="parks" fill-rule="evenodd" transform="matrix(1.155 0 0 1.155 -3.1382 .56801)" stroke="none" class="" fill="#c7deb3">
  <path id="path3667" d="m88.935 229.12 3.4835-0.68029 0.8523 3.7582 0.52019 2.2598-2.8625 0.74961 1.9714 5.9322 6.2361 6.8183 6.4038-3.1189 0.12095 0.58317-4.5507 3.6138 1.8289 1.0359 2.6116-1.9927 1.1381-0.2477 0.26545 1.0564 1.191 2.5833 2.1502 2.084 5.5357 3.0584 8.4095 3.4644 3.645 1.0806 0.0515-1.1513 5.447 0.29045-0.78636-2.8614 1.8744-0.65501-1.9135-1.5351-1.4546-0.34891-2.2512-3.3076 0.36603-1.1689-0.66256-1.0451-3.8788-1.5261-1.911-2.4693-2.8084-7.4777-6.8869 1.8661-4.6415 2.9569-2.6916 0.61464-2.0623-0.10152-2.3308-1.1966-1.6321-1.6479-1.131-2.8766-3.7589 0.0555-0.04827-9.9099-6.3089 0.11291 0.4694 1.3437z"/>
  <path id="path3669" d="m99.966 41.375-0.67622 9.0648 17.983 1.3102 0.67336-9.1252-17.981-1.2498z"/>
  <path id="path3671" d="m185.19 26.714 0.045 13.52 13.114 0.01571-0.0594-13.493-13.1-0.04208z"/>
  <path id="path3673" d="m120.36 0.070689 0.0333 7.2682 5.344-0.0044 4.9315-0.00411-2.7156-5.0424 0.001-2.2216-7.5944 0.00427z"/>
 </g>
 <g id="streets" stroke-width="3" stroke="#357087" transform="matrix(1.155 0 0 1.155 -3.1382 .56801)" fill-rule="evenodd">
  <path id="path3696" d="m235.17 8.1519-2.64-0.4282-47.4-0.4428-12.53 0.1359-35.4-0.0027-6.53-0.0837-4.94 0.0041-34.37 0.0273-16.206-0.0552-53.911-0.2906"/>
  <path id="path3698" d="m62.895 107.3 3.352-0.32026 37.028 10.01 22.76 5.6457 9.4344 2.2742 8.4527 1.9713 18.07-0.0802 31.106-3.6179 3.9228 0.11638"/>
  <path id="path3700" d="m125.73 7.3345 6.9249 19.52-0.75974 12.645-2.4423 36.072-3.4232 47.06-3.6472 62.402-2.4296 52.866"/>
  <path id="path3702" d="m63.536 86 18.903-7.8681 11.579-4.8201 26.314 1.8721 9.1265 0.38711 7.4507-1.5447 14.866-1.3257 33.558-3.8952 40.096-5.1082 8.6344 0.04128 8.8089-2.28 3.3325-1.1998"/>
  <path id="path3704" d="m109.65 42.048 0.0367-34.687-0.0167-7.2847"/>
  <path id="path3706" d="m54.982 31.191 3.988-23.971-0.01-7.1148"/>
 </g>
</svg>
