<?xml version="1.0" encoding="UTF-8" standalone="no"?>
<svg id="svg2" stroke-linejoin="round" xmlns:rdf="http://www.w3.org/1999/02/22-rdf-syntax-ns#" xmlns="http://www.w3.org/2000/svg" fill="none" enable_background="new 0 0 800 211" pretty_print="False" height="238.16" viewBox="0 0 899.99946 238.16398" width="900" stroke="#000000" version="1.1" xmlns:cc="http://creativecommons.org/ns#" xmlns:xlink="http://www.w3.org/1999/xlink" xmlns:dc="http://purl.org/dc/elements/1.1/">
 <defs id="defs4">
  <style id="style6" type="text/css"><![CDATA[path { fill-rule: evenodd; }]]></style>
  <g id="neighs" pointer-events="all" transform="translate(1.605,3.5)">
   <path id="Civic Center" d="m90.855 115.75-40.073-2.3598 3.0776 3.3273 6.6112 5.122-4.5351 15.2 17.934 1.5425 0.28587-1.1617 0.39258-7.1471 2.7569-1.7517 0.09582-1.0186 10.722-0.26768 1.2683-5.4277 1.4631-6.058z" fill-rule="evenodd" data-area="downtown" data-id="Civic Center"/>
   <path id="Financial District" d="m55.935 137.04 4.5351-15.2-6.6112-5.122-3.0776-3.3273 0.50705-20.023-10.366 3.488-30.463 6.4356-0.6785 0.17018-1.6593 0.76409-1.3389 1.3802-1.9656 3.554-2.2271 5.3995-0.69498 2.3405 0.73931 0.0334-0.18807 3.4979 1.8377-0.50418 0.4201 1.2039-1.5901 1.1456 3.7947 4.3148 1.5589 1.5558 1.8452-1.535 2.2821 2.171 1.6748 1.5046-3.3532 5.4409 0.85174 0.51869 0.63407-1.0335 2.9683 1.8077 0.557-0.90788-2.9019-1.7672 1.9969-3.4065 0.38891 0.33085 2.9582 1.2319 2.728 1.1034 0.99992-0.0446 2.782 1.141-2.1943 5.9295 0.76815 0.2693 2.1532-5.9106 1.7851 0.67662-0.20107 0.55503 1.6269 0.58926-2.0866 6.0429 0.82418 0.301 2.2968-5.9422 2.0928 0.77921-2.0025 5.103 0.87075 0.33446 1.9616-5.081 1.3259 0.4463 0.19424-0.53334 0.46987 0.16911 1.8668 0.73009-1.4316 3.7534 1.3545 0.5309-0.7049 2.0338 0.79545 0.29429 1.4028-3.5105 1.4431 0.57441-1.5729 4.1365 3.4135 1.3087 1.5009-3.8718 0.0015-0.004 0.0048 0.002 1.5265 0.69822 0.82141-1.7658 4.6693 2.3281 0.44234-0.07 1.1461 0.60386 0.14327 0.23563 1.1901 0.54172 3.1565-9.9401z" fill-rule="evenodd" data-area="downtown" data-id="Financial District"/>
   <path id="Battery Park" d="m51.289 93.364 18.205-5.794-0.32353-1.0279-3.5421-10.594-20.314 7.8747-2.1461 0.82716 0.08746 0.24139 2.014-0.77398 1.1448 3.8376-5.0832 1.7026-1.1271-3.6713 1.8526-0.64238-0.08763-0.24991-19.487 6.7982 0.43589 2.2372-2.4137 0.54627-1.4513 0.33342-0.48057-1.8385-3.8101 1.2643-4.3804 4.0028 2.0011 4.1133-0.37453 0.0775-2.3194-2.9234-0.66577 1.1742 1.2789 1.6777 0.15875 0.73094 30.463-6.4356 10.366-3.488z" fill-rule="evenodd" data-area="downtown" data-id="Battery Park"/>
   <path id="South Street Seaport" d="m52.779 146.98 3.1565-9.9401-12.592-2.634-1.1761 1.874-5.8359-2.2162-1.5653 4.3665 1.8668 0.73009-1.4316 3.7534 1.3545 0.5309-0.7049 2.0338 0.79545 0.29429 1.4028-3.5105 1.4431 0.57441-1.5729 4.1365 3.4135 1.3087 1.5009-3.8718 0.0015-0.004 0.0048 0.002 1.5265 0.69822 0.82141-1.7658 4.6693 2.3281 0.44234-0.07 1.1461 0.60386 0.14327 0.23563 1.1901 0.54172z" fill-rule="evenodd" data-area="downtown" data-id="South Street Seaport"/>
   <path id="Tribeca" d="m50.782 113.39 40.073 2.3598 3.632-14.615 6.4385-23.776-0.20471-2.1527-18.601 6.796-0.58131-1.6352-2.7715 0.93273 0.37287 1.1457-2.012 0.76134-1.6592-4.7678-1.3531 0.50385 1.302 3.6642-1.0506 0.37019 0.55189 1.6388-5.7489 1.9288 0.32353 1.0279-18.205 5.794-0.50705 20.023z" fill-rule="evenodd" data-area="downtown" data-id="Tribeca"/>
   <path id="Noho" d="m121.08 117.96 0.98985 4.7852 0.84716 9.5469 14.77-3.5766 8.7529-2.7268-0.70846-2.0659-1.4871-4.3843-23.164-1.5786z" fill-rule="evenodd" data-area="downtown" data-id="Noho"/>
   <path id="West Village" d="m108.41 61.221 11.033 26.541 3.364-1.4222 42.121-3.2359 0.0602-10.393 0.14168-24.228-2.8228 1.0325-0.21495-0.50127-1.5907 0.6191-3.0293-7.8069-1.0527 0.41892 3.1656 8.3201-2.2041 0.82708-2.5748-5.3777-1.7028-3.6674-0.62464 0.31853 1.6576 3.3505-1.6243 0.81388-1.1299-2.4024-1.7474 0.81262 1.1432 2.3877-1.8542 0.86358 1.6853 3.4288-3.0813 1.4819-0.84155-1.7243-1.1394 0.51099 0.83804 1.7647-14.464 6.7761-1.6345-3.4311-1.0387 0.51409 1.6243 3.4274-1.5844 0.743 0.19593 0.3928-1.0868 0.56288-4.912-9.1708-0.97872 0.53213 4.559 8.6515-9.8181 4.6291-3.64-8.6107-5.1973 2.2505z" fill-rule="evenodd" data-area="downtown" data-id="West Village"/>
   <path id="Little Italy" d="m105.21 123.06-15.819-1.2587-1.2683 5.4277 0.04642 11.604 14.507-1.9756 3.734-0.7782-1.2-13.019z" fill-rule="evenodd" data-area="downtown" data-id="Little Italy"/>
   <path id="Soho" d="m100.93 77.356-6.4385 23.776-3.632 14.615-1.4631 6.058 15.819 1.2587 3.3526 0.1303 0.35945 0.24248 6.1137-1.0744 7.0282 0.38172-0.98985-4.7852 0.25118-5.8608 1.2097-16.898-3.0921-7.437-11.033-26.541-3.4468 1.4904 3.7493 8.7864-7.9928 3.7053 0.20471 2.1527z" fill-rule="evenodd" data-area="downtown" data-id="Soho"/>
   <path id="West Soho" d="m108.41 61.221-3.4468 1.4904 3.7493 8.7864-7.9928 3.7053 0.20471 2.1527-6.4385 23.776 28.049-5.9326-3.0921-7.437-11.033-26.541z" fill-rule="evenodd" data-area="downtown" data-id="West Soho"/>
   <path id="Nolita" d="m106.41 136.08 16.501-3.7924-0.84716-9.5469-7.0282-0.38172-6.1137 1.0744-0.35945-0.24248-3.3526-0.1303 1.2 13.019z" fill-rule="evenodd" data-area="downtown" data-id="Nolita"/>
   <path id="Hudson Square" d="m94.487 101.13 28.049-5.9326-3.0921-7.437-11.033-26.541-3.4468 1.4904 3.7493 8.7864-7.9928 3.7053 0.20471 2.1527-6.4385 23.776z" fill-rule="evenodd" data-area="downtown" data-id="Hudson Square"/>
   <path id="Central Village" d="m119.44 87.762 3.0921 7.437-1.2097 16.898-0.25118 5.8608 23.164 1.5786 1.4871 4.3843 6.7522-0.006 6.8124-2.12 5.6068-3.0417-0.009-25.242 0.0401-10.408-42.121 3.2359-3.364 1.4222z" fill-rule="evenodd" data-area="downtown" data-id="Central Village"/>
   <path id="East Village" d="m164.9 118.75-5.6068 3.0417-6.8124 2.12-6.7522 0.006 0.70846 2.0659-8.7529 2.7268-14.77 3.5766 2.492 21.551 3.2691 25.75-0.0289 5.5449 1.4617 5.6576 2.1195 5.895 9.7332-3.0335 10.65-3.6198 8.4391-3.0384 0.0602 0.1335 3.2326-1.266 0.27572-1.6983 0.29777-30.439-0.0837-8.0466 0.0117-22.73 0.0556-4.1976z" fill-rule="evenodd" data-area="downtown" data-id="East Village"/>
   <path id="Lower East Side" d="m132.23 196.69-2.1195-5.895-1.4617-5.6576 0.0289-5.5449-3.2691-25.75-2.492-21.551-16.501 3.7924-3.734 0.7782 2.1779 19.691-12.842 1.6884-1.5292 0.57289-1.2636 0.84413 8.9914 12.679-16.918 12.534 2.7336 3.7321 3.4694 4.7366 1.3913-0.91504 1.7221 2.504 0.26905-0.166 2.7884 4.1488 1.0807 1.5719 1.07 0.72585 2.488 0.80883 2.5117 0.47108 3.9558-0.24932 3.5075-0.52979 8.6877-1.5262 15.256-3.4944z" fill-rule="evenodd" data-area="downtown" data-id="Lower East Side"/>
   <path id="Two Bridges" d="m81.294 184.87 16.918-12.534-8.9914-12.679-13.749-19.561 0.4252-1.6744-1.7406-1.0052-0.28587 1.1617-17.934-1.5425-3.1565 9.9401 2.3371 1.0193 3.514 2.7231 7.3814 8.8524 1.8809 2.2152 8.7742 10.515-3.0201 2.227 7.6477 10.342z" fill-rule="evenodd" data-area="downtown" data-id="Two Bridges"/>
   <path id="Alphabet City" d="m164.91 153.73-12.48 0.0362-8.4109 0.0243-18.62 0.0533 3.2691 25.75-0.0289 5.5449 1.4617 5.6576 2.1195 5.895 9.7332-3.0335 10.65-3.6198 8.4391-3.0384 0.0602 0.1335 3.2326-1.266 0.27572-1.6983 0.29777-30.439z" fill-rule="evenodd" data-area="downtown" data-id="Alphabet City"/>
   <path id="Chinatown" d="m74.156 137.42-0.28587 1.1617-0.15176 0.69812-3.9126 3.4721 1.6642 2.0935-2.3617 1.9137 8.3918 11.635 4.9224-3.433 4.4487 6.2352 2.3497-1.5357 1.2636-0.84413 1.5292-0.57289 12.842-1.6884-2.1779-19.691-14.507 1.9756-0.04642-11.604-10.722 0.26768-0.09582 1.0186-2.7569 1.7517-0.39258 7.1471z" fill-rule="evenodd" data-area="downtown" data-id="Chinatown"/>
   <path id="Chelsea" d="m164.89 93.512 17.672-0.02229 9.0373-0.04943 6.1463-0.00009 2.9757 0.0037 11.93-0.01271 0.0223-20.769 0.0226-10.439 0.0509-33.387-1.1838 0.0058 0.005-0.4579-0.94422-0.01797-0.0103 0.46066-8.2546 1.8929 0.0112-1.2267-0.64337-0.0013 0.0181-4.004 0.59788 0.0012 0.003-0.47601-0.33779-0.000706-0.00099 0.1848-0.46277-0.000963 0.0135 4.1491-0.0223 1.5649-0.59498 0.13742-0.004-3.0965-0.086 0.000378 0.001 1.0851-0.64355 0.000634 0.15155 2.1362-8.116 1.8618 0.0398-0.98812-0.36752 0.12715-0.42732-4.2076-0.41737 0.04278 0.43876 4.2882-4.2251 0.94671-1.3867-3.596-1.7671 0.67548 2.6672 6.8282-2.3649 0.91841-2.6716-6.84-1.6639 0.65075 2.6428 6.8384-2.3652 0.9232-2.6414-6.8374-1.6537 0.64929 2.5363 6.7151-2.3172 0.92359-2.604-6.7406-1.691 0.69941-1.6764 0.68644 0.21215 0.4876 0.0518-0.0226-0.166-0.37587 1.5047-0.62277 0.68391 1.7677-1.5341 0.56165-0.19528-0.45878-0.0581 0.02476 0.43147 1.0136 0.0571-0.02516-0.16764-0.38286 1.4863-0.61036 0.69272 1.752-1.4998 0.62039-0.21386-0.51726-0.073 0.03079 0.4293 1.0211 0.0655-0.0276-0.16826-0.39868 1.516-0.59952 0.6008 1.5451-1.5147 0.58843-0.15285-0.3697-0.0847 0.035 0.36225 0.8792 0.0683-0.02822-0.15942-0.3876 1.5191-0.59363 0.43046 1.1261-1.1563 0.44319 0.71313 2.0601 0.22972 0.66444-1.7508 0.6774-2.0738 0.79211-0.63498-1.6112-1.1858 0.45251-2.9899-7.7853-1.687 0.667 3.0474 7.7558-1.2888 0.50865 0.63823 1.5846-1.1812 0.50375-0.14168 24.228-0.0602 10.393-0.0401 10.408z" fill-rule="evenodd" data-area="midtown" data-id="Chelsea"/>
   <path id="Hell's Kitchen" d="m249.18 28.756-2.7257 0.0034 0.0744-8.1884-0.88078-0.02135-0.0827 8.2113-2.6696-0.0057-0.008 33.475-0.006 10.397 6.1912-0.0241 9.2872-0.03243 36.374-0.02602 6.244-0.0087 2.9957-2.247 0.087-8.1582-2.987 0.01679 0.051-31.272 0.33894-2.4161 0.004-7.8818-1.324-0.08949 0.0287 4.3196 0.72213-0.0011-0.0705 2.7001-0.55794 0.0079-0.015 1.3363 0.45269 0.01703 0.009 0.39-2.2812-0.01427 0.0123-9.1144-0.18881-0.0038 0.0332 1.5881-1.1629-0.02178-0.0107 3.3048 0.61034-0.0104-0.007 3.69-2.1594-0.0049 0.029-7.8083-1.345 0.0051 0.002 7.8095-0.23734-0.0048-0.31699 0.48681-0.18606-0.01912-0.25198-0.46848-1.2204 0.01274 0.0754-2.1518-0.94532-0.0426 0.0796 2.1976-2.2889 0.01737 0.009-0.49219-0.7633-0.0012 0.0116 0.49312-2.889 0.01892-0.003-8.9346-1.7436-0.000662-0.0328 8.979-3.2875 0.0182 0.046-9.0147-1.4633-0.01547-0.008 12.038-4.6581 0.02957 0.0738-12.025-1.477-0.0082-0.0663 12.037-4.6398 0.02141 0.12404-12.076-1.483 0.02147-0.0272 12.133-0.98772 0.04713-0.32169-0.11652-0.37126-0.3453-0.19969-0.09957-0.21116 0.10075-0.21213 0.2285-0.25291 0.46455-2.0598 0.01526 0.0253-11.531-1.7453 0.0043-0.0345 11.527-4.1602-0.08431 0.0571-3.4102-0.006-8.7706-0.59231 0.0085 0.00027 0.22177 0.36254-0.0053-0.0162 0.59397-1.359 0.01647 0.00076 7.9432-2.7413 0.01079-0.0243-8.1106-0.94294-0.0078-0.018 8.1273-1.6856 0.0021z" fill-rule="evenodd" data-area="midtown" data-id="Hell&apos;s Kitchen"/>
   <path id="Hudson Yards" d="m212.75 28.836-0.0509 33.387-0.0226 10.439 12.11-0.01249 18.102-0.02149 6.1912-0.0241-0.003-10.403 0.0621-32.335 0.0478-1.1094-2.7257 0.0034 0.0744-8.1884-0.88078-0.02135-0.0827 8.2113-2.6696-0.0057-0.296-0.000629 0.015-1.2728-3.014 0.0096-2.1813-0.03512-0.0264 1.314-0.66756 0.01776 0.005-1.6185-0.0798 0.0043 0.0813-0.57838-0.25684-0.041-0.0997 0.62884-0.56891 0.0038-0.014 1.615-0.65396-0.006 0.002-1.0921-1.9984 0.01689-0.0318-7.2634-3.4972-0.0075 0.0305 7.2873-1.5947-0.02185-0.0719 1.7735-2.7619 0.04021 0.016-0.76428-11.485 0.0598-0.00073-0.46358-0.94322 0.0046 0.00076 0.46902-0.0595 0.000289z" fill-rule="evenodd" data-area="midtown" data-id="Hudson Yards"/>
   <path id="Midtown South" d="m258.35 62.195-9.2735 0.0061-6.1822 0.02985-17.972-0.0036-12.223-0.0049-0.0226 10.439-0.0223 20.769-0.0184 4.2007-0.0356 7.5751-0.0412 17.662 12.15-0.0135 24.232-0.0183 9.2897-0.0335 0.0675-17.684 0.0738-22.071-0.005-10.477-0.0168-10.376z" fill-rule="evenodd" data-area="midtown" data-id="Midtown South"/>
   <path id="NoMad" d="m212.65 93.431-11.93 0.01271-2.9757-0.0037-0.027 9.9068-0.0572 1.9056 0.007 5.7749 0.015 11.863 2.9836-0.008 11.889-0.0139 0.0412-17.662 0.0356-7.5751 0.0184-4.2007z" fill-rule="evenodd" data-area="midtown" data-id="NoMad"/>
   <path id="Central Midtown" d="m300.98 72.536-6.244 0.0087-36.374 0.02602-9.2872 0.03243-0.0453 20.664-0.0254 11.867-0.0106 5.8157-0.0576 11.887 9.2897-0.0335 24.107-0.0227 12.313-0.0287 6.3137-0.0158 0.0516-17.671-0.0306-32.528z" fill-rule="evenodd" data-area="midtown" data-id="Central Midtown"/>
   <path id="Union Square" d="m182.56 93.489-17.672 0.02229 0.009 25.242-0.0556 4.1976 12.011-0.0183-0.005-5.9213 5.6839-0.0123-0.002-7.4439-0.008-4.3089 0.0391-11.757z" fill-rule="evenodd" data-area="midtown" data-id="Union Square"/>
   <path id="Garment District" d="m212.7 62.222-0.0226 10.439-0.0223 20.769-0.0184 4.2007-0.0356 7.5751 12.136-0.0347 18.068-0.0283 6.2054-0.01 0.0254-11.867 0.0453-20.664-0.003-10.403-6.1822 0.02985-17.972-0.0036-12.223-0.0049z" fill-rule="evenodd" data-area="midtown" data-id="Garment District"/>
   <path id="Flatiron District" d="m200.67 122.88 0.0469-11.806 0.0237-5.9144 0.004-2.9561-0.0207-8.762-2.9757-0.0037-6.1463 0.00009-9.0373 0.04943-0.0391 11.757 0.008 4.3089 0.002 7.4439 5.793-0.009-0.0439 5.8757 3.2025 0.004 6.1996 0.0196 2.9836-0.008z" fill-rule="evenodd" data-area="midtown" data-id="Flatiron District"/>
   <path id="Murray Hill" d="m248.99 110.95-24.262 0.0825-0.0274 11.823 0.0247 27.764 0.001 1.5414 0.092-0.001 0.29554-0.0123 1.024-0.0434 0.49435-0.0161 0.0657 0.58606 1.3104-0.10118-0.0432-0.54092 0.23037-0.0137 0.0114-0.56156 1.2769-0.0523 0.0309 1.5364 0.34573 0.0514 0.002-1.6038 1.3241-0.0604-0.005 0.55866 3.0674-0.0603 2.2107 0.10959-0.0359 0.3783 9.6373 0.66133 0.0331-0.50568 2.6819 0.16569-0.18225-2.4392 0.0386-1.9734 0.19603-2.6565 0.0661-8.6807 0.0377-14.048 0.0576-11.887z" fill-rule="evenodd" data-area="midtown" data-id="Murray Hill"/>
   <path id="Gramercy Park" d="m191.46 145.67 0.0255-22.8 0.0626-5.8853-3.2212 0.005-5.793 0.009-5.6839 0.0123 0.005 5.9213-12.011 0.0183-0.0117 22.73 26.627-0.0109z" fill-rule="evenodd" data-area="midtown" data-id="Gramercy Park"/>
   <path id="Midtown East" d="m300.96 122.74-6.3137 0.0158-12.313 0.0287-24.107 0.0227-9.2897 0.0335-0.0377 14.048-0.0661 8.6807-0.19603 2.6565-0.0386 1.9734 0.18225 2.4392 7.3764 0.48439 16.834 1.3478 9.0744 0.81223 2.919 0.23052 4.3477 1.142 3.9132 0.0848 5.9748 0.22558 1.6756 0.13765 0.0644-34.364z" fill-rule="evenodd" data-area="midtown" data-id="Midtown East"/>
   <path id="Stuyvesant Town / Peter Cooper Village" d="m191.46 145.67-26.627 0.0109 0.0837 8.0466-0.29777 30.439-0.27572 1.6983 3.0213-1.1496-0.24493-0.60132 0.92697-0.39115 0.12626 0.26013 3.328-1.3547 3.0494-2.0244 1.4105-2.0133 0.71403-1.7984 0.74631-2.5754 0.75867-1.8961 0.55742-0.95512 1.5811-1.338 4.3916-3.6471 0.1985 0.13382 0.37186 0.20721 0.14389 0.0255 0.0247-0.11056-0.11372-0.12293 0.00015-0.15707 0.1352-0.46728 0.1412-0.23931 0.16637-0.17887 5.782-4.8437-0.18887-2.5273 0.089-12.43z" fill-rule="evenodd" data-area="midtown" data-id="Stuyvesant Town / Peter Cooper Village"/>
   <path id="Kips Bay" d="m224.71 122.85-12.15 0.0135-11.889 0.0139-2.9836 0.008-6.1996-0.0196-0.0255 22.8-0.089 12.43 0.18887 2.5273 0.46579-0.36359 0.01 3.253 0.14852-0.002 0.14627 0.30053 0.28411 0.16729 0.33284 0.006 0.15363-0.0684 0.17229-0.19247 0.0571-0.11526 0.18458-0.0186-0.0161 0.96601 0.0754 0.001-0.008 0.29617-0.14199-0.002-0.0148 0.0885 0.66289 0.0261 0.0318-0.41807 1.2247 0.003-0.0133-0.1616-1.5204 0.008-0.004-4.0516-0.0399-0.14643-0.47043-0.73644 0.4659-0.30802 0.21997 0.68347 0.12772-0.0383-0.25214-0.81365 0.77358-0.41511 0.12939 1.2243 0.0971-0.0149-0.11094-1.2566 0.78372-0.30959 0.004 1.5336 0.12603 0.003 0.011-1.5669 0.45421-0.10384 0.0182 5.6297 0.64277 1.0313 2.3884-1.5674 5.738-3.4105 4.2863-2.5138 3.2843-1.0219 0.1531 0.4048 2.8024-1.0232-0.14656-0.39414 6.4729-2.3806 1.5397-0.0537-0.004-0.53938 1.448-0.0867-0.001-1.5414-0.0247-27.764z" fill-rule="evenodd" data-area="midtown" data-id="Kips Bay"/>
   <path id="Upper West Side" d="m457.82 72.317 0.0289-31.128-0.12109-15.596-92.421 1.4998-1.7312-3.3936-0.6906-0.11799-0.1348 0.28369 0.75897 0.12134 1.5534 3.1117-1.9242 0.041-0.55477 0.01182-0.007-0.41423-0.15734-0.0051-0.003-1.8729 0.22746-0.000301 0.00034-0.17021-0.54659 0.000713-0.00035 0.1758 0.22213-0.000291 0.001 1.8615-0.19326 0.0147 0.0175 0.41973-2.4116 0.0655 1.3422-3.1819 0.7384-0.15229-0.11942-0.3029-0.48785 0.13813-4.8373-0.80273-0.004 0.17254 4.6318 0.71678-1.5165 3.4192-24.274 0.84501-1.0268 0.49433-0.20221 0.30726-4.3742-6.8222-0.86839 0.0021 4.6866 7.2464-10.238 0.04216-0.8883-1.4456-9.667 0.03061 0.28595 1.0347-2.6241 0.22134-0.1781-0.72592-8.6484-0.0024-0.33894 2.4161-0.051 31.272 2.987-0.01679-0.087 8.1582-2.9957 2.247 33.196-0.07069 6.3149-0.007 86.598-0.10306 30.734-0.03889z" fill-rule="evenodd" data-area="uptown" data-id="Upper West Side"/>
   <path id="Yorkville" d="m362.32 164.44 5.6477 0.63955 3.7061 0.82513 3.4495 0.77465 4.9634 0.5987 3.4724 0.34443 2.3469 0.18965 2.5312-0.15263 2.1616-0.51732 2.3065 0.17488 2.5896-1.6972 0.46562-1.3063 4.5192-4.4483 2.3119 0.024 1.2966-2.4297-1.5112 0.0729 2.5037-2.7995 3.688-3.0317 0.93949-0.5572 4.5038-1.6492 0.40714-0.0693 0.12933-21.004-30.659 0.12077-21.861 0.0251 0.0918 35.873z" fill-rule="evenodd" data-area="uptown" data-id="Yorkville"/>
   <path id="Roosevelt Island" d="m366.91 182.48 2.4115 1.1543 2.2866-0.20314 2.8832 0.11934 1.5072-0.37366 1.0617-0.48483 2.036-1.4119 2.1617-1.215 1.1224-0.26634 1.2905-0.0845 0.20824-0.35307-0.0372-0.35511-0.19089-0.24095-1.683-0.14331-1.3846-0.3911-0.98113-1.2184-2.1835-1.5518-1.9261-0.58018-1.4424-0.0718-2.1418-0.22504-6.8006-1.7797-3.1316 0.15865-1.4083 0.4595-0.39892-0.36219 0.0118-0.58369-0.50055 0.0432-0.0252 0.54718-0.74612-0.008-1.4395-0.36264-19.472-0.78144-3.6494-1.2096-2.3655-0.16169-3.0942-0.33563-4.3518-0.0978-3.725 0.38128-1.1923-0.16493-3.5061-0.48503 0.10719-0.59475-1.357-0.22205-0.0817 0.29425-2.9148-0.51875-9.901-0.66232-0.56717 0.0871-18.089-1.9168-0.0184-0.31639-3.1049-0.0483-4.9375 0.87298-6.2404-0.55446-2.2627 0.48957-1.4662-0.0299-0.86121 0.26853-0.51445 0.37624 0.19705 0.46864 0.74684 0.50265 0.84235 0.0206 1.2106 0.0999 1.9513 0.51512 3.3483 1.1852 2.6022 0.49694 0.3318-0.22841 4.3868 1.6766 4.672 1.0264 9.3622 1.1226 0.27758 0.29067 4.6708 0.98117 4.7108 0.94331 5.3163 0.37528 1.6941-0.50431 3.4206 0.3162 6.1727 0.78579 3.9469 1.1041 26.555 2.0374 4.0566 0.002 2.6829 0.006 5.4756 0.46428 4.374 1.4255zm49.246-13.61 0.82929-0.47121 0.98765-0.24881 0.29857-0.58372-0.54654-0.49564-1.8592-0.58666-1.5334 0.55196-0.40678 0.58326-2.5913-0.35081-0.37155-0.36792-1.3214-0.17142-0.19099 0.63893 0.82097 0.41851 3.2006 0.50778 0.052 0.75877 1.2863 1.4895 0.7052 0.31603 1.8928-1.2228-0.12601-0.489-0.9142 0.52513-0.21201-0.8019z" fill-rule="evenodd" data-area="uptown" data-id="Roosevelt Island"/>
   <path id="Lenox Hill" d="m355.92 105.03-15.525 0.0108-39.387 0.0256-0.0516 17.671 39.433-0.0393 15.496-0.0162 0.0338-17.652z" fill-rule="evenodd" data-area="uptown" data-id="Lenox Hill"/>
   <path id="Upper East Side" d="m414.75 128.42 0.0719-21.543 0.003-1.9866-30.732 0.11456-15.595 0.009-12.575 0.0106-54.911 0.0365-0.0516 17.671-0.0644 34.364 5.7754 1.1034 9.8684 1.9258 5.5319 1.1474 5.9948 0.5193 6.0075 0.52421 6.1654 0.54125 6.4109 0.66246 6.1439 0.18699 2.7879-0.008 2.8721 0.3194 3.8686 0.42142 5.6477 0.63955 3.7061 0.82513 3.4495 0.77465 4.9634 0.5987 3.4724 0.34443 2.3469 0.18965 2.5312-0.15263 2.1616-0.51732 2.3065 0.17488 2.5896-1.6972 0.46562-1.3063 4.5192-4.4483 2.3119 0.024 1.2966-2.4297-1.5112 0.0729 2.5037-2.7995 3.688-3.0317 0.93949-0.5572 4.5038-1.6492 0.40714-0.0693 0.12933-21.004z" fill-rule="evenodd" data-area="uptown" data-id="Upper East Side"/>
   <path id="Carnegie Hill" d="m384.09 105.01-0.001 23.536 30.659-0.12077 0.0719-21.543 0.003-1.9866-30.732 0.11456z" fill-rule="evenodd" data-area="uptown" data-id="Carnegie Hill"/>
   <path id="Hamilton Heights" d="m534.51 66.889 18.271-3.0948 0.002 3.3679 12.241 1.3492 0.006-3.3555 27.207-0.08292 0.26695-0.04906 0.26153-0.07281 0.25398-0.09596 0.24439-0.11834 0.2328-0.13975 0.21934-0.16004 0.20409-0.17902 0.18719-0.19656 0.16878-0.21251 0.149-0.22673 0.0617-0.06198 0.0682-0.05469 0.0739-0.0467 0.0787-0.03812 0.1466-0.02479 0.1486-0.0015 0.1469 0.02192 0.14153 0.04475 0.13264 0.06646 0.12041 0.08651-0.00087-1.988 0.0333-20.635 0.22357-9.1213-0.19766-2.1308 0.29206-2.0228-0.11779-1.0009-0.88516-1.1398-1.7033-0.03237-3.5692 0.10925-0.77243 0.20394-2.0108 0.39936-7.7799 0.11412-4.4035 0.1394-4.6102 0.31273-2.4499 0.03522-1.1608-0.14217-2.417-0.01809-0.0307-0.55006-2.3901 0.07865-0.14878-4.2385 0.13042 0.0014 0.0206 0.000239-0.0229-0.41508-4.4545 0.16884-0.0494-1.1043-12.348 0.51087-0.003-0.0725-3.8222 0.15068 0.002 0.08-0.15703 0.04433-0.008 0.0063-0.0184 0.01705-0.0288 0.03361-0.0266 0.04024-0.0522 0.10928-0.009 0.02438-0.007 0.02605-0.007 0.05791 0.00037 0.06601 0.008 0.09061 0.016 0.92667-0.00015 0.06345-0.01 3.7307-0.46132 0.02498-0.16033 0.0087 0.029 1.0392-0.81068-0.04528-0.38246 0.0079-0.32697 0.04477-0.69475 0.26791-2.1258-0.01469 0.0401-0.45458 1.5479-1.5607 0.12185-0.17315 0.0551-0.21202-0.00081-0.48213 0.81912-0.004-0.004-2.4675-2.0359 0.01003 0.004 2.4786 0.80009-0.0178 0.008 0.40731-0.0759 0.1755-1.7574 1.7706-0.54143-0.03024-0.0192 13.688-0.0879 19.411-0.029 6.4732z" fill-rule="evenodd" data-area="upper manhattan" data-id="Hamilton Heights"/>
   <path id="Morningside Heights" d="m516.71 25.787-4.0297-0.45994-3.582-0.51244-4.504-0.19134-22.554 0.6054-12.289 0.57314-12.018-0.20906 0.12109 15.596-0.0238 20.592 15.217-4.0534 15.479-0.43734 4.1553-0.58301 0.46201-0.13792 0.6519-0.38765 0.45115-0.54566 0.4484-1.0299 0.0565-3.1438 13.189 0.03001 5.4967-10.526 2.9176-5.8265 0.35472-9.3527z" fill-rule="evenodd" data-area="uptown" data-id="Morningside Heights"/>
   <path id="Upper Carnegie Hill" d="m421.07 104.94-6.2446-0.0418-0.003 1.9866-0.0719 21.543 6.3972 0.0132-0.0718-21.567-0.006-1.9342z" fill-rule="evenodd" data-area="uptown" data-id="Upper Carnegie Hill"/>
   <path id="Wards Island" d="m501.66 209.98 2.4583-1.4389 3.2703-4.1289 3.5785-5.6956 1.1093-4.9044-0.11285-13.385 2.7829-4.5414 1.0762-1.3328 1.5102-2.9304 0.23019-2.7656-2.2425-5.0565-1.8615-3.0998-2.0906-0.2542-4.2718 0.0744 0.094-1.4261-0.94452-0.0611 0.0217 0.17438 0.62394 0.0399-0.0539 1.26-1.0379-0.0914-0.0315 0.68069-0.66184-0.042 0.0428-1.8617 0.66403 0.005 0.003-0.17545-0.83556-0.022-0.0522 2.0432-0.58026-0.0807-0.25253-0.0351-4.5729 1.0452-3.2628 1.0331-1.4632 0.94558-0.86636 1.0719-1.0663-0.97668-0.24567 0.26663 1.1822 1.1518-0.37436 0.41864-1.569 1.4768-1.586 1.1071-2.2254 1.1123-2.3299 0.65539-2.7609 0.59934-6.5134 0.0758-0.92795 0.46001-1.8371 1.2766-0.4991 1.9768 0.77949 1.9974-4.2633-0.40153-0.41311 0.23086 0.0318 0.38087 0.4259 0.5772 0.40324 0.43537 0.47762 0.70487 0.34691 0.85182 0.65077 0.88239 1.0519-0.0605 0.96632-0.48536 0.52449-0.42712 0.11406-1.281 0.54292-0.41703 1.3863 3.338-0.11064 0.16068-0.13466 0.0497-1.1556-2.7404-0.3017 0.11217 0.18105 1.2471-0.61009 0.36268-1.1968 1.0604-0.38355 0.0508-0.93177 0.61535-0.41959 0.0807-0.36923-0.34337-0.6876-2.0575-1.6528-3.2807-0.27889-1.7499-0.27959-0.3007 0.003-3.6676-3.1118-2.3531-2.8701-0.72229-4.0875-0.53283-0.15731-0.50941-2.4972 0.28911-2.4361-0.25603-15.07-1.0031-3.5386 1.2124-3.2859 1.5889-1.9658 4.5899 4.0435 13.763-1.015 9.8235 2.502 2.1294 6.6874 2.6708 0.29548 1.0352 0.70548 1.0233 1.8805 0.97209 0.66248 0.0248 0.0146-0.00012 5.0944 1.4055 8.2286-2.1431 1.2059 0.0476-0.035 0.39526 18.96 1.8167 0.15615-0.42472 0.75595-0.27936 5.1061 2.4835-0.0198 0.88995 3.4791 0.60406 0.17147-0.58734 3.6693 0.82733 1.4331 0.59101 3.6669-0.0304 5.1573 0.0876z" fill-rule="evenodd" data-area="wards island" data-id="Wards Island"/>
   <path id="East Harlem" d="m414.75 128.42-0.12933 21.004 0.65452-0.16612 2.4776 0.0495 2.8573 0.94001 9.1058 4.598 3.197 0.26987 6.5588 0.56204 3.5718-0.41537 4.4788-0.8134 0.75723-0.13078 0.024 3.3474 0.725 0.001 0.009-3.596 2.6936-0.00047 5.6902-0.0104 1.2778 0.35722-0.0925 0.31165 1.1941 0.34941 0.0893-0.33313 0.43427 0.11219 6.9203 2.3165 11.795 5.4566 0.59453 0.13669 5.4696-0.15338 3.7284-1.1818 10.117-5.1859 2.5987-1.5082 3.204-2.1324-0.0227-0.61971 4.6824-4.7086 1.1196-1.4724 0.58111-0.18044 2.462-3.4142 3.2059-5.4336 4.9984-10.132 3.0258-3.7199 4.345-3.2131 3.3914-1.6677 7.8064-3.2339 6.3381-3.0587-0.23648-0.44612 4.1753-2.0655 0.17283 0.33126 3.4533-1.8313 6.7813-3.7408-57.166 0.75144-3.1568 0.0413-0.0114-5.6425-12.096 0.03347-0.0339 5.6089-30.585 0.0563-12.449 0.0455-24.464 0.0393 0.006 1.9342 0.0718 21.567-6.3972-0.0132z" fill-rule="evenodd" data-area="upper manhattan" data-id="East Harlem"/>
   <path id="Museum Mile" d="m445.53 104.9-24.464 0.0393-6.2446-0.0418-30.732 0.11456-15.595 0.009-0.0214 1.9382 46.346-0.0747 30.713-0.052-0.002-1.9321z" fill-rule="evenodd" data-area="uptown" data-id="Museum Mile"/>
   <path id="Washington Heights" d="m752.26 4.1515-0.40849 0.081271-0.0126-0.81678 0.98287-0.20429-0.0604-0.28688-1.207 0.24991 0.0304 1.003-0.77852 0.051886-0.77168-0.55428-0.45897 0.34745 0.20581 0.53083-0.16157 0.35584-0.81135 0.58496-0.16015-0.9271-1.1109 0.10272 0.0146 0.14298 0.80123-0.055168 0.14379 0.84596-0.32364 0.15666-3.5844 1.4364-1.0621 0.10806-0.14226-0.94987-0.54665 0.076726 0.0991 0.78147-8.3438 0.5569-0.55058-0.28097-1.2502 0.45057-1.6398-0.32633-0.9666 0.24897-2.6276-0.060519-4.8381-0.02758-7.8095-0.23779-5.4422 0.34812-9.3442 0.000237-4.651 0.090443-2.3952-0.35722-3.7628 0.36397-1.799 0.1386-3.1332 0.24098-2.6886 0.34021-5.7141-0.083456-0.59181-0.16876-1.0901-0.082404-3.1525-0.73606-1.3435-1.0055-0.52113 0.094579-0.22641-0.54299-0.33772 0.13577-0.62834-0.22309 0.27625-0.6502-0.38482-0.38231-0.4632 0.084615-1.7543-1.0395-0.27119 0.19887-1.6532-0.54062-0.95574-1.2335-0.3632 0.33102-1.0076-0.075806-0.0494-0.3374 0.43642 0.058491 0.0134-0.59472-0.30337-0.05843-2.2576-0.24428-0.59039 0.065523-0.72393 0.21286-0.31405 0.52552-0.32112-0.09318-1.9972 1.7367-1.2418 1.4346-3.1255 1.8344-2.9219 1.1591-1.5708 0.72431-1.0662 1.5856-1.3494 1.3624-0.85568-0.14138-1.686 2.1948-0.57178 0.13124-2.216 1.7535-2.0292 1.0572-4.6178 0.66834-4.587 0.14467-4.1679 0.5329-6.5113 0.93232-5.3646 1.1214-6.5272 1.6666-0.008 0.92459-0.18083 0.11886-0.8354-0.49746-1.6947 0.53748-1.6202 0.69362-2.0807 0.50922-3.685 1.0729 0.88516 1.1398 0.11779 1.0009-0.29206 2.0228 0.19766 2.1308-0.22357 9.1213-0.0333 20.635 0.43538 0.0935 1.877-0.47532 0.00052-0.000073 0.00046-0.000039 2.9564 0.23133 2.6484-0.46212 0.8785-0.10124 0.88279-0.04968 2.1186 0.04164 1.0248 0.12331 11.644 3.2389 3.406 0.89524 1.5444-0.25897 0.0599 1.2304 1.4603-0.29928 4.712-0.65436 7.9754-0.85158 12.783-1.3536 2.1124-0.26956 1.4252-0.19008 3.029-0.71435 4.371-0.9907 1.9936-0.27102 2.2338-0.12601 2.2917-0.05942 5.3874-0.08801 0.31697-0.0081 0.38921-0.0247 37.577-0.53249 0.26609 0.0082 14.321-8.29-0.0149-0.50227 17.539-25.268 0.28652-0.61839 0.95992-3.0084 0.93673-2.8508 0.94895-2.7214 1.0329-2.9381 1.6334-5.2449 1.2739-4.114z" fill-rule="evenodd" data-area="upper manhattan" data-id="Washington Heights"/>
   <path id="Inwood" d="m779.98 0-2.1101 0.056277-4.0685 0.27798-5.9207 0.28954-1.2436 0.10193-2.6155 0.080514-1.076 0.030168-2.2821 0.44604-2.1578 0.058692-2.2214 0.74517-2.0384 0.55262-0.9158 0.53519-0.3329 0.66375-0.34257 0.23992-0.3962 0.073761-1.2739 4.114-1.6334 5.2449-1.0329 2.9381-0.94895 2.7214-0.93673 2.8508-0.95992 3.0084-0.28652 0.61839-17.539 25.268 0.0149 0.50227-14.321 8.29 2.3046 0.09499 0.72236 0.04267 0.006-0.06654 3.1836-0.0424 0.0109 0.29399 1.4622-0.01709-0.0148-0.61882-1.4694 0.05416 0.003 0.10659-3.182 0.05057 1.0428-0.69243 1.1199-0.60542 1.1091-0.63558 3.1283 1.2481 0.59113-0.45145 1.5254 0.49968-0.31304 0.64671 1.106 0.58626 2.0213-0.31683-0.1366-1.3574 1.3795-1.321 0.89409-1.3472 0.127-1.9892 0.81625-0.44238 2.9385-0.69811 0.91857 0.65422-2.7683 4.3968-0.0607 3.3257 7.3593 0.37403 7.821 0.06405 1.8022 0.7902 2.315 0.74445 1.1618 0.21406 1.0352 0.14601-0.006 0.40471 1.1178 0.01826 0.64508-0.71689 1.0993-0.16065 0.7792 0.24693 1.1606-0.91455-0.23046-0.76047-0.79541-1.0724 1.0131-0.7744 1.8436 2.2317 0.009 2.412 0.8193-0.18874-0.11332-2.0725 2.164 2.464 8.6829 0.2073 0.007-0.70311 12.031-0.47535 0.0382-1.8758 0.8879 0.06902-0.002 1.5501 1.111-0.3109 5.0498-2.2455 2.0406-0.07568 2.3312-1.6847 2.1754-3.2588 0.69201-2.1134 0.25437-3.509-1.6304-9.667-1.3796-2.667-1.7125-1.3732-1.2559-0.8171-1.548-0.90791 2.715-0.11503-0.0154-0.27613-3.3206 0.08702-1.6604-0.57356-1.2166 0.95806-0.23087-0.26749 0.091-2.2046 0.99686-1.2052 1.539-0.57392 1.5868 0.02661 0.55871 0.1262 0.0794-6.0812-0.25591-1.4535-1.3465-0.12638-0.74169 0.87032-0.8209 1.2412-0.56176 0.64529-0.88904 2.325-0.28137 1.0626-1.5486 0.83186-2.3313-0.851-0.70605-1.6047 0.0409-1.9396 0.49406-1.8778 0.91988-1.7119 1.669-1.7634 1.6603-1.0143 2.7568-0.75867 2.064-0.91789 2.1394-1.1221 0.20493-0.70253 0.27855-2.9135-0.90297-2.088-1.379-2.9591-0.66084-0.17626-1.1456-0.73913-0.82957-1.0806-0.33867-0.79733 0.22325-0.83162 0.57696-0.25087 0.54227 0.13182 0.38003-0.19035 0.0828-0.60231-2.2987-0.36467-2.8418-0.72482-1.22-1.1491-4.62-0.9977z" fill-rule="evenodd" data-area="upper manhattan" data-id="Inwood"/>
   <path id="Tudor City" d="m252.16 145.55-0.0816-8.67-9.3729 0.0142-0.004 8.5595 6.1354 0.1118 3.3232-0.0155z" fill-rule="evenodd" data-area="midtown" data-id="Tudor City"/>
   <path id="Sutton Place" d="m300.9 157.1 0.0644-34.364-6.3137 0.0158-12.313 0.0287-0.0455 32.516 2.6963 0.21294 4.3477 1.142 3.9132 0.0848 5.9748 0.22558 1.6756 0.13765z" fill-rule="evenodd" data-area="midtown" data-id="Sutton Place"/>
   <path id="Manhattan Valley" d="m457.85 41.188-5.9226-0.05595-3.0275 1.0142-6.4238 2.8615-3.0986 0.8957-12.125 0.48964-0.16506 25.962 30.734-0.03889 0.005-10.536 0.0238-20.592z" fill-rule="evenodd" data-area="uptown" data-id="Manhattan Valley"/>
   <path id="Hudson Heights" d="m650.33 15.584-0.0158 20.371 15.555-4.2415 8.6947 1.7693 0.93548 0.0099 17.759-2.484 6.8921-1.8083 3.2393-0.43851 11.204-1.365 1.5302-0.34748-0.53094-2.9181-6.599 0.74703-0.24486-3.4543 3.049-0.72664-0.59034-3.0364-0.60492-0.87691-3.1323-0.81512-4.0668 0.27754-3.0829 0.19616-0.0537-3.7803-12.408-0.7576-5.3954 0.75882-5.5074 0.06391-8.0848-1.0619-2.6839 0.35084-6.7365 2.3204-9.1204 1.2468z" fill-rule="evenodd" data-area="upper manhattan" data-id="Hudson Heights"/>
   <path id="Fort George" d="m675.11 60.257 0.38921-0.0247 37.577-0.53249 0.26609 0.0082 14.321-8.29-0.0149-0.50227 17.539-25.268-2.9102-1.3835-2.7155-1.4767-4.697-0.80918-1.7182 0.28705-2.9615 1.9361-1.788 0.93889-3.4276 0.49133-3.3517 0.38405-1.1576 0.04928-2.3728 0.47658-1.9569 0.50803-1.5302 0.34748-11.204 1.365-3.2393 0.43851-6.8921 1.8083-17.759 2.484-0.39649 26.764z" fill-rule="evenodd" data-area="upper manhattan" data-id="Fort George"/>
   <path id="West Harlem" d="m497.81 55.608-0.0874 11.36 1.9483 0.01145 1.0968 0.11369 3.2287-0.01186 3.2558-0.01756 5.9915 0.96077 6.162 0.46867 4.4199-0.03364 4.39-0.5271 6.2861-1.0434 18.271-3.0948 0.002 3.3679 12.241 1.3492 0.006-3.3555 27.207-0.08292 0.26695-0.04906 0.26153-0.07281 0.25398-0.09596 0.24439-0.11834 0.2328-0.13975 0.21934-0.16004 0.20409-0.17902 0.18719-0.19656 0.16878-0.21251 0.149-0.22673 0.0617-0.06198 0.0682-0.05469 0.0739-0.0467 0.0787-0.03812 0.1466-0.02479 0.1486-0.0015 0.1469 0.02192 0.14153 0.04475 0.13264 0.06646 0.12041 0.08651-0.00087-1.988 0.0333-20.635 0.22357-9.1213-0.19766-2.1308 0.29206-2.0228-0.11779-1.0009-0.88516-1.1398-1.7033-0.03237-3.5692 0.10925-0.77243 0.20394-2.0108 0.39936-7.7799 0.11412-4.4035 0.1394-4.6102 0.31273-2.4499 0.03522-1.1608-0.14217-2.417-0.01809-0.0307-0.55006-2.3901 0.07865-0.14878-4.2385 0.13042 0.0014 0.0206 0.000239-0.0229-0.41508-4.4545 0.16884-0.0494-1.1043-12.348 0.51087-0.003-0.0725-3.8222 0.15068 0.002 0.08-0.15703 0.04433-0.008 0.0063-0.0184 0.01705-0.0288 0.03361-0.0266 0.04024-0.0522 0.10928-0.009 0.02438-0.007 0.02605-0.007 0.05791 0.00037 0.06601 0.008 0.09061 0.016 0.92667-0.00015 0.06345-0.01 3.7307-0.46132 0.02498-0.16033 0.0087 0.029 1.0392-0.81068-0.04528-0.38246 0.0079-0.32697 0.04477-0.69475 0.26791-2.1258-0.01469 0.0401-0.45458 1.5479-1.5607 0.12185-0.17315 0.0551-0.21202-0.00081-0.48213 0.81912-0.004-0.004-2.4675-2.0359 0.01003 0.004 2.4786 0.80009-0.0178 0.008 0.40731-0.0759 0.1755-1.7574 1.7706-1.1745-0.0656 0.003 0.44652-1.5699-0.117 0.0395-0.55102 1.1818 0.08068 0.0361-0.4355-1.608-0.12766-0.0755 0.98853-4.0442-0.12146 0.0286-0.68804-11.291-0.96953-0.35472 9.3527-2.9176 5.8265-5.4967 10.526-13.189-0.03001-0.0565 3.1438-0.4484 1.0299 3.568-0.02749z" fill-rule="evenodd" data-area="upper manhattan" data-id="West Harlem"/>
   <path id="Central Harlem" d="m494.25 55.635-0.45115 0.54566-0.6519 0.38765-0.46201 0.13792-4.1553 0.58301-15.479 0.43734-15.217 4.0534-0.005 10.536 0.15857 32.535 30.585-0.0563 0.0339-5.6089 12.096-0.03347 0.0114 5.6425 3.1568-0.0413 57.166-0.75144 3.6706-2.1307 0.49042-0.28614 0.84271-0.46776-0.18399-0.41712 2.4146-1.4542 17.324-10.783 6.4086-4.128 0.11259 0.15256 2.9943-2.0804 0.0426 0.0392 0.4801-0.35423 0.39242-0.28795-0.0404-0.0575 1.0533-0.67597 2.5023-1.6464 6.3948-4.6487 2.3658-1.6157 0.83608-0.5637 0.0247 0.05108 1.5077-0.96791-0.0312-0.03669 1.8258-1.1531 0.0567 0.09862 3.9508-1.9903 5.0663-2.2226 1.57-0.28487 1.9113 0.04219-0.0599-1.2304-1.5444 0.25897-3.406-0.89524-11.644-3.2389-1.0248-0.12331-2.1186-0.04164-0.88279 0.04968-0.8785 0.10124-2.6484 0.46212-2.9564-0.23133-0.00046 0.000039-0.00052 0.000073-1.877 0.47532-0.43538-0.0935 0.00087 1.988-0.12041-0.08651-0.13264-0.06646-0.14153-0.04475-0.1469-0.02192-0.1486 0.0015-0.1466 0.02479-0.0787 0.03812-0.0739 0.0467-0.0682 0.05469-0.0617 0.06198-0.149 0.22673-0.16878 0.21251-0.18719 0.19656-0.20409 0.17902-0.21934 0.16004-0.2328 0.13975-0.24439 0.11834-0.25398 0.09596-0.26153 0.07281-0.26695 0.04906-27.207 0.08292-0.006 3.3555-12.241-1.3492-0.002-3.3679-18.271 3.0948-6.2861 1.0434-4.39 0.5271-4.4199 0.03364-6.162-0.46867-5.9915-0.96077-3.2558 0.01756-3.2287 0.01186-1.0968-0.11369-1.9483-0.01145 0.0874-11.36-3.568 0.02749z" fill-rule="evenodd" data-area="upper manhattan" data-id="Central Harlem"/>
   <path id="Lincoln Square" d="m334.18 72.466-0.19705-43.587-4.3742-6.8222-0.86839 0.0021 4.6866 7.2464-10.238 0.04216-0.8883-1.4456-9.667 0.03061 0.28595 1.0347-2.6241 0.22134-0.1781-0.72592-8.6484-0.0024-0.33894 2.4161-0.051 31.272 2.987-0.01679-0.087 8.1582-2.9957 2.247 33.196-0.07069z" fill-rule="evenodd" data-area="uptown" data-id="Lincoln Square"/>
   <path id="Meatpacking District" d="m165.05 63.09 0.0856-14.606-2.8228 1.0325-0.21495-0.50127-1.5907 0.6191-3.0293-7.8069-1.0527 0.41892 3.1656 8.3201-2.2041 0.82708-5.0078 1.947 6.8238 11.987 5.8474-2.2377z" fill-rule="evenodd" data-area="downtown" data-id="Meatpacking District"/>
  </g>
 </defs>
 <metadata id="metadata8">
  <views>
   <view padding="0" h="211.981279927" w="800">
    <proj id="satellite" dist="1.6" lat0="40.7890823785" tilt="0" up="61" lon0="-73.9600255187"/>
    <bbox y="999.22" h="1.81" w="6.86" x="996.46"/>
   </view>
  </views>
  <rdf:RDF>
   <cc:Work rdf:about="">
    <dc:format>image/svg+xml</dc:format>
    <dc:type rdf:resource="http://purl.org/dc/dcmitype/StillImage"/>
    <dc:title/>
   </cc:Work>
  </rdf:RDF>
 </metadata>
 <rect id="rect26" height="238.16" width="900.01" y="0" x="-.0029297" fill="#bfd7e3"/>
 <g id="contour" transform="matrix(1.1077 0 0 1.1077 1.775 3.8771)" stroke="#000" class="" fill="#fff">
  <path id="path11" fill-rule="evenodd" d="m779.98 0-2.1101 0.056277-4.0685 0.27798-5.9207 0.28954-1.2436 0.10193-2.6155 0.080514-1.076 0.030168-2.2821 0.44604-2.1578 0.058692-2.2214 0.74517-2.0384 0.55262-0.9158 0.53519-0.3329 0.66375-0.34257 0.23992-0.3962 0.073761-0.40849 0.081271-0.0126-0.81678 0.98287-0.20429-0.0604-0.28688-1.207 0.24991 0.0304 1.003-0.77852 0.051886-0.77168-0.55428-0.45897 0.34745 0.20581 0.53083-0.16157 0.35584-0.81135 0.58496-0.16015-0.9271-1.1109 0.10272 0.0146 0.14298 0.80123-0.055168 0.14379 0.84596-0.32364 0.15666-3.5844 1.4364-1.0621 0.10806-0.14226-0.94987-0.54665 0.076726 0.0991 0.78147-8.3438 0.5569-0.55058-0.28097-1.2502 0.45057-1.6398-0.32633-0.9666 0.24897-2.6276-0.060519-4.8381-0.02758-7.8095-0.23779-5.4422 0.34812-9.3442 0.000237-4.651 0.090443-2.3952-0.35722-3.7628 0.36397-1.799 0.1386-3.1332 0.24098-2.6886 0.34021-5.7141-0.083456-0.59181-0.16876-1.0901-0.082404-3.1525-0.73606-1.3435-1.0055-0.52113 0.094579-0.22641-0.54299-0.33772 0.13577-0.62834-0.22309 0.27625-0.6502-0.38482-0.38231-0.4632 0.084615-1.7543-1.0395-0.27119 0.19887-1.6532-0.54062-0.95574-1.2335-0.3632 0.33102-1.0076-0.075806-0.0494-0.3374 0.43642 0.058491 0.0134-0.59472-0.30337-0.05843-2.2576-0.24428-0.59039 0.065523-0.72393 0.21286-0.31405 0.52552-0.32112-0.09318-1.9972 1.7367-1.2418 1.4346-3.1255 1.8344-2.9219 1.1591-1.5708 0.72431-1.0662 1.5856-1.3494 1.3624-0.85568-0.14138-1.686 2.1948-0.57178 0.13124-2.216 1.7535-2.0292 1.0572-4.6178 0.66834-4.587 0.14467-4.1679 0.5329-6.5113 0.93232-5.3646 1.1214-6.5272 1.6666-0.008 0.92459-0.18083 0.11886-0.8354-0.49746-1.6947 0.53748-1.6202 0.69362-2.0807 0.50922-3.685 1.0729-1.7033-0.03237-3.5692 0.10925-0.77243 0.20394-2.0108 0.39936-7.7799 0.11412-4.4035 0.1394-4.6102 0.31273-2.4499 0.03522-1.1608-0.14217-2.417-0.01809-0.0307-0.55006-2.3901 0.07865-0.14878-4.2385 0.13042 0.0014 0.0206 0.000239-0.0229-0.41508-4.4545 0.16884-0.0494-1.1043-12.348 0.51087-0.003-0.0725-3.8222 0.15068 0.002 0.08-0.15703 0.04433-0.008 0.0063-0.0184 0.01705-0.0288 0.03361-0.0266 0.04024-0.0522 0.10928-0.009 0.02438-0.007 0.02605-0.007 0.05791 0.00037 0.06601 0.008 0.09061 0.016 0.92667-0.00015 0.06345-0.01 3.7307-0.46132 0.02498-0.16033 0.0087 0.029 1.0392-0.81068-0.04528-0.38246 0.0079-0.32697 0.04477-0.69475 0.26791-2.1258-0.01469 0.0401-0.45458 1.5479-1.5607 0.12185-0.17315 0.0551-0.21202-0.00081-0.48213 0.81912-0.004-0.004-2.4675-2.0359 0.01003 0.004 2.4786 0.80009-0.0178 0.008 0.40731-0.0759 0.1755-1.7574 1.7706-1.1745-0.0656 0.003 0.44652-1.5699-0.117 0.0395-0.55102 1.1818 0.08068 0.0361-0.4355-1.608-0.12766-0.0755 0.98853-4.0442-0.12146 0.0286-0.68804-11.291-0.96953-4.0297-0.45994-3.582-0.51244-4.504-0.19134-22.554 0.6054-12.289 0.57314-12.018-0.20906-92.421 1.4998-1.7312-3.3936-0.6906-0.11799-0.1348 0.28369 0.75897 0.12134 1.5534 3.1117-1.9242 0.041-0.55477 0.01182-0.007-0.41423-0.15734-0.0051-0.003-1.8729 0.22746-0.000301 0.00034-0.17021-0.54659 0.000713-0.00035 0.1758 0.22213-0.000291 0.001 1.8615-0.19326 0.0147 0.0175 0.41973-2.4116 0.0655 1.3422-3.1819 0.7384-0.15229-0.11942-0.3029-0.48785 0.13813-4.8373-0.80273-0.004 0.17254 4.6318 0.71678-1.5165 3.4192-24.274 0.84501-1.0268 0.49433-0.20221 0.30726-4.3742-6.8222-0.86839 0.0021 4.6866 7.2464-10.238 0.04216-0.8883-1.4456-9.667 0.03061 0.28595 1.0347-2.6241 0.22134-0.1781-0.72592-8.6484-0.0024 0.004-7.8818-1.324-0.08949 0.0287 4.3196 0.72213-0.0011-0.0705 2.7001-0.55794 0.0079-0.015 1.3363 0.45269 0.01703 0.009 0.39-2.2812-0.01427 0.0123-9.1144-0.18881-0.0038 0.0332 1.5881-1.1629-0.02178-0.0107 3.3048 0.61034-0.0104-0.007 3.69-2.1594-0.0049 0.029-7.8083-1.345 0.0051 0.002 7.8095-0.23734-0.0048-0.31699 0.48681-0.18606-0.01912-0.25198-0.46848-1.2204 0.01274 0.0754-2.1518-0.94532-0.0426 0.0796 2.1976-2.2889 0.01737 0.009-0.49219-0.7633-0.0012 0.0116 0.49312-2.889 0.01892-0.003-8.9346-1.7436-0.000662-0.0328 8.979-3.2875 0.0182 0.046-9.0147-1.4633-0.01547-0.008 12.038-4.6581 0.02957 0.0738-12.025-1.477-0.0082-0.0663 12.037-4.6398 0.02141 0.12404-12.076-1.483 0.02147-0.0272 12.133-0.98772 0.04713-0.32169-0.11652-0.37126-0.3453-0.19969-0.09957-0.21116 0.10075-0.21213 0.2285-0.25291 0.46455-2.0598 0.01526 0.0253-11.531-1.7453 0.0043-0.0345 11.527-4.1602-0.08431 0.0571-3.4102-0.006-8.7706-0.59231 0.0085 0.00027 0.22177 0.36254-0.0053-0.0162 0.59397-1.359 0.01647 0.00076 7.9432-2.7413 0.01079-0.0243-8.1106-0.94294-0.0078-0.018 8.1273-1.6856 0.0021-2.7257 0.0034 0.0744-8.1884-0.88078-0.02135-0.0827 8.2113-2.6696-0.0057-0.296-0.000629 0.015-1.2728-3.014 0.0096-2.1813-0.03512-0.0264 1.314-0.66756 0.01776 0.005-1.6185-0.0798 0.0043 0.0813-0.57838-0.25684-0.041-0.0997 0.62884-0.56891 0.0038-0.014 1.615-0.65396-0.006 0.002-1.0921-1.9984 0.01689-0.0318-7.2634-3.4972-0.0075 0.0305 7.2873-1.5947-0.02185-0.0719 1.7735-2.7619 0.04021 0.016-0.76428-11.485 0.0598-0.00073-0.46358-0.94322 0.0046 0.00076 0.46902-0.0595 0.000289-1.1838 0.0058 0.005-0.4579-0.94422-0.01797-0.0103 0.46066-8.2546 1.8929 0.0112-1.2267-0.64337-0.0013 0.0181-4.004 0.59788 0.0012 0.003-0.47601-0.33779-0.000706-0.00099 0.1848-0.46277-0.000963 0.0135 4.1491-0.0223 1.5649-0.59498 0.13742-0.004-3.0965-0.086 0.000378 0.001 1.0851-0.64355 0.000634 0.15155 2.1362-8.116 1.8618 0.0398-0.98812-0.36752 0.12715-0.42732-4.2076-0.41737 0.04278 0.43876 4.2882-4.2251 0.94671-1.3867-3.596-1.7671 0.67548 2.6672 6.8282-2.3649 0.91841-2.6716-6.84-1.6639 0.65075 2.6428 6.8384-2.3652 0.9232-2.6414-6.8374-1.6537 0.64929 2.5363 6.7151-2.3172 0.92359-2.604-6.7406-1.691 0.69941-1.6764 0.68644 0.21215 0.4876 0.0518-0.0226-0.166-0.37587 1.5047-0.62277 0.68391 1.7677-1.5341 0.56165-0.19528-0.45878-0.0581 0.02476 0.43147 1.0136 0.0571-0.02516-0.16764-0.38286 1.4863-0.61036 0.69272 1.752-1.4998 0.62039-0.21386-0.51726-0.073 0.03079 0.4293 1.0211 0.0655-0.0276-0.16826-0.39868 1.516-0.59952 0.6008 1.5451-1.5147 0.58843-0.15285-0.3697-0.0847 0.035 0.36225 0.8792 0.0683-0.02822-0.15942-0.3876 1.5191-0.59363 0.43046 1.1261-1.1563 0.44319 0.71313 2.0601 0.22972 0.66444-1.7508 0.6774-2.0738 0.79211-0.63498-1.6112-1.1858 0.45251-2.9899-7.7853-1.687 0.667 3.0474 7.7558-1.2888 0.50865 0.63823 1.5846-1.1812 0.50375-2.8228 1.0325-0.21495-0.50127-1.5907 0.6191-3.0293-7.8069-1.0527 0.41892 3.1656 8.3201-2.2041 0.82708-2.5748-5.3777-1.7028-3.6674-0.62464 0.31853 1.6576 3.3505-1.6243 0.81388-1.1299-2.4024-1.7474 0.81262 1.1432 2.3877-1.8542 0.86358 1.6853 3.4288-3.0813 1.4819-0.84155-1.7243-1.1394 0.51099 0.83804 1.7647-14.464 6.7761-1.6345-3.4311-1.0387 0.51409 1.6243 3.4274-1.5844 0.743 0.19593 0.3928-1.0868 0.56288-4.912-9.1708-0.97872 0.53213 4.559 8.6515-9.8181 4.6291-3.64-8.6107-5.1973 2.2505-3.4468 1.4904 3.7493 8.7864-7.9928 3.7053-18.601 6.796-0.58131-1.6352-2.7715 0.93273 0.37287 1.1457-2.012 0.76134-1.6592-4.7678-1.3531 0.50385 1.302 3.6642-1.0506 0.37019 0.55189 1.6388-5.7489 1.9288-3.5421-10.594-20.314 7.8747-2.1461 0.82716 0.08746 0.24139 2.014-0.77398 1.1448 3.8376-5.0832 1.7026-1.1271-3.6713 1.8526-0.64238-0.08763-0.24991-19.487 6.7982 0.43589 2.2372-2.4137 0.54627-1.4513 0.33342-0.48057-1.8385-3.8101 1.2643-4.3804 4.0028 2.0011 4.1133-0.37453 0.0775-2.3194-2.9234-0.66577 1.1742 1.2789 1.6777 0.15875 0.73094-0.6785 0.17018-1.6593 0.76409-1.3389 1.3802-1.9656 3.554-2.2271 5.3995-0.69498 2.3405 0.73931 0.0334-0.18807 3.4979 1.8377-0.50418 0.4201 1.2039-1.5901 1.1456 3.7947 4.3148 1.5589 1.5558 1.8452-1.535 2.2821 2.171 1.6748 1.5046-3.3532 5.4409 0.85174 0.51869 0.63407-1.0335 2.9683 1.8077 0.557-0.90788-2.9019-1.7672 1.9969-3.4065 0.38891 0.33085 2.9582 1.2319 2.728 1.1034 0.99992-0.0446 2.782 1.141-2.1943 5.9295 0.76815 0.2693 2.1532-5.9106 1.7851 0.67662-0.20107 0.55503 1.6269 0.58926-2.0866 6.0429 0.82418 0.301 2.2968-5.9422 2.0928 0.77921-2.0025 5.103 0.87075 0.33446 1.9616-5.081 1.3259 0.4463 0.19424-0.53334 0.46987 0.16911 1.8668 0.73009-1.4316 3.7534 1.3545 0.5309-0.7049 2.0338 0.79545 0.29429 1.4028-3.5105 1.4431 0.57441-1.5729 4.1365 3.4135 1.3087 1.5009-3.8718 0.0015-0.004 0.0048 0.002 1.5265 0.69822 0.82141-1.7658 4.6693 2.3281 0.44234-0.07 1.1461 0.60386 0.14327 0.23563 1.1901 0.54172 2.3371 1.0193 3.514 2.7231 7.3814 8.8524 1.8809 2.2152 8.7742 10.515-3.0201 2.227 7.6477 10.342 2.7336 3.7321 3.4694 4.7366 1.3913-0.91504 1.7221 2.504 0.26905-0.166 2.7884 4.1488 1.0807 1.5719 1.07 0.72585 2.488 0.80883 2.5117 0.47108 3.9558-0.24932 3.5075-0.52979 8.6877-1.5262 15.256-3.4944 9.7332-3.0335 10.65-3.6198 8.4391-3.0384 0.0602 0.1335 3.2326-1.266 3.0213-1.1496-0.24493-0.60132 0.92697-0.39115 0.12626 0.26013 3.328-1.3547 3.0494-2.0244 1.4105-2.0133 0.71403-1.7984 0.74631-2.5754 0.75867-1.8961 0.55742-0.95512 1.5811-1.338 4.3916-3.6471 0.1985 0.13382 0.37186 0.20721 0.14389 0.0255 0.0247-0.11056-0.11372-0.12293 0.00015-0.15707 0.1352-0.46728 0.1412-0.23931 0.16637-0.17887 5.782-4.8437 0.46579-0.36359 0.01 3.253 0.14852-0.002 0.14627 0.30053 0.28411 0.16729 0.33284 0.006 0.15363-0.0684 0.17229-0.19247 0.0571-0.11526 0.18458-0.0186-0.0161 0.96602 0.0754 0.001-0.008 0.29617-0.14199-0.002-0.0148 0.0885 0.66289 0.0261 0.0318-0.41807 1.2247 0.003-0.0133-0.1616-1.5204 0.008-0.004-4.0516-0.0399-0.14643-0.47043-0.73644 0.4659-0.30802 0.21997 0.68347 0.12772-0.0383-0.25214-0.81365 0.77358-0.41511 0.12939 1.2243 0.0971-0.0149-0.11094-1.2566 0.78372-0.30959 0.004 1.5336 0.12603 0.003 0.011-1.5669 0.45421-0.10384 0.0182 5.6297 0.64277 1.0313 2.3884-1.5674 5.738-3.4105 4.2863-2.5138 3.2843-1.0219 0.1531 0.4048 2.8024-1.0232-0.14656-0.39414 6.4729-2.3806 1.5397-0.0537-0.004-0.53938 1.448-0.0867 0.092-0.001 0.29554-0.0123 1.024-0.0434 0.49435-0.0161 0.0657 0.58606 1.3104-0.10118-0.0432-0.54092 0.23037-0.0137 0.0114-0.56156 1.2769-0.0523 0.0309 1.5364 0.34573 0.0514 0.002-1.6038 1.3241-0.0604-0.005 0.55866 3.0674-0.0603 2.2107 0.10959-0.0359 0.3783 9.6373 0.66133 0.0331-0.50568 2.6819 0.16569 7.3764 0.48439 16.834 1.3478 9.0744 0.81223 2.9186 0.23048 0.00043 0.00004 4.3477 1.142 3.9132 0.0848 5.9748 0.22558 1.6756 0.13765 5.7754 1.1034 9.8684 1.9258 5.5319 1.1474 5.9948 0.5193 6.0075 0.52421 6.1654 0.54125 6.4109 0.66246 6.1439 0.18699 2.7879-0.008 2.8721 0.3194 3.8686 0.42142 5.6477 0.63955 3.7061 0.82513 3.4495 0.77465 4.9634 0.5987 3.4724 0.34443 2.3469 0.18965 2.5312-0.15263 2.1616-0.51732 2.3065 0.17488 2.5896-1.6972 0.46562-1.3063 4.5192-4.4483 2.3119 0.024 1.2966-2.4297-1.5112 0.0729 2.5037-2.7995 3.688-3.0317 0.93949-0.5572 4.5038-1.6492 0.40714-0.0693 0.65452-0.16612 2.4776 0.0495 2.8573 0.94001 9.1058 4.598 3.197 0.26987 6.5588 0.56204 3.5718-0.41537 4.4788-0.8134 0.75723-0.13078 0.024 3.3474 0.725 0.001 0.009-3.596 2.6936-0.00047 5.6902-0.0104 1.2778 0.35722-0.0925 0.31165 1.1941 0.34941 0.0893-0.33313 0.43427 0.11219 6.9203 2.3165 11.795 5.4566 0.59453 0.13669 5.4696-0.15338 3.7284-1.1818 10.117-5.1859 2.5987-1.5082 3.204-2.1324-0.0227-0.61971 4.6824-4.7086 1.1196-1.4724 0.58111-0.18044 2.462-3.4142 3.2059-5.4336 4.9984-10.132 3.0258-3.7199 4.345-3.2131 3.3914-1.6677 7.8064-3.2339 6.3381-3.0587-0.23648-0.44612 4.1753-2.0655 0.17283 0.33126 3.4533-1.8313 6.7813-3.7408 3.6706-2.1307 0.49042-0.28614 0.84271-0.46776-0.18399-0.41712 2.4146-1.4542 17.324-10.783 6.4086-4.128 0.11259 0.15256 2.9943-2.0804 0.0426 0.0392 0.4801-0.35423 0.39242-0.28795-0.0404-0.0575 1.0533-0.67597 2.5023-1.6464 6.3948-4.6487 2.3658-1.6157 0.83608-0.5637 0.0247 0.05108 1.5077-0.96791-0.0312-0.03669 1.8258-1.1531 0.0567 0.09862 3.9508-1.9903 5.0663-2.2226 1.57-0.28487 1.9113 0.04219 1.4603-0.29928 4.712-0.65436 7.9754-0.85158 12.783-1.3536 2.1124-0.26956 1.4252-0.19008 3.029-0.71435 4.371-0.9907 1.9936-0.27102 2.2338-0.12601 2.2917-0.05942 5.3874-0.08801 0.31697-0.0081 0.20333-0.01291 0.18588-0.0118 37.577-0.53249 0.26609 0.0082 2.3046 0.09499 0.72236 0.04267 0.006-0.06654 3.1836-0.0424 0.0109 0.29399 1.4622-0.01709-0.0148-0.61882-1.4694 0.05416 0.003 0.10659-3.182 0.05057 1.0428-0.69243 1.1199-0.60542 1.1091-0.63558 3.1283 1.2481 0.59113-0.45145 1.5254 0.49968-0.31304 0.64671 1.106 0.58626 2.0213-0.31683-0.1366-1.3574 1.3795-1.321 0.89409-1.3472 0.127-1.9892 0.81625-0.44238 2.9385-0.69811 0.91857 0.65422-2.7683 4.3968-0.0607 3.3257 7.3593 0.37403 7.821 0.06405 1.8022 0.7902 2.315 0.74445 1.1618 0.21406 1.0352 0.14601-0.006 0.40471 1.1178 0.01826 0.64508-0.71689 1.0993-0.16065 0.7792 0.24693 1.1606-0.91455-0.23046-0.76047-0.79541-1.0724 1.0131-0.7744 1.8436 2.2317 0.009 2.412 0.8193-0.18874-0.11332-2.0725 2.164 2.464 8.6829 0.2073 0.007-0.70311 12.031-0.47535 0.0382-1.8758 0.8879 0.06902-0.002 1.5501 1.111-0.3109 5.0498-2.2455 2.0406-0.07568 2.3312-1.6847 2.1754-3.2588 0.69201-2.1134 0.25437-3.509-1.6304-9.667-1.3796-2.667-1.7125-1.3732-1.2559-0.8171-1.548-0.90791 2.715-0.11503-0.0154-0.27613-3.3206 0.08702-1.6604-0.57356-1.2166 0.95806-0.23087-0.26749 0.091-2.2046 0.99686-1.2052 1.539-0.57392 1.5868 0.02661 0.55871 0.1262 0.0794-6.0812-0.25591-1.4535-1.3465-0.12638-0.74169 0.87032-0.8209 1.2412-0.56176 0.64529-0.88904 2.325-0.28137 1.0626-1.5486 0.83186-2.3313-0.851-0.70605-1.6047 0.0409-1.9396 0.49406-1.8778 0.91988-1.7119 1.669-1.7634 1.6603-1.0143 2.7568-0.75867 2.064-0.91789 2.1394-1.1221 0.20493-0.70253 0.27855-2.9135-0.90297-2.088-1.379-2.9591-0.66084-0.17626-1.1456-0.73913-0.82957-1.0806-0.33867-0.79733 0.22325-0.83162 0.57696-0.25087 0.54227 0.13182 0.38003-0.19035 0.0828-0.60231-2.2987-0.36467-2.8418-0.72482-1.34-1.1111-4.62-0.9977zm-413.07 182.48 2.4115 1.1543 2.2866-0.20314 2.8832 0.11934 1.5072-0.37366 1.0617-0.48483 2.036-1.4119 2.1617-1.215 1.1224-0.26634 1.2905-0.0845 0.20824-0.35307-0.0372-0.35511-0.19089-0.24095-1.683-0.14331-1.3846-0.3911-0.98113-1.2184-2.1835-1.5518-1.9261-0.58018-1.4424-0.0718-2.1418-0.22504-6.8006-1.7797-3.1316 0.15865-1.4083 0.4595-0.39892-0.36219 0.0118-0.58369-0.50055 0.0432-0.0252 0.54718-0.74612-0.008-1.4395-0.36264-19.472-0.78144-3.6494-1.2096-2.3655-0.16169-3.0942-0.33563-4.3518-0.0978-3.725 0.38128-1.1923-0.16493-3.5061-0.48503 0.10719-0.59475-1.357-0.22205-0.0817 0.29425-2.9148-0.51875-9.901-0.66232-0.56717 0.0871-18.089-1.9168-0.0184-0.31639-3.1049-0.0483-4.9375 0.87298-6.2404-0.55446-2.2627 0.48957-1.4662-0.0299-0.86121 0.26853-0.51445 0.37624 0.19705 0.46864 0.74684 0.50265 0.84235 0.0206 1.2106 0.0999 1.9513 0.51512 3.3483 1.1852 2.6022 0.49694 0.3318-0.22841 4.3868 1.6766 4.672 1.0264 9.3622 1.1226 0.27758 0.29067 4.6708 0.98117 4.7108 0.94331 5.3163 0.37528 1.6941-0.50431 3.4206 0.3162 6.1727 0.78579 3.9469 1.1041 26.555 2.0374 4.0566 0.002 2.6829 0.006 5.4756 0.46428 4.374 1.4255zm49.246-13.61 0.82929-0.47121 0.98765-0.24881 0.29857-0.58372-0.54654-0.49564-1.8592-0.58666-1.5334 0.55196-0.40678 0.58326-2.5913-0.35081-0.37155-0.36792-1.3214-0.17142-0.19099 0.63893 0.82097 0.41851 3.2006 0.50778 0.052 0.75877 1.2863 1.4895 0.7052 0.31603 1.8928-1.2228-0.12601-0.489-0.9142 0.52513-0.21201-0.8019zm85.511 41.113 2.4583-1.4389 3.2703-4.1289 3.5785-5.6956 1.1093-4.9044-0.11285-13.385 2.7829-4.5414 1.0762-1.3328 1.5102-2.9304 0.23019-2.7656-2.2425-5.0565-1.8615-3.0998-2.0906-0.2542-4.2718 0.0744 0.094-1.4261-0.94452-0.0611 0.0217 0.17438 0.62394 0.0399-0.0539 1.26-1.0379-0.0914-0.0315 0.68069-0.66184-0.042 0.0428-1.8617 0.66403 0.005 0.003-0.17545-0.83556-0.022-0.0522 2.0432-0.58026-0.0807-0.25253-0.0351-4.5729 1.0452-3.2628 1.0331-1.4632 0.94558-0.86636 1.0719-1.0663-0.97668-0.24567 0.26663 1.1822 1.1518-0.37436 0.41864-1.569 1.4768-1.586 1.1071-2.2254 1.1123-2.3299 0.65539-2.7609 0.59934-6.5134 0.0758-0.92795 0.46001-1.8371 1.2766-0.4991 1.9768 0.77949 1.9974-4.2633-0.40153-0.41311 0.23086 0.0318 0.38087 0.4259 0.5772 0.40324 0.43537 0.47762 0.70487 0.34691 0.85182 0.65077 0.88239 1.0519-0.0605 0.96632-0.48536 0.52449-0.42712 0.11406-1.281 0.54292-0.41703 1.3863 3.338-0.11064 0.16068-0.13466 0.0497-1.1556-2.7404-0.3017 0.11217 0.18105 1.2471-0.61009 0.36268-1.1968 1.0604-0.38355 0.0508-0.93177 0.61535-0.41959 0.0807-0.36923-0.34337-0.6876-2.0575-1.6528-3.2807-0.27889-1.7499-0.27959-0.3007 0.003-3.6676-3.1118-2.3531-2.8701-0.72229-4.0875-0.53283-0.15731-0.50941-2.4972 0.28911-2.4361-0.25603-15.07-1.0031-3.5386 1.2124-3.2859 1.5889-1.9658 4.5899 4.0435 13.763-1.015 9.8235 2.502 2.1294 6.6874 2.6708 0.29548 1.0352 0.70548 1.0233 1.8805 0.97209 0.66248 0.0248 0.0146-0.00012 5.0944 1.4055 8.2286-2.1431 1.2059 0.0476-0.035 0.39526 18.96 1.8167 0.15615-0.42472 0.75595-0.27936 5.1061 2.4835-0.0198 0.88995 3.4791 0.60406 0.17147-0.58734 3.6693 0.82733 1.4331 0.59101 3.6669-0.0304 5.1573 0.0876z"/>
 </g>
 <g id="parks" fill-rule="evenodd" fill="#c7deb3" stroke="none" transform="matrix(1.1077 0 0 1.1077 1.775 3.8771)">
  <path id="path14" d="m22.482 91.891 0.43589 2.2372-2.4137 0.54627-1.4513 0.33342-0.48057-1.8385-3.8101 1.2643-4.3804 4.0028 2.0011 4.1133-0.37453 0.0775-2.3194-2.9234-0.66577 1.1742 1.2789 1.6777 0.15875 0.73094-0.6785 0.17018-1.6593 0.76409-1.3389 1.3802-1.9656 3.554-2.2271 5.3995-0.69498 2.3405 0.73931 0.0334-0.18807 3.4979 1.8377-0.50418 0.4201 1.2039 0.98633-1.2284 0.22447-0.93404 2.1247-1.4448 0.75057 0.23539 0.67132-0.42519 0.98113-2.4905 1.5863-1.2265 4.8028-1.8014-1.1964-4.4232-1.8976-2.9815-0.39395-1.7287 0.06578-1.3244 0.76908-1.4964 1.0587-1.0476 1.8476-0.72551-0.03456-2.4139 6.3639-0.02819-0.07072-4.0515-0.86301 0.30106z"/>
  <path id="path16" d="m143.04 99.029-5.8211-0.43683-0.8465 11.548 5.8599 0.43501 0.80769-11.547z"/>
  <path id="path18" d="m152.43 153.76-8.6822 0.0251-0.0138 8.4217 8.6653-0.0343 0.0307-8.4125z"/>
  <path id="path20" d="m164.9 112.15 0.001 3.4318 0.001 3.167 3.2389-1.7425 5.8232 0.006 0.0182-4.8996-9.0828 0.0376z"/>
  <path id="path22" d="m301.01 105.06 39.415-0.0325 15.496-0.004 12.575-0.0106 15.595-0.009 30.732-0.11456 6.2446 0.0418 24.464-0.0393 12.449-0.0455 0.0273-1.8974 0.0383-9.6045-0.0136-0.30895-0.009-0.25368 0.0131-0.86616 0.0141-8.7563 0.00034-0.19434 0.00042-0.25784-0.002-0.28221 0.001-9.1164-0.22846-0.99698-1.0495-0.0023-1.8726-0.0045-3.0118-0.0011-3.0478 0.01154-3.2722 0.01292-3.2308-0.0062-3.029 0.01161-3.0277-0.0034-3.0389 0.0088-3.024-0.002-3.1297 0.01339-5.7412-0.0265-3.1192 0.03207-3.3616 0.0044-3.2444 0.0043-2.9991 0.0168-3.0516-0.01276-3.02 0.0053-3.0319 0.01093-2.9511 0.03248-3.0958-0.02805-3.0159 0.00077-3.0267 0.0025-3.2465 0.004-3.284 0.0081-3.0678-0.0093-3.0531 0.01531-3.0531 0.0031-3.2986 0.0028-12.238 0.03704-3.246-0.0096-3.0714 0.0026-3.0618-0.000871-3.0516 0.0053-3.2706 0.0026-6.3123 0.0068-33.196 0.07069 0.0306 32.528z"/>
  <path id="path24" d="m457.83 61.78-0.00025 5.1673 9.2228 0.0099 7.6586-4.4724 1.6619-0.61864 21.393-0.05105 0.0478-6.2076-3.568 0.02749-0.45115 0.54566-0.6519 0.38765-0.46201 0.13792-4.1553 0.58301-15.479 0.43734-15.217 4.0534z"/>
  <path id="path26" d="m700.32 16.443 3.0829-0.19616 4.0668-0.27754 3.1323 0.81512 0.60492 0.87691 0.59034 3.0364-3.049 0.72664 0.24486 3.4543 6.599-0.74703 0.53094 2.9181 1.9569-0.50803 2.3728-0.47658 1.1576-0.04928 3.3517-0.38405 3.4276-0.49133 1.788-0.93889 2.9615-1.9361 1.7182-0.28705 4.697 0.80918 5.6258 2.8602-1.2579-3.1981-1.1031-4.8501 1.2165-4.7571 0.0439-1.6886-1.1326-1.5707-2.5733-0.86936-5.7878-0.94352-0.55058-0.28097-1.2502 0.45057-1.6398-0.32633-0.9666 0.24897-2.6276-0.060519-4.8381-0.02758-7.8095-0.23779-5.4422 0.34812-9.3442 0.000237 0.14936 4.7776 0.0537 3.7803z"/>
  <path id="path28" d="m249.03 93.267-6.152 0.09529-0.0788 11.781 6.2054-0.01 0.0254-11.867z"/>
  <path id="path30" d="m191.56 111.06 6.106-0.0341 3.0455 0.0489 0.0237-5.9144-3.0763 0.0906 0.0572-1.9056-1.9359 0.59905-0.89883 1.7393-3.3098 1.1561-0.0115 4.2201z"/>
  <path id="path32" d="m488.57 104.8-0.0632 5.8378 12.166-0.16442 0.0385-5.6732-0.0114-5.6425-12.096 0.03347-0.0339 5.6089z"/>
  <path id="path34" d="m513.25 68.024 6.162 0.46867 4.4199-0.03364 4.39-0.5271 6.2861-1.0434 18.271-3.0948 0.10023-7.3726-3.0343 0.0184-0.0356 2.289-3.0128 3.1267-5.6608 0.05643-1.688-0.34997-2.6094-1.125-2.3011-0.02127-2.3706 0.36114-2.2388 1.2319-1.5685 2.147-1.3961 0.72605-1.5936-0.0431-12.081 0.04115-0.0385 3.1446z"/>
 </g>
 <use id="use77" stroke-width="0.4" fill-opacity="0" xlink:href="#neighs" transform="matrix(1.1077 0 0 1.1077 -.0029301 1.9568e-7)" width="100%" stroke="#000000" y="0" x="0" height="100%" class="neighBack"/>
 <g id="streets" fill-rule="evenodd" transform="matrix(1.1077 0 0 1.1077 1.775 3.8771)" stroke="#357087" stroke-width="3" class="">
  <path id="path93" d="m164.34 185.87 0.27572-1.6983 0.29777-30.439-0.0837-8.0466 0.0117-22.73 0.0556-4.1976-0.001-3.167-0.008-22.075 0.0401-10.408 0.20189-34.621"/>
  <path id="path95" d="m100.72 75.203 0.20471 2.1527-6.4385 23.776-3.632 14.615-1.4631 6.058-1.2683 5.4277 0.04642 11.604 2.3146 19.977-0.07585 2.5191"/>
  <path id="path97" d="m164.9 115.59-12.537 4.4415-8.1199-0.49148-23.164-1.5786-30.22-2.2117-40.073-2.3598-33.949-1.5752m157.15 0.30588 8.5515-2.5617 9.0435-2.7143 3.3098-1.1561 0.89883-1.7393 1.9359-0.59905 3.0233-1.1411 11.891-4.574 12.086-4.8312 24.335-8.0793 9.3145-1.6735 6.1078-1.9738 3.0207-0.65775 6.0499-0.58692 8.9256-0.4876 6.0741-1.0519 9.547-3.5401 2.8884-2.2131 2.9957-2.247 14.078-8.1781 16.149-8.6674 4.5718-2.6988 1.6794-0.5694 3.3063-1.121 15.285-3.5613 21.897 0.33222 3.2884 0.14817 6.3129 0.2844 21.133 0.07619 3.2826 0.01248 12.293 0.04658 12.125-0.48964 3.0986-0.8957 6.4238-2.8615 3.0275-1.0142 5.9226 0.05595 55.583-0.22237 21.186 0.03858 9.1302-0.07224 9.1802-0.01593 12.202-0.05661 30.438 0.13063 43.422-0.25013 5.5122-2.6627 5.8117-2.1226 15.555-4.2415 8.6947 1.7693 0.93548 0.0099 17.759-2.484 6.8921-1.8083 3.2393-0.43851 11.204-1.365 1.5302-0.34748 1.9569-0.50803 2.3728-0.47658 1.1576-0.04928 3.3517-0.38405 3.4276-0.49133 1.788-0.93889 2.9615-1.9361 1.7182-0.28705 4.697 0.80918 2.7155 1.4767 2.9102 1.3835 17.297 12.524 3.8699 3.3184 4.5303 3.2899 7.1956 3.7264 19.772 5.1331"/>
  <path id="path99" d="m114.4 75.621 5.0474 12.141 3.0921 7.437-1.2097 16.898-0.25118 5.8608 0.98985 4.7852 0.84716 9.5469 2.492 21.551 3.2691 25.75-0.0289 5.5449 1.4617 5.6576 0.76956 2.1404"/>
  <path id="path101" d="m142.61 105.25 22.275 0.0334 17.638-0.0328 12.598-0.0206 2.5402 0.0264 3.0763-0.0906 11.86 0.045 12.136-0.0347 18.068-0.0283 6.2054-0.01 9.2889-0.0152 36.366-0.0513 6.3518-0.003 39.387-0.0256 15.525-0.0108 12.575-0.0106 15.595-0.009 30.732-0.11456 6.2446 0.0418 24.464-0.0393 12.449-0.0455 30.585-0.0563"/>
  <path id="path103" d="m149.6 70.143 15.393 2.5682 47.683-0.04963 12.11-0.01249 18.102-0.02149 6.1912-0.0241 9.2872-0.03243 36.374-0.02602 6.244-0.0087 33.196-0.07069 6.3149-0.007 86.598-0.10306 30.734-0.03889 46.195-0.08896 61.012-0.12314 30.498-0.06396 14.621-0.03123"/>
  <path id="path105" d="m191.55 41.41 0.0317 31.282 0.014 20.748-0.0252 13.401-0.0115 4.2201-0.0161 5.9238-0.0626 5.8853-0.0255 22.8-0.089 12.43"/>
  <path id="path107" d="m295.03 30.95-0.22234 10.445-0.0374 10.371-0.0317 20.778-0.0772 32.522-0.0134 17.684-0.0481 32.157"/>
  <path id="path109" d="m249.13 29.866-0.0622 32.359 0.003 10.378-0.0225 12.118-0.0228 8.5461-0.0254 11.867-0.0106 5.8157-0.0576 11.887-0.0377 14.048-0.0661 8.6807-0.19603 2.6565-0.0386 1.9734"/>
  <path id="path111" d="m224.73 150.62-0.0247-27.764 0.0274-11.823-0.00035-5.86-0.0142-12.372 0.0648-20.151 0.1355-10.422-0.0728-30.942 0.15493-1.0448"/>
  <path id="path113" d="m340.4 105.04-0.005 17.657 0.0327 11.252-0.31314 1.3469 0.20453 1.3248 0.0302 23.677"/>
  <path id="path115" d="m340.49 72.459-0.0369-22.283 0.0926-16.983-0.50536-0.7416"/>
  <path id="path117" d="m384.09 105.01-0.001 23.536-0.028 6.0455-0.22772 1.2616 0.37268 2.1397-0.29035 3.094 0.081 20.998"/>
  <path id="path119" d="m384.24 72.408-0.009-26.434 0.0194-13.895"/>
  <path id="path121" d="m414.96 34.512 0.006 11.835-0.0719 26.024"/>
  <path id="path123" d="m414.83 104.89-0.003 1.9866-0.0719 21.543-0.12257 19.901"/>
  <path id="path125" d="m457.98 104.85-0.15858-32.535 0.005-5.3691 0.005-5.1685 0.0194-20.575-0.0381-4.9148"/>
  <path id="path127" d="m503.98 146.03-0.11136-41.279 0.15307-32.526-0.0196-5.1467 0.0955-8.4251 3.8439-7.1644 5.4967-10.526"/>
  <path id="path129" d="m565.19 101.59-0.37412-1.9758 0.21232-27.505-0.0125-3.5935 0.006-3.3555 0.1092-24.296-0.0453-7.7362-2.5023-3.8313-1.9834-2.0769"/>
  <path id="path131" d="m595.63 82.092-0.0992-2.2589 0.00043-7.7926 0.009-8.4268-0.00087-1.988 0.0333-20.635 0.22357-9.1213 0.60123-1.2053"/>
  <path id="path133" d="m675.11 60.257 0.39649-26.764-2.2877-14.198-1.8408-3.2511 0.64926-2.9875"/>
  <path id="path135" d="m727.65 50.915 17.539-25.268 0.28652-0.61839 0.95992-3.0084 0.93673-2.8508 0.94895-2.7214 1.0329-2.9381 1.6334-5.2449 0.52787-1.7047"/>
 </g>
</svg>
