<?xml version="1.0" encoding="UTF-8" standalone="no"?>
<svg id="svg2" stroke-linejoin="round" xmlns:rdf="http://www.w3.org/1999/02/22-rdf-syntax-ns#" xmlns="http://www.w3.org/2000/svg" fill="none" pretty_print="False" height="308px" viewBox="0 0 300 308" width="300px" stroke="#000" version="1.1" xmlns:cc="http://creativecommons.org/ns#" xmlns:xlink="http://www.w3.org/1999/xlink" enable_background="new 0 0 300 308" xmlns:dc="http://purl.org/dc/elements/1.1/">
 <defs id="defs4">
  <style id="style6" type="text/css"><![CDATA[path { fill-rule: evenodd; }]]></style>
  <g id="neighs" pointer-events="all">
   <path id="Chelsea" data-id="Chelsea" data-area="midtown" d="m133.67 274.17l-0.05-30.26-0.09-15.47v-10.53-5.09l-0.02-20.43-35.569-0.03-17.876-0.03-57.17-0.07 0.01 2.02-0.784-0.01-0.03 1.62 0.789 0.02 3.245 14.13-2.101-0.02-0.002 1.11-6.856-0.03 0.002-1.03h-0.815l-0.001 0.58h0.316l-0.001 0.79 7.104-0.02 2.68 0.03 0.236 1.02-5.303 0.01 0.001 0.15 1.858-0.01 0.001 1.11 3.658-0.26 3.192 13.89-1.692-0.06 0.218 0.62-7.205 0.74 0.074 0.71 7.342-0.75 1.623 7.23-6.157 2.38 1.158 3.03 11.691-4.57 1.574 4.04-11.712 4.58 1.115 2.85 11.709-4.53 1.582 4.05-11.707 4.53 1.112 2.83 11.498-4.35 1.583 3.97-11.542 4.46 1.199 2.9 1.176 2.87 0.835-0.36-0.039-0.09-0.643 0.28-1.067-2.57 3.026-1.18 0.963 2.63-0.786 0.33 0.043 0.1 1.735-0.74-0.043-0.09-0.656 0.28-1.045-2.54 2.999-1.19 1.063 2.57-0.885 0.37 0.052 0.12 1.749-0.73-0.048-0.12-0.682 0.29-1.028-2.59 2.646-1.03 1.008 2.59-0.633 0.26 0.06 0.15 1.505-0.62-0.048-0.12-0.663 0.27-1.018-2.6 1.928-0.74 0.76 1.98 3.527-1.22 1.138-0.39 1.161 3 1.357 3.55-2.759 1.09 0.776 2.03-13.33 5.12 1.143 2.89 13.279-5.22 0.872 2.2 2.713-1.09 0.863 2.02 41.487 0.23 17.792 0.1 17.83 0.06z"/>
   <path id="Hell's Kitchen" data-id="Hell&apos;s Kitchen" data-area="midtown" d="m22.743 129.86l0.007 4.67-14.022-0.12-0.0357 1.5 14.061 0.14-0.008 4.57h57.32l17.804 0.01-0.044-10.6-0.06-15.91-0.061-62.283-0.018-10.692-3.849-5.129-13.97-0.145 0.03 5.115-53.549-0.073-4.137-0.579-13.496-0.004-0.1532 2.268 7.3972-0.052-0.003-1.236 4.624 0.119 0.014 0.956 2.288 0.025 0.029-0.775 0.668-0.015-0.024 3.906-15.607-0.017-0.0062 0.324 2.7192-0.058-0.037 1.991 5.659 0.017-0.018-1.045 6.319 0.01-0.008 3.698-13.37-0.046 0.0091 2.303 13.373-0.006-0.008 0.406 0.833 0.543-0.032 0.318-0.802 0.432 0.022 2.09-3.685-0.128-0.072 1.618 3.763-0.137 0.031 3.92-0.843-0.016-0.002 1.307 0.845-0.02 0.033 4.947-15.299 0.008-0.0002 2.986 15.375 0.052 0.033 5.63-15.437-0.075-0.0255 2.506 20.614 0.007 0.052 7.976-20.592-0.12-0.0138 2.529 20.611 0.108 0.039 7.945-20.679-0.207 0.0379 2.539 20.776 0.041 0.081 1.688-0.199 0.55-0.591 0.64-0.171 0.34 0.173 0.36 0.391 0.37 0.796 0.43 0.027 3.53-19.745-0.04 0.0078 2.99 19.737 0.05-0.142 7.13-5.84-0.1-15.018 0.01 0.0149 1.02h0.3798l-0.0092-0.62 1.0171 0.02 0.0288 2.33h13.602l0.02 4.69-13.888 0.04-0.0134 1.62 13.916 0.03 0.005 2.88z"/>
   <path id="NoMad" data-id="NoMad" data-area="midtown" d="m133.51 192.39l0.02 20.43v5.09l16.96 0.05 3.26 0.09 9.89-0.01 20.32-0.03-0.02-5.11-0.03-20.36-30.24-0.06-12.97-0.06-7.19-0.03z"/>
   <path id="Union Square" data-id="Union Square" data-area="midtown" d="m133.62 243.91l0.05 30.26 43.22-0.02 7.19 0.09-0.04-20.57-10.14 0.02-0.02-9.74-12.75 0.01-7.38 0.02-20.13-0.07z"/>
   <path id="Central Midtown" data-id="Central Midtown" data-area="midtown" d="m97.686 41.145l0.018 10.692 0.061 62.283 0.06 15.91 35.385 0.06 20.32 0.04 9.96 0.02 20.35 0.09-0.06-15.91-0.05-41.277-0.05-21.084-0.03-10.811-30.26-0.081-55.704 0.068z"/>
   <path id="Murray Hill" data-id="Murray Hill" data-area="midtown" d="m163.49 130.15l0.15 41.54 20.24 0.04 47.55-0.05h2.63v-0.16l-0.02-0.51-0.07-1.75-0.03-0.85 1-0.11-0.17-2.24-0.93 0.07-0.02-0.39-0.96-0.02-0.09-2.19 2.63-0.05 0.09-0.6h-2.75l-0.1-2.27 0.95 0.01-0.1-5.25 0.18-3.79 0.65 0.07 1.13-16.51-0.87-0.05 0.29-4.6-4.18 0.32-3.38-0.07-4.55-0.33-14.86-0.11-24.06-0.06-20.35-0.09z"/>
   <path id="Midtown South" data-id="Midtown South" data-area="midtown" d="m79.997 114.16l0.014 15.88 0.054 10.58 0.003 30.78-0.003 20.93 17.876 0.03 35.569 0.03 7.19 0.03 12.97 0.06 30.24 0.06-0.03-20.81-0.04-41.49-0.06-15.91-30.28-0.1-37.8-0.12-17.935 0.01-17.768 0.04z"/>
   <path id="Hudson Yards" data-id="Hudson Yards" data-area="midtown" d="m22.895 192.26l57.17 0.07 17.876 0.03-0.027-20.74-0.045-30.99-0.044-10.6-17.814 0.01-55.368-0.1-1.9-0.08 0.007 4.67-14.022-0.12-0.0357 1.5 14.061 0.14-0.008 4.57-0.001 0.51-2.18-0.02 0.018 5.16-0.059 3.73 2.25 0.05 0.031 1.14-2.772-0.01 0.007 0.14-0.99-0.14-0.07 0.44 1.077 0.17 0.007 0.97 2.765 0.03-0.01 1.12-1.87-0.01 0.03 3.43-12.438 0.05-0.0109 5.99 12.479-0.05-0.037 2.73 3.037 0.12 0.07 4.73-1.309-0.03 0.108 19.67h-0.794l0.008 1.62 0.803-0.01 0.001 0.11z"/>
   <path id="Garment District" data-id="Garment District" data-area="midtown" d="m80.065 192.33l17.876 0.03 35.569 0.03 7.19 0.03 12.97 0.06-0.07-20.78-0.05-30.94-0.02-10.63-20.32-0.04-35.385-0.06-17.814 0.01 0.054 10.58 0.003 30.78-0.003 20.93z"/>
   <path id="Flatiron District" data-id="Flatiron District" data-area="midtown" d="m183.94 212.9l-20.21-0.08-10.13-0.04h-5.06l-15.01 0.04v5.09 10.53l0.09 15.47 20.13 0.07 7.38-0.02 12.75-0.01-0.02-9.92 10.06 0.08 0.01-5.49 0.03-10.61-0.02-5.11z"/>
   <path id="Gramercy Park" data-id="Gramercy Park" data-area="midtown" d="m222.97 228.66l-39.04-0.04-10.08-0.1 0.01 5.51 0.02 9.92 0.02 9.74 10.14-0.02 0.04 20.57 38.92 0.01-0.03-45.59z"/>
   <path id="Midtown East" data-id="Midtown East" data-area="midtown" d="m183.65 41.158l0.03 10.811 0.05 21.084 0.05 41.277 0.06 15.91 24.06 0.06 14.86 0.11 4.55 0.33 3.38 0.07 4.18-0.32 0.82-12.63 2.3-28.824 1.39-15.539 0.39-4.998 1.96-7.445 0.14-6.701 0.38-10.232 0.24-2.869-58.84-0.094z"/>
   <path id="Stuyvesant Town / Peter Cooper Village" data-id="Stuyvesant Town / Peter Cooper Village" data-area="midtown" d="m222.97 228.66l0.03 45.59 13.78-0.15 52.12 0.5 2.91 0.47-1.97-5.17-1.03 0.42-0.67-1.59 0.44-0.22-2.32-5.69-3.47-5.22-3.44-2.42-3.08-1.22-4.41-1.28-3.25-1.3-1.64-0.95-2.29-2.71-6.25-7.51 0.23-0.34 0.36-0.64 0.04-0.25-0.19-0.04-0.21 0.19h-0.27l-0.8-0.23-0.41-0.24-0.3-0.28-8.3-9.9-4.33 0.32-21.28-0.14z"/>
   <path id="Kips Bay" data-id="Kips Bay" data-area="midtown" d="m183.88 171.73l0.03 20.81 0.03 20.36 0.02 5.11-0.03 10.61 39.04 0.04 21.28 0.14 4.33-0.32-0.62-0.8 5.57-0.02-0.01-0.25 0.52-0.25 0.28-0.49 0.02-0.57-0.12-0.26-0.33-0.3-0.2-0.09-0.03-0.32 1.65 0.03 0.01-0.13 0.5 0.01v0.24l0.15 0.03 0.05-1.14-0.72-0.05 0.01-2.1-0.28 0.03 0.01 2.6-6.93 0.01-0.26 0.07-1.26 0.8-0.52-0.8 1.17-0.37-0.07-0.22-1.39 0.43-0.71-1.32 2.09-0.23-0.02-0.16-2.15 0.19-0.54-1.34 2.63-0.01 0.01-0.22-2.69-0.02-0.18-0.77 9.64-0.04 1.77-1.1-2.68-4.09-5.85-9.82-4.3-7.34-1.76-5.62 0.7-0.26-1.76-4.8-0.67 0.25-4.08-11.08-0.09-2.64-0.93 0.01-0.15-2.48h-2.63l-47.55 0.05z"/>
   <path id="Tudor City" data-id="Tudor City" data-area="midtown" d="m222.73 124.72l-14.84 0.14 0.03 16.05h14.65l0.19-10.5-0.03-5.69z"/>
   <path id="Sutton Place" data-id="Sutton Place" data-area="midtown" d="m242.49 41.252l-58.84-0.094 0.03 10.811 0.05 21.084 55.68 0.063 0.36-4.617 1.96-7.445 0.14-6.701 0.38-10.232 0.24-2.869z"/>
  </g>
 </defs>
 <metadata id="metadata25">
  <views>
   <view padding="0" h="308.354651513" w="300">
    <proj id="satellite" dist="1.6" lat0="40.750925" tilt="0" up="-29" lon0="-73.9835"/>
    <bbox y="999.23" h="1.54" w="1.51" x="999.25"/>
   </view>
  </views>
  <rdf:RDF>
   <cc:Work rdf:about="">
    <dc:format>image/svg+xml</dc:format>
    <dc:type rdf:resource="http://purl.org/dc/dcmitype/StillImage"/>
    <dc:title/>
   </cc:Work>
  </rdf:RDF>
 </metadata>
 <rect id="rect27" width="300" fill="#bfd7e3" height="308" stroke="none"/>
 <g id="contour" stroke="#000" fill="#fff">
  <path id="path30" fill-rule="evenodd" d="m64.932 306.35 1.0051-0.47765 0.22394 4.4776h233.84v-12.126l-1.0444-3.0703-5.2066-14.449 0.22858-0.10323-2.1693-5.5348-1.97-5.173-1.0296 0.41969-0.67021-1.5871 0.44538-0.21631-2.3212-5.6981-3.468-5.2207-3.4482-2.4144-3.0798-1.2219-4.4103-1.2768-3.2472-1.2982-1.6358-0.95408-2.2918-2.7067-6.2472-7.5183 0.22906-0.33996 0.35465-0.63685 0.0436-0.24641-0.18933-0.0422-0.21045 0.19478-0.26896-0.0002-0.80021-0.23129-0.40985-0.24166-0.30637-0.28481-8.2968-9.8988-0.62281-0.79743 5.5702-0.0179-0.003-0.25432 0.51455-0.25061 0.28633-0.48657 0.011-0.56994-0.1171-0.26304-0.32967-0.29494-0.19739-0.0977-0.0319-0.31607 1.6542 0.0271 0.002-0.12916 0.50715 0.0139-0.003 0.24314 0.1516 0.0254 0.0445-1.1351-0.7159-0.0542 0.005-2.0971-0.27671 0.0229 0.0138 2.6035-6.9378 0.009-0.25073 0.0684-1.2608 0.80589-0.52765-0.79767 1.1702-0.37696-0.0656-0.2187-1.3931 0.43214-0.71119-1.3245 2.0964-0.22212-0.0255-0.16629-2.1517 0.19054-0.53049-1.3419 2.626-0.008 0.005-0.21581-2.683-0.0181-0.17803-0.77774 9.6401-0.0337 1.7657-1.1011-2.685-4.0891-5.8426-9.8239-4.3065-7.3386-1.7513-5.6234 0.69309-0.26235-1.7534-4.7982-0.67485 0.25115-4.0794-11.083-0.0926-2.6364-0.92361 0.007-0.14917-2.4794-0.002-0.15755-0.0212-0.50606-0.0748-1.7534-0.0279-0.84651 1.0035-0.11277-0.17385-2.2439-0.92622 0.0743-0.0236-0.39446-0.96161-0.0193-0.0901-2.1865 2.6309-0.0537 0.0878-0.59204-2.7462-0.002-0.1041-2.2672 0.95661 0.008-0.10462-5.2524 0.18664-3.7855 0.64781 0.0614 1.128-16.503-0.86592-0.0565 0.28249-4.5925 0.82606-12.631 2.3003-28.827 1.3867-15.539 0.39334-4.9978 0.00006-0.000738 1.9534-7.4454 0.14336-6.7009 0.38352-10.231 0.23494-2.8692 1.8868-9.8901 3.2931-16.899 1.97-9.46 0.43-6.99h-226.35l0.01377 5.1407-2.475 1.5218 0.05684 16.553 1.7717-0.49012 0.38021 4.4933-1.2429 0.30529-0.000089 14.809-13.496-0.0032-0.15264 2.2673 7.3968-0.05118-0.0022-1.2365 4.6236 0.11947 0.0137 0.95539 2.2883 0.02512 0.02896-0.77517 0.66782-0.01482-0.0234 3.9063-15.607-0.01692-0.00645 0.32332 2.7194-0.05751-0.03676 1.9912 5.6589 0.01682-0.01808-1.0451 6.3186 0.01036-0.0075 3.6977-13.371-0.04605 0.00928 2.3031 13.373-0.0063-0.0081 0.40641 0.83373 0.54258-0.03266 0.3186-0.8021 0.4317 0.02238 2.0897-3.6847-0.12807-0.07252 1.6187 3.763-0.13728 0.0308 3.9194-0.8428-0.01596-0.0017 1.307 0.84439-0.02005 0.03372 4.947-15.299 0.0088-0.000335 2.9856 15.375 0.05213 0.03266 5.6294-15.436-0.07465-0.025829 2.5057 20.613 0.0075 0.05276 7.9763-20.592-0.12079-0.013336 2.5292 20.611 0.10792 0.03878 7.945-20.678-0.20686 0.037446 2.5394 20.776 0.04092 0.08116 1.6913-0.19938 0.5509-0.59111 0.63589-0.17041 0.34199 0.17262 0.36153 0.39137 0.36315 0.79559 0.43285 0.02707 3.527-19.745-0.038 0.00822 2.9886 19.738 0.0538-0.14247 7.1237-5.8394-0.0962-15.018 0.0139 0.014864 1.0142 0.37974-0.00057-0.00922-0.62079 1.0171 0.0275 0.028817 2.3271 13.602-0.005 0.01973 4.6941-13.888 0.0454-0.012979 1.6147 13.917 0.0271 0.0044 2.8864 0.0071 4.6673-14.021-0.12358-0.036159 1.5082 14.061 0.13782-0.0085 4.5712-0.000942 0.50686-2.1795-0.0251 0.01779 5.161-0.05913 3.7352 2.25 0.0445 0.03072 1.1431-2.7715-0.008 0.0074 0.1367-0.99043-0.13896-0.07009 0.43982 1.0768 0.17047 0.0068 0.97418 2.7655 0.0232-0.0099 1.1198-1.8701-0.004 0.02984 3.4221-12.438 0.0578-0.011216 5.9885 12.478-0.0556-0.03669 2.7307 3.0369 0.12234 0.07011 4.7294-1.3087-0.0271 0.10765 19.667-0.79382 0.001 0.0083 1.6151 0.80314-0.001 0.000521 0.10189 0.01044 2.0272-0.7841-0.008-0.03034 1.6168 0.78882 0.0174 3.2451 14.134-2.1005-0.0185-0.002 1.1017-6.8563-0.0292 0.0019-1.0238-0.8151-0.004-0.0011 0.57842 0.31644 0.002-0.0014 0.79243 7.1047-0.025 2.6797 0.0375 0.23559 1.0188-5.3023 0.008 0.000687 0.14727 1.858-0.003 0.0014 1.102 3.6578-0.26048 3.1918 13.897-1.692-0.0677 0.21789 0.62926-7.2048 0.73366 0.07345 0.71467 7.3427-0.75328 1.623 7.2345-6.1571 2.3762 1.1575 3.0257 11.691-4.5703 1.5737 4.0491-11.711 4.5779 1.1151 2.8489 11.709-4.5287 1.5819 4.0496-11.707 4.5262 1.1126 2.8315 11.498-4.3462 1.5826 3.9675-11.541 4.462 1.1984 2.8954 1.1762 2.8704 0.83484-0.36351-0.03873-0.0887-0.64355 0.28442-1.0671-2.5763 3.0266-1.1719 0.96244 2.6267-0.7855 0.3346 0.04243 0.0994 1.7354-0.73928-0.0431-0.0978-0.65553 0.28723-1.0458-2.5448 2.9997-1.187 1.063 2.568-0.88564 0.36644 0.05277 0.12503 1.7482-0.73559-0.04729-0.11209-0.68261 0.28831-1.0273-2.5956 2.6455-1.0295 1.0083 2.5935-0.633 0.2619 0.05996 0.14497 1.5053-0.62071-0.04835-0.11692-0.66364 0.27317-1.0172-2.601 1.928-0.73762 0.75943 1.9799 3.5273-1.2221 1.1376-0.39368 1.1608 2.9977 1.3573 3.5506-2.7587 1.088 0.7754 2.0303-13.33 5.1234 1.1429 2.8884 13.279-5.2218 0.87158 2.2067 2.7131-1.0936 0.86314 2.0224 1.7693 4.8331-0.85825 0.3683 1.0608 2.7236-13.367 5.1908 0.71782 1.8024 14.246-5.4244 1.4173 3.7739-9.2074 4.4116-6.2791 2.9174 0.54572 1.0695 5.7365-2.8399 1.3944 2.7811-4.1133 1.9359 1.3923 2.9917 4.088-1.9586 1.4796 3.1746 5.8705-2.8874 2.539 5.2756-2.9522 1.4418 0.44549 0.99267zm199.84-308.35l-0.0171 2.7708 0.65459 6.3784-0.28188 2.0417-0.82893 6.004-1.0185-0.18326-0.37961 2.3237 0.50389 0.13977-0.88695 4.9914-1.1296 16.954 0.14938 0.97116-3.274 30.975-0.54176 0.03168-0.0812 5.3168 1.4971 8.4543-0.94656 10.686 0.83934 3.8744-0.0505 2.5107 0.46021 1.4746 0.64449 0.88077 0.80239-0.33765 0.86038-1.2791 0.035-1.4424 0.17052-2.0731 0.88117-3.3416 2.028-5.734 0.84975-4.4562-0.39128-0.56806 2.8689-7.5126 1.7554-8.0006 1.9179-16.032 0.4976-0.47545 1.678-7.9986 1.6131-8.0669 0.64018-9.1035-0.86435-2.9007 0.53988-5.8574 1.3427-10.57 1.8887-6.7589 0.16-4.0831z"/>
 </g>
 <use id="use32" fill-opacity="0" xlink:href="#neighs" stroke="#000000" stroke-width=".5" class="neighBack" fill="#000000"/>
 <g id="parks" stroke="none" class="" fill="#c7deb3">
  <path id="path35" d="m165.59 274.16l5.88-0.01h5.42l-2.99-5.55 0.01-9.97-8.39-0.03 0.07 15.56z"/>
  <path id="path37" d="m97.587 0l0.099 41.145 55.704-0.068-0.05-41.077h-55.753z"/>
  <path id="path39" d="m133.21 130.09l0.16 10.54 20.18 0.13-0.02-10.63-20.32-0.04z"/>
  <path id="path41" d="m163.7 228.49l-0.06-10.45 0.09-5.22-10.13-0.04 0.15 5.27-3.26-0.09 1.03 3.31 2.98 1.54 1.98 5.67 7.22 0.01z"/>
 </g>
 <g id="streets" stroke="#357087" stroke-width="3" class="">
  <path id="path44" d="m291.81 275.07l-2.91-0.47-52.12-0.5-13.78 0.15-38.92-0.01-7.19-0.09h-5.42l-37.8 0.02-17.83-0.06-59.279-0.33"/>
  <g fill-rule="evenodd">
   <path id="path46" d="m171.47 274.15 7.6112 21.466-0.647 10.737m-12.909-47.753-4.3906-14.642-4.652-15.485-1.9811-5.6671-2.9787-1.5383-1.0267-3.3146-1.9553-5.1765-7.8378-20.359-8.2783-20.694-13.846-41.667-2.8699-15.949-3.3826-10.458-1.1277-5.1722l-0.99-10.358-0.84-15.283-1.81-10.401-6.06-16.346-3.794-4.945-3.849-5.129-14.01-24.103-8.129-14.451"/>
   <path id="path48" d="m153.78 306.35 0.0396-32.177-0.0642-30.203-0.0411-21.573 0.044-4.3498-0.15653-5.2676 0.0716-20.308-0.0649-20.781-0.0567-30.938-0.0197-10.626-0.0302-15.906-0.10459-62.272-0.007-10.877 0.0776-44.192"/>
   <path id="path50" d="m93.657 300.37 4.3906-26.359-0.10683-81.651-0.02694-20.737-0.04509-30.997-0.0441-10.602-0.05979-15.903-0.06121-62.286-0.01768-10.692-0.32933-44.951"/>
  </g>
  <path id="path52" d="m44.437 228.54l53.566-0.07 35.527-0.03 22.95 0.04 7.22 0.01 10.15 0.03 10.08 0.1 39.04 0.04 21.28 0.14"/>
  <path id="path54" d="m26.478 51.357l17.886 0.376 17.76 0.059 35.58 0.045 55.686 0.117 30.29 0.015 55.06 0.068"/>
  <path id="path56" d="m24.643 129.94l55.411 0.1 17.771-0.01 20.745 0.03 14.64 0.03 20.32 0.04 9.96 0.02 20.35 0.09 24.06 0.06 14.86 0.11 4.55 0.33 3.38 0.07"/>
  <path id="path58" d="m231.43 171.68l-47.55 0.05-20.24-0.04-10.04 0.01-21.18 0.03-34.506-0.11-17.846-0.22-52.983 0.14-1.789-0.27"/>
 </g>
</svg>
