<?xml version="1.0" encoding="utf-8"?>
<!DOCTYPE svg
  PUBLIC '-//W3C//DTD SVG 1.1//EN'
  'http://www.w3.org/Graphics/SVG/1.1/DTD/svg11.dtd'>
<svg enable_background="new 0 0 300 308" height="308px" pretty_print="False" style="stroke-linejoin: round; stroke:#000; fill: none;" version="1.1" viewBox="0 0 300 308" width="300px" xmlns="http://www.w3.org/2000/svg" xmlns:xlink="http://www.w3.org/1999/xlink">
	<defs>
		<style type="text/css"><![CDATA[path { fill-rule: evenodd; }]]></style>
		<g id="neighs" pointer-events="all">
			<path id="Chelsea" d="M133.665563,274.174722L133.619296,243.913464L133.530514,228.438401L133.527543,217.913708L133.532495,212.818297L133.505257,192.389881L97.940772,192.361264L80.064791,192.327297L22.894883,192.255395L22.905318,194.282562L22.121219,194.274338L22.090875,195.891188L22.879698,195.908612L26.124838,210.042595L24.024314,210.024042L24.022306,211.125726L17.166006,211.096544L17.167866,210.072756L16.352766,210.068595L16.351712,210.647008L16.668154,210.648622L16.666717,211.441054L23.771410,211.416030L26.451102,211.453499L26.686690,212.472260L21.384381,212.480649L21.385068,212.627917L23.243091,212.624976L23.244472,213.726962L26.902293,213.466480L30.094130,227.363144L28.402086,227.295387L28.619974,227.924655L21.415214,228.658310L21.488660,229.372977L28.831375,228.619697L30.454423,235.854189L24.297330,238.230438L25.454803,241.256104L37.145931,236.685828L38.719664,240.734931L27.008278,245.312803L28.123363,248.161681L39.831874,243.633023L41.413798,247.682674L29.706888,252.208834L30.819459,255.040331L42.317002,250.694124L43.899580,254.661599L32.358457,259.123601L33.556880,262.018970L34.733083,264.889344L35.567928,264.525833L35.529202,264.437099L34.885649,264.721520L33.818553,262.145224L36.845171,260.973317L37.807616,263.600049L37.022117,263.934652L37.064544,264.034064L38.799977,263.294779L38.756873,263.196938L38.101347,263.484171L37.055516,260.939387L40.055210,259.752399L41.118220,262.320359L40.232575,262.686805L40.285340,262.811832L42.033557,262.076236L41.986262,261.964155L41.303651,262.252459L40.276371,259.656851L42.921900,258.627350L43.930190,261.220844L43.297192,261.482740L43.357157,261.627714L44.862494,261.007002L44.814145,260.890079L44.150502,261.163246L43.133299,258.562258L45.061330,257.824645L45.820758,259.804524L49.348093,258.582436L50.485741,258.188757L51.646504,261.186416L53.003825,264.737069L50.245161,265.825123L51.020566,267.855447L37.690741,272.978846L38.833651,275.867297L52.112988,270.645483L52.984572,272.852201L55.697689,271.758591L56.560831,273.781009L98.047600,274.012505L115.844041,274.110851L133.665563,274.174722Z " data-area="midtown" data-id="Chelsea"/>
			<path id="Hell's Kitchen" d="M22.742773,129.862873L22.749919,134.530210L8.728445,134.406631L8.692286,135.914850L22.752996,136.052668L22.744509,140.623923L80.065442,140.622036L97.868743,140.627183L97.824640,130.025685L97.764849,114.122686L97.703638,51.836823L97.685956,41.144774L93.836846,36.016160L79.867062,35.871018L79.897177,40.985768L26.348415,40.912792L22.210966,40.333515L8.714468,40.330337L8.561828,42.597605L15.958579,42.546422L15.956382,41.309886L20.579962,41.429357L20.593664,42.384746L22.881946,42.409865L22.910902,41.634691L23.578719,41.619869L23.555324,45.526173L7.948259,45.509253L7.941804,45.832578L10.661236,45.775063L10.624473,47.766304L16.283409,47.783127L16.265324,46.738010L22.583908,46.748370L22.576438,50.446051L9.205856,50.400005L9.215140,52.703059L22.587802,52.696753L22.579731,53.103165L23.413461,53.645742L23.380803,53.964347L22.578705,54.396049L22.601086,56.485766L18.916369,56.357698L18.843846,57.976444L22.606837,57.839161L22.637634,61.758557L21.794830,61.742599L21.793150,63.049644L22.637543,63.029591L22.671260,67.976603L7.372100,67.985381L7.371765,70.971022L22.747012,71.023152L22.779674,76.652585L7.343295,76.577936L7.317466,79.083626L27.930748,79.091098L27.983507,87.067440L7.391511,86.946648L7.378175,89.475860L27.989121,89.583785L28.027899,97.528795L7.349410,97.321936L7.386856,99.861331L28.162892,99.902251L28.244053,101.593556L28.044676,102.144458L27.453564,102.780349L27.283158,103.122344L27.455780,103.483873L27.847152,103.847015L28.642740,104.279867L28.669815,107.806896L8.924608,107.768891L8.932829,110.757458L28.670396,110.811286L28.527928,117.935017L22.688488,117.838823L7.670079,117.852702L7.684943,118.866935L8.064688,118.866371L8.055473,118.245580L9.072564,118.273117L9.101381,120.600245L22.703015,120.595296L22.722741,125.289424L8.834540,125.334801L8.821561,126.949460L22.738351,126.976517L22.742773,129.862873Z " data-area="midtown" data-id="Hell's Kitchen"/>
			<path id="NoMad" d="M133.505257,192.389881L133.532495,212.818297L133.527543,217.913708L150.491535,217.955365L153.754558,218.052394L163.643308,218.037526L183.956617,218.006424L183.941966,212.897419L183.912649,192.539325L153.669664,192.476888L140.698414,192.419442L133.505257,192.389881Z " data-area="midtown" data-id="NoMad"/>
			<path id="Union Square" d="M133.619296,243.913464L133.665563,274.174722L176.888650,274.147702L184.076466,274.241011L184.039550,253.674619L173.900193,253.686272L173.876572,243.953390L161.130006,243.959938L153.751648,243.975001L133.619296,243.913464Z " data-area="midtown" data-id="Union Square"/>
			<path id="Central Midtown" d="M97.685956,41.144774L97.703638,51.836823L97.764849,114.122686L97.824640,130.025685L133.208314,130.093811L153.528284,130.131903L163.486871,130.147396L183.841478,130.240658L183.779923,114.333393L183.730021,73.053013L183.675297,51.968944L183.645300,41.157707L153.386091,41.077479L97.685956,41.144774Z " data-area="midtown" data-id="Central Midtown"/>
			<path id="Murray Hill" d="M163.486871,130.147396L163.639187,171.692526L183.884000,171.733967L231.425415,171.679046L234.064901,171.675876L234.063070,171.518328L234.041908,171.012265L233.967058,169.258857L233.939193,168.412354L234.942695,168.299578L234.768838,166.055722L233.842616,166.129989L233.819007,165.735533L232.857399,165.716206L232.767304,163.529666L235.398186,163.476002L235.485964,162.883964L232.739730,162.882055L232.635629,160.614809L233.592244,160.622714L233.487624,155.370291L233.674265,151.584764L234.322070,151.646136L235.450084,135.143275L234.584164,135.086821L234.866653,130.494321L230.689902,130.807523L227.310669,130.742391L222.761781,130.407927L207.897269,130.298713L183.841478,130.240658L163.486871,130.147396Z " data-area="midtown" data-id="Murray Hill"/>
			<path id="Midtown South" d="M79.996803,114.156278L80.011494,130.035848L80.065442,140.622036L80.067592,171.396793L80.064791,192.327297L97.940772,192.361264L133.505257,192.389881L140.698414,192.419442L153.669664,192.476888L183.912649,192.539325L183.884000,171.733967L183.841478,130.240658L183.779923,114.333393L153.498035,114.225915L115.704390,114.109608L97.764849,114.122686L79.996803,114.156278Z " data-area="midtown" data-id="Midtown South"/>
			<path id="Hudson Yards" d="M22.894883,192.255395L80.064791,192.327297L97.940772,192.361264L97.913832,171.624056L97.868743,140.627183L97.824640,130.025685L80.011494,130.035848L24.642548,129.944274L22.742773,129.862873L22.749919,134.530210L8.728445,134.406631L8.692286,135.914850L22.752996,136.052668L22.744509,140.623923L22.743567,141.130781L20.564080,141.105638L20.581873,146.266681L20.522739,150.001916L22.772779,150.046459L22.803503,151.189553L20.032022,151.181573L20.039422,151.318274L19.048992,151.179314L18.978897,151.619127L20.055740,151.789605L20.062577,152.763782L22.828059,152.787013L22.818140,153.906824L20.947991,153.903040L20.977829,157.325111L8.540297,157.382913L8.529081,163.371384L21.007514,163.315769L20.970821,166.046469L24.007714,166.168815L24.077828,170.898189L22.769095,170.871127L22.876743,190.538408L22.082922,190.539879L22.091227,192.155002L22.894362,192.153498L22.894883,192.255395Z " data-area="midtown" data-id="Hudson Yards"/>
			<path id="Garment District" d="M80.064791,192.327297L97.940772,192.361264L133.505257,192.389881L140.698414,192.419442L153.669664,192.476888L153.604721,171.695817L153.547990,140.757705L153.528284,130.131903L133.208314,130.093811L97.824640,130.025685L80.011494,130.035848L80.065442,140.622036L80.067592,171.396793L80.064791,192.327297Z " data-area="midtown" data-id="Garment District"/>
			<path id="Flatiron District" d="M183.941966,212.897419L163.725581,212.822546L153.598033,212.784758L148.536209,212.778841L133.532495,212.818297L133.527543,217.913708L133.530514,228.438401L133.619296,243.913464L153.751648,243.975001L161.130006,243.959938L173.876572,243.953390L173.858367,234.033751L183.919721,234.106239L183.925919,228.622378L183.956617,218.006424L183.941966,212.897419Z " data-area="midtown" data-id="Flatiron District"/>
			<path id="Gramercy Park" d="M222.967336,228.655624L183.925919,228.622378L173.848201,228.517942L173.858367,234.033751L173.876572,243.953390L173.900193,253.686272L184.039550,253.674619L184.076466,274.241011L222.998214,274.250674L222.967336,228.655624Z " data-area="midtown" data-id="Gramercy Park"/>
			<path id="Midtown East" d="M183.645300,41.157707L183.675297,51.968944L183.730021,73.053013L183.779923,114.333393L183.841478,130.240658L207.897269,130.298713L222.761781,130.407927L227.310669,130.742391L230.689902,130.807523L234.866653,130.494321L235.692711,117.863077L237.992979,89.036470L239.379642,73.497379L239.773036,68.498878L241.726471,61.053513L241.869827,54.352591L242.253350,44.121473L242.488287,41.252243L183.645300,41.157707Z " data-area="midtown" data-id="Midtown East"/>
			<path id="Stuyvesant Town / Peter Cooper Village" d="M222.967336,228.655624L222.998214,274.250674L236.776809,274.103637L288.899961,274.599617L291.808204,275.070984L289.838245,269.897969L288.808683,270.317659L288.138470,268.730522L288.583852,268.514208L286.262660,262.816147L282.794664,257.595439L279.346509,255.181019L276.266725,253.959163L271.856414,252.682398L268.609235,251.384147L266.973464,250.430066L264.681687,247.723328L258.434463,240.205034L258.663518,239.865075L259.018171,239.228216L259.061754,238.981810L258.872423,238.939645L258.661970,239.134426L258.393010,239.134234L257.592801,238.902944L257.182945,238.661276L256.876585,238.376472L248.579812,228.477713L244.252306,228.802281L222.967336,228.655624Z " data-area="midtown" data-id="Stuyvesant Town / Peter Cooper Village"/>
			<path id="Kips Bay" d="M183.884000,171.733967L183.912649,192.539325L183.941966,212.897419L183.956617,218.006424L183.925919,228.622378L222.967336,228.655624L244.252306,228.802281L248.579812,228.477713L247.956996,227.680279L253.527237,227.662347L253.523943,227.408032L254.038494,227.157421L254.324817,226.670849L254.335776,226.100915L254.218676,225.837869L253.889010,225.542933L253.691619,225.445196L253.659740,225.129135L255.313909,225.156204L255.316055,225.027039L255.823204,225.040929L255.820383,225.284068L255.971985,225.309456L256.016444,224.174338L255.300538,224.120164L255.305917,222.023078L255.029210,222.045959L255.042986,224.649497L248.105148,224.658284L247.854421,224.726671L246.593586,225.532560L246.065939,224.734895L247.236177,224.357930L247.170592,224.139229L245.777447,224.571369L245.066262,223.246905L247.162685,223.024776L247.137129,222.858491L244.985450,223.049032L244.454960,221.707164L247.080968,221.698897L247.085587,221.483092L244.402566,221.464997L244.224541,220.687260L253.864598,220.653580L255.630273,219.552453L252.945239,215.463332L247.102662,205.639423L242.796167,198.300802L241.044843,192.677417L241.737929,192.415072L239.984540,187.616827L239.309695,187.867980L235.230317,176.785062L235.137676,174.148626L234.214074,174.155299L234.064901,171.675876L231.425415,171.679046L183.884000,171.733967Z " data-area="midtown" data-id="Kips Bay"/>
			<path id="Tudor City" d="M222.733622,124.717392L207.887527,124.861161L207.916198,140.910975L222.573149,140.914030L222.761781,130.407927L222.733622,124.717392Z " data-area="midtown" data-id="Tudor City"/>
			<path id="Sutton Place" d="M242.488287,41.252243L183.645300,41.157707L183.675297,51.968944L183.730021,73.053013L239.409656,73.116029L239.773036,68.498878L241.726471,61.053513L241.869827,54.352591L242.253350,44.121473L242.488287,41.252243Z " data-area="midtown" data-id="Sutton Place"/>
		</g>
	</defs>
	<metadata>
		<views>
			<view h="308.354651513" padding="0" w="300">
				<proj dist="1.6" id="satellite" lat0="40.750925" lon0="-73.9835" tilt="0" up="-29"/>
				<bbox h="1.54" w="1.51" x="999.25" y="999.23"/>
			</view>
		</views>
	</metadata>
	<rect width="300" height="308" style="fill:#bfd7e3;" />
	<g id="contour" fill="#ffffff" stroke="#000000" stroke-width="1">
		<path d="M64.932266,306.354652L65.937381,305.876997L66.161316,306.354652L300.000000,306.354652L300.000000,298.228722L298.955547,295.158428L293.748897,280.708978L293.977475,280.605753L291.808204,275.070984L289.838245,269.897969L288.808683,270.317659L288.138470,268.730522L288.583852,268.514208L286.262660,262.816147L282.794664,257.595439L279.346509,255.181019L276.266725,253.959163L271.856414,252.682398L268.609235,251.384147L266.973464,250.430066L264.681687,247.723328L258.434463,240.205034L258.663518,239.865075L259.018171,239.228216L259.061754,238.981810L258.872423,238.939645L258.661970,239.134426L258.393010,239.134234L257.592801,238.902944L257.182945,238.661276L256.876585,238.376472L248.579812,228.477713L247.956996,227.680279L253.527237,227.662347L253.523943,227.408032L254.038494,227.157421L254.324817,226.670849L254.335776,226.100915L254.218676,225.837869L253.889010,225.542933L253.691619,225.445196L253.659740,225.129135L255.313909,225.156204L255.316055,225.027039L255.823204,225.040929L255.820383,225.284068L255.971985,225.309456L256.016444,224.174338L255.300538,224.120164L255.305917,222.023078L255.029210,222.045959L255.042986,224.649497L248.105148,224.658284L247.854421,224.726671L246.593586,225.532560L246.065939,224.734895L247.236177,224.357930L247.170592,224.139229L245.777447,224.571369L245.066262,223.246905L247.162685,223.024776L247.137129,222.858491L244.985450,223.049032L244.454960,221.707164L247.080968,221.698897L247.085587,221.483092L244.402566,221.464997L244.224541,220.687260L253.864598,220.653580L255.630273,219.552453L252.945239,215.463332L247.102662,205.639423L242.796167,198.300802L241.044843,192.677417L241.737929,192.415072L239.984540,187.616827L239.309695,187.867980L235.230317,176.785062L235.137676,174.148626L234.214074,174.155299L234.064901,171.675876L234.063070,171.518328L234.041908,171.012265L233.967058,169.258857L233.939193,168.412354L234.942695,168.299578L234.768838,166.055722L233.842616,166.129989L233.819007,165.735533L232.857399,165.716206L232.767304,163.529666L235.398186,163.476002L235.485964,162.883964L232.739730,162.882055L232.635629,160.614809L233.592244,160.622714L233.487624,155.370291L233.674265,151.584764L234.322070,151.646136L235.450084,135.143275L234.584164,135.086821L234.866653,130.494321L235.692711,117.863077L237.992979,89.036470L239.379642,73.497379L239.772978,68.499616L239.773036,68.498878L241.726471,61.053513L241.869827,54.352591L242.253350,44.121473L242.488287,41.252243L242.488287,41.252243L242.488287,41.252243L242.488287,41.252243L244.375116,31.362152L247.668232,14.463101L249.630501,4.989988L250.061411,0.000000L23.706570,0.000000L23.720343,3.140691L21.245299,4.662454L21.302137,21.215828L23.073791,20.725710L23.454001,25.218999L22.211055,25.524290L22.210966,40.333515L8.714468,40.330337L8.561828,42.597605L15.958579,42.546422L15.956382,41.309886L20.579962,41.429357L20.593664,42.384746L22.881946,42.409865L22.910902,41.634691L23.578719,41.619869L23.555324,45.526173L7.948259,45.509253L7.941804,45.832578L10.661236,45.775063L10.624473,47.766304L16.283409,47.783127L16.265324,46.738010L22.583908,46.748370L22.576438,50.446051L9.205856,50.400005L9.215140,52.703059L22.587802,52.696753L22.579731,53.103165L23.413461,53.645742L23.380803,53.964347L22.578705,54.396049L22.601086,56.485766L18.916369,56.357698L18.843846,57.976444L22.606837,57.839161L22.637634,61.758557L21.794830,61.742599L21.793150,63.049644L22.637543,63.029591L22.671260,67.976603L7.372100,67.985381L7.371765,70.971022L22.747012,71.023152L22.779674,76.652585L7.343295,76.577936L7.317466,79.083626L27.930748,79.091098L27.983507,87.067440L7.391511,86.946648L7.378175,89.475860L27.989121,89.583785L28.027899,97.528795L7.349410,97.321936L7.386856,99.861331L28.162892,99.902251L28.244053,101.593556L28.044676,102.144458L27.453564,102.780349L27.283158,103.122344L27.455780,103.483873L27.847152,103.847015L28.642740,104.279867L28.669815,107.806896L8.924608,107.768891L8.932829,110.757458L28.670396,110.811286L28.527928,117.935017L22.688488,117.838823L7.670079,117.852702L7.684943,118.866935L8.064688,118.866371L8.055473,118.245580L9.072564,118.273117L9.101381,120.600245L22.703015,120.595296L22.722741,125.289424L8.834540,125.334801L8.821561,126.949460L22.738351,126.976517L22.742773,129.862873L22.749919,134.530210L8.728445,134.406631L8.692286,135.914850L22.752996,136.052668L22.744509,140.623923L22.743567,141.130781L20.564080,141.105638L20.581873,146.266681L20.522739,150.001916L22.772779,150.046459L22.803503,151.189553L20.032022,151.181573L20.039422,151.318274L19.048992,151.179314L18.978897,151.619127L20.055740,151.789605L20.062577,152.763782L22.828059,152.787013L22.818140,153.906824L20.947991,153.903040L20.977829,157.325111L8.540297,157.382913L8.529081,163.371384L21.007514,163.315769L20.970821,166.046469L24.007714,166.168815L24.077828,170.898189L22.769095,170.871127L22.876743,190.538408L22.082922,190.539879L22.091227,192.155002L22.894362,192.153498L22.894883,192.255395L22.905318,194.282562L22.121219,194.274338L22.090875,195.891188L22.879698,195.908612L26.124838,210.042595L24.024314,210.024042L24.022306,211.125726L17.166006,211.096544L17.167866,210.072756L16.352766,210.068595L16.351712,210.647008L16.668154,210.648622L16.666717,211.441054L23.771410,211.416030L26.451102,211.453499L26.686690,212.472260L21.384381,212.480649L21.385068,212.627917L23.243091,212.624976L23.244472,213.726962L26.902293,213.466480L30.094130,227.363144L28.402086,227.295387L28.619974,227.924655L21.415214,228.658310L21.488660,229.372977L28.831375,228.619697L30.454423,235.854189L24.297330,238.230438L25.454803,241.256104L37.145931,236.685828L38.719664,240.734931L27.008278,245.312803L28.123363,248.161681L39.831874,243.633023L41.413798,247.682674L29.706888,252.208834L30.819459,255.040331L42.317002,250.694124L43.899580,254.661599L32.358457,259.123601L33.556880,262.018970L34.733083,264.889344L35.567928,264.525833L35.529202,264.437099L34.885649,264.721520L33.818553,262.145224L36.845171,260.973317L37.807616,263.600049L37.022117,263.934652L37.064544,264.034064L38.799977,263.294779L38.756873,263.196938L38.101347,263.484171L37.055516,260.939387L40.055210,259.752399L41.118220,262.320359L40.232575,262.686805L40.285340,262.811832L42.033557,262.076236L41.986262,261.964155L41.303651,262.252459L40.276371,259.656851L42.921900,258.627350L43.930190,261.220844L43.297192,261.482740L43.357157,261.627714L44.862494,261.007002L44.814145,260.890079L44.150502,261.163246L43.133299,258.562258L45.061330,257.824645L45.820758,259.804524L49.348093,258.582436L50.485741,258.188757L51.646504,261.186416L53.003825,264.737069L50.245161,265.825123L51.020566,267.855447L37.690741,272.978846L38.833651,275.867297L52.112988,270.645483L52.984572,272.852201L55.697689,271.758591L56.560831,273.781009L58.330092,278.614149L57.471838,278.982449L58.532682,281.706057L45.165832,286.896837L45.883655,288.699277L60.129172,283.274889L61.546441,287.048775L52.339001,291.460316L46.059941,294.377722L46.605658,295.447188L52.342150,292.607301L53.736554,295.388359L49.623287,297.324231L51.015593,300.315962L55.103636,298.357316L56.583246,301.531951L62.453748,298.644573L64.992706,303.920160L62.040471,305.361984L62.485964,306.354652L64.932266,306.354652Z M264.770553,0.000000L264.753437,0.770827L265.408034,7.149192L265.126150,9.190889L264.297216,15.194841L263.278752,15.011578L262.899144,17.335269L263.403035,17.475036L262.516083,22.466469L261.386497,39.420807L261.535884,40.391962L258.261851,71.367020L257.720090,71.398704L257.638866,76.715474L259.135982,85.169812L258.189418,95.855945L259.028762,99.730352L258.978291,102.241001L259.438503,103.715566L260.082994,104.596335L260.885385,104.258690L261.745760,102.979593L261.780744,101.537185L261.951265,99.464065L262.832433,96.122436L264.860387,90.388440L265.710138,85.932251L265.318857,85.364195L268.187726,77.851609L269.943166,69.851019L271.861113,53.819091L272.358711,53.343641L274.036677,45.345044L275.649807,37.278098L276.289989,28.174585L275.425641,25.273890L275.965522,19.416491L277.308243,8.846172L279.196975,2.087243L279.356551,0.000000L264.770553,0.000000Z "/>
	</g>
	<use xlink:href="#neighs" class="neighBack" fill="#000000" fill-opacity="0" stroke="#000000" stroke-width="0.5"/>
	<g class="" fill="#c7deb3" id="parks" stroke="none">
		<path d="M165.589193,274.155095L171.465703,274.151279L176.888650,274.147702L173.903392,268.602318L173.910487,258.630968L165.520558,258.602047L165.589193,274.155095Z "/>
		<path d="M97.587339,0.000000L97.685956,41.144774L153.386087,41.077474L153.341187,0.000000L97.587339,0.000000Z "/>
		<path d="M133.208314,130.093811L133.374303,140.628194L153.547990,140.757705L153.528284,130.131903L133.208314,130.093811Z "/>
		<path d="M163.704425,228.493168L163.643308,218.037526L163.725581,212.822546L153.598033,212.784758L153.754558,218.052394L150.491535,217.955365L151.518207,221.269982L154.496939,222.808315L156.478062,228.475405L163.704425,228.493168Z "/>
	</g>
	<g class="" id="streets" stroke="#357087" stroke-width="3">
		<path d="M291.808204,275.070984L288.899961,274.599617L236.776809,274.103637L222.998214,274.250674L184.076466,274.241011L176.888650,274.147702L171.465703,274.151279L133.665563,274.174722L115.844041,274.110851L56.560831,273.781009 "/>
		<path d="M171.465703,274.151279L179.076947,295.617739L178.429954,306.354652 M165.520558,258.602047L161.130006,243.959938L156.478062,228.475405L154.496939,222.808315L151.518207,221.269982L150.491535,217.955365L148.536209,212.778841L140.698414,192.419442L132.420135,171.725722L118.574289,130.058614L115.704390,114.109608L112.321821,103.651810L111.194131,98.479658L110.186339,88.120312L109.347301,72.836767L107.543245,62.436164L101.476959,46.089817L97.685956,41.144774L93.836846,36.016160L79.826643,11.912969L73.428773,0.000000 "/>
		<path d="M153.776210,306.354652L153.815821,274.177806L153.751648,243.975001L153.710593,222.402217L153.754558,218.052394L153.598033,212.784758L153.669664,192.476888L153.604721,171.695817L153.547990,140.757705L153.528284,130.131903L153.498035,114.225915L153.393443,51.954088L153.386091,41.077479L153.348370,0.000000 "/>
		<path d="M93.657026,300.371385L98.047600,274.012505L97.940772,192.361264L97.913832,171.624056L97.868743,140.627183L97.824640,130.025685L97.764849,114.122686L97.703638,51.836823L97.685956,41.144774L97.587339,0.000000 "/>
		<path d="M44.437058,228.540582L98.002807,228.471939L133.530514,228.438401L156.478062,228.475405L163.704425,228.493168L173.848201,228.517942L183.925919,228.622378L222.967336,228.655624L244.252306,228.802281 "/>
		<path d="M26.478335,51.356882L44.364339,51.732813L62.123805,51.792082L97.703638,51.836823L153.393443,51.954088L183.675297,51.968944L238.739125,52.036575 "/>
		<path d="M24.642548,129.944274L80.053590,130.035915L97.824640,130.025685L118.574289,130.058614L133.208314,130.093811L153.528284,130.131903L163.486871,130.147396L183.841478,130.240658L207.897269,130.298713L222.761781,130.407927L227.310669,130.742391L230.689902,130.807523 "/>
		<path d="M231.425415,171.679046L183.884000,171.733967L163.639187,171.692526L153.604721,171.695817L132.420135,171.725722L97.913832,171.624056L80.067592,171.396793L27.084649,171.535605L25.295541,171.270796 "/>
	</g>
</svg>