<?xml version="1.0" encoding="UTF-8" standalone="no"?>
<svg id="svg2" stroke-linejoin="round" xmlns:rdf="http://www.w3.org/1999/02/22-rdf-syntax-ns#" xmlns="http://www.w3.org/2000/svg" pretty_print="False" height="691" viewBox="0 0 300 691" width="300" stroke="#000000" version="1.1" xmlns:cc="http://creativecommons.org/ns#" xmlns:dc="http://purl.org/dc/elements/1.1/" enable_background="new 0 0 300 718" fill="none">
 <defs id="defs4">
  <style id="style6" type="text/css"><![CDATA[path { fill-rule: evenodd; }]]></style>
   <g id="neighs" pointer-events="all" transform="matrix(1.1399 0 0 1.1399 -14.597 -121.34)">
    <path id="East Harlem" d="m218.88 707.52 32.715 0.21359-0.25836-1.0195 0.0785-3.859 1.4658-4.4498 7.1669-14.18 0.42219-4.9794 0.87922-10.215-0.6449-5.5636-1.2643-6.9764-0.20326-1.1795 5.2137-0.0354 0.002-1.1292-5.601-0.0161 0.00082-4.1955-0.013-8.8627 0.55714-1.9901 0.48536 0.14418 0.54492-1.8596-0.51882-0.13933 0.175-0.67633 3.612-10.777 8.5058-18.368 0.21325-0.92594-0.23572-8.5194-1.8385-5.8079-8.0714-15.761-2.3475-4.0485-3.3195-4.9916-0.96524 0.0349-7.3312-7.2958-2.2926-1.7448-0.28071-0.90521-5.3163-3.8367-8.4613-4.9965-15.778-7.7911-5.7922-4.715-5.0021-6.7695-2.5955-5.2833-5.0324-12.161-4.7605-9.8738-0.69499 0.36807-3.2147-6.5045 0.51605-0.269-2.8503-5.3798-5.8226-10.564 1.1373 89.04 0.0626 4.9169-8.7885 0.0145 0.0451 18.841 8.7362 0.056 0.0699 47.638 0.0636 19.39 0.047 38.104 3.0126-0.009 33.592-0.0993-0.0242 9.964z" data-area="upper manhattan" data-id="East Harlem"/>
    <path id="Washington Heights" d="m25.517 181.76 0.12635 0.63632-1.2722 0.0191-0.31763-1.531-0.44686 0.0939 0.38855 1.8801 1.5623-0.0468 0.08037 1.2126-0.86377 1.2016 0.54091 0.71507 0.82692-0.32025 0.55415 0.25187 0.91064 1.2641-1.4441 0.2489 0.15936 1.7304 0.22271-0.0227-0.08546-1.248 1.3177-0.22347 0.24382 0.50417 2.2353 5.5839 0.16769 1.6543-1.4796 0.22102 0.11919 0.85149 1.2172-0.15383 0.86258 12.996-0.43794 0.8574 0.70107 1.9474-0.50923 2.554 0.38722 1.5057-0.09578 4.0927-0.04576 7.5357-0.37489 12.164 0.53907 8.4768-0.005 14.554 0.13818 7.2444-0.55778 3.7304 0.56473 5.861 0.21484 2.8021 0.37353 4.8803 0.52834 4.1879-0.13329 8.9-0.2632 0.92168-0.12898 1.6979-1.1483 4.9098-1.5669 2.0919 0.14701 0.81175-0.84587 0.35233 0.21127 0.5261-0.34784 0.97855-1.0126-0.43064-0.5957 0.59916 0.13152 0.7215-1.6202 2.7318 0.30959 0.42251-0.84301 2.5746-1.9219 1.4879 0.51538 0.56589-0.11866 1.5693-0.52556 0.0768 0.09135-0.67973-0.9263-0.0212-0.09118 0.47249-0.38179 3.5162 0.10172 0.9196 0.33112 1.1277 0.81834 0.48946-0.14532 0.50011 2.7038 3.1118 2.2337 1.935 2.8554 4.8692 1.8036 4.5518 1.1272 2.447 2.4691 1.6615 2.1212 2.1025-0.2207 1.3327 3.4176 2.6273 0.20409 0.89066 2.73 3.4526 1.6455 3.1612 1.0383 7.193 0.22267 7.1447 0.82761 6.4921 1.4484 10.142 1.7435 8.3563 2.5921 10.168 1.4401 0.0126 0.18503 0.28172-0.77531 1.3009 0.83618 2.6399 1.0794 2.524 0.79194 3.2411 1.669 5.7402 1.7758-1.378 1.559-0.18289 3.1504 0.45608 3.319-0.30663 14.207 0.35352 32.141 0.0639 0.14588-0.67807-0.73925-2.9239-0.00012-0.00081-0.00005-0.00072 0.36202-4.6046-0.71826-4.1252-0.15718-1.3684-0.0769-1.375 0.0661-3.2998 0.19266-1.5961 5.0514-18.134 1.3964-5.3046-0.40246-2.4056 1.9164-0.0926-0.4653-2.2747-1.0165-7.3396-1.3218-12.423-2.101-19.91-0.41863-3.2903-0.29524-2.22-1.1109-4.7183-1.5405-6.8086-0.42098-3.1054-0.19497-3.4794-0.0912-3.5695-0.13396-8.3913-0.0125-0.49372-0.0383-0.60623-0.80762-58.53 0.0129-0.41444-12.904-22.311-0.78233 0.0229-39.346-27.333-0.96301-0.44662-4.6852-1.4969-4.4398-1.4607-4.2383-1.4796-4.5757-1.6105-8.1683-2.5471-6.4071-1.9866z" data-area="upper manhattan" data-id="Washington Heights"/>
    <path id="Inwood" d="m112.03 242.41 0.14929-3.5895 0.0669-1.1251-0.10364-0.009-0.0642-4.9588 0.45792-0.0168-0.0258-2.2775-0.96386 0.0227 0.0835 2.2887 0.16602-0.004 0.0769 4.9562-1.0779-1.6246-0.94232-1.7446-0.98932-1.7279 1.9459-4.8718-0.70281-0.92098 0.77916-2.3756 1.0071 0.48794 0.91379-1.7224-0.49231-3.1485-2.1144 0.21197-2.0568-2.1495-2.0978-1.3934-3.0982-0.19897-0.68856-1.2716-1.0856-4.5774 1.0195-1.4304 6.8467 4.3144 5.18 0.0964 0.58684-11.462 0.10429-12.182 1.2318-2.8066 1.1609-3.6054 0.33409-1.8095 0.22802-1.6124 0.63036 0.009 0.0291-1.7411-1.1162-1.0052-0.24959-1.7123 0.38507-1.2135-1.4238-1.8082-1.1846 0.35852-1.6707 1.2383-1.2056-1.5784 3.4771-2.8702 3.7568-0.0125-0.29349-1.2762-3.2281 0.17532 3.8392-3.3691 0.32792-13.524-1.0951-0.0115-0.73342-18.739-2.9217-0.0606 0.10802-1.3829 2.4144 0.004-0.4836-1.7306-3.4946-7.8668-0.11669-3.1784-2.6227-3.632-5.0746-3.3902-3.2914-1.0791-5.4654-0.39822-15.058 2.5338-4.1547 2.1473-2.1399 2.6666-1.2734 1.9557-1.415 2.4106-0.1776-4.2289-0.4301 0.0238 0.13361 5.172-0.89431 2.5859 1.4915 1.8955-0.41677 0.35944-3.4337-0.14301-1.8765-1.5534-0.89302-2.3974 0.04236-2.4715 0.19689-0.87015-9.4718-0.12727-2.264 0.39776-0.19762 2.0972 1.3551 1.1557 1.9327 1.2793 1.0048 0.87534 3.6208 1.3861 1.6549 0.43887 1.2948 2.4126-1.3268 3.6307-2.4998 1.0988-3.021-0.0648-2.9245-0.77062-2.6659-1.4338-2.7456-2.6005-1.5788-2.5866-1.1801-4.2944-1.4285-3.2153-1.7465-3.3328-1.0941-0.3196-4.5378-0.43556-3.2526 1.4052-4.6098 2.1462-0.27492 1.0292-1.1519 1.7839-1.6835 1.2915-1.2421 0.52703-1.2952-0.3482-0.39041-0.89881 0.20562-0.84454-0.29626-0.59204-0.93808-0.1293-0.56933 3.5802-1.1306 4.4259-1.7874 1.9523-1.5567 7.1969 0.08643 3.2867 0.43062 6.3371 0.44754 9.222 0.15804 1.937 0.12389 4.0738 0.04637 1.676 0.69342 3.5548 0.09017 3.3609 1.1594 3.4604 0.85956 3.1752 0.83306 1.4267 1.0336 0.51889 0.37348 0.53373 0.11466 0.61713 6.4071 1.9866 8.1683 2.5471 4.5757 1.6105 4.2383 1.4796 4.4398 1.4607 4.6852 1.4969 0.96301 0.44662 39.346 27.333 0.78233-0.0229 12.904 22.311z" data-area="upper manhattan" data-id="Inwood"/>
    <path id="Hudson Heights" d="m43.265 340.52 31.73 0.0363-6.5974-24.23 2.7609-13.542 0.016-1.4571-3.8587-27.662-2.8125-10.736-0.68113-5.0457-2.1195-17.451-0.54033-2.3836-4.5454 0.82527 1.1597 10.279-5.3805 0.3794-1.13-4.7494-4.7297 0.91773-1.3662 0.94168-1.2714 4.8782 0.42993 6.3345 0.30375 4.8019-5.8881 0.0814-1.1872 19.326 1.1788 8.4042 0.09636 8.5782-1.6587 12.592 0.5449 4.1805 3.6102 10.494 1.9367 14.206z" data-area="upper manhattan" data-id="Hudson Heights"/>
    <path id="Fort George" d="m112.86 301.96-0.0383-0.60623-0.80762-58.53 0.0129-0.41444-12.904-22.311-0.78233 0.0229-39.346-27.333-2.1566 4.5321-2.3016 4.2287-1.2631 7.3155 0.4461 2.6763 3.0139 4.6138 1.4613 2.7855 0.76329 5.339 0.59624 5.2208 0.07608 1.803 0.74094 3.6961 0.79015 3.0483 0.54033 2.3836 2.1195 17.451 0.68113 5.0457 2.8125 10.736 3.8587 27.662 41.686 0.63308z" data-area="upper manhattan" data-id="Fort George"/>
    <path id="West Harlem" d="m105.52 578.1 17.694 0.14279 0.019-3.0345 0.17771-1.7082-0.0166-5.0289-0.0255-5.0711 1.4999-9.3316 0.73354-9.5974-0.0498-6.8842-0.81844-6.8379-1.6215-9.7916-4.8098-28.46 5.2458-0.002 2.1086-19.065-5.2264-0.0107-0.11339-42.377-0.0763-0.41583-0.11324-0.40739-0.14932-0.39565-0.18417-0.38071-0.21754-0.36269-0.24914-0.34172-0.27872-0.31799-0.30605-0.29168-0.33089-0.263-0.35306-0.2322-0.0965-0.0961-0.0851-0.10633-0.0727-0.1152-0.0593-0.12263-0.0385-0.22834-0.002-0.23146 0.0342-0.22879 0.0698-0.22042 0.1036-0.20654 0.13481-0.18751-3.0964 0.0002-32.141-0.0639-14.207-0.35352-3.319 0.30663-3.1504-0.45608-1.559 0.18289-1.7758 1.378-0.05141 2.653 0.1681 5.5593 0.31721 1.2032 0.62087 3.1323 0.17325 12.118 0.21457 6.8588 0.48442 7.1808 0.05344 3.816-0.22211 1.8079-0.02957 3.7646-0.85676 0.0474 0.12112 3.7228-6.6018 0.22926 0.0022-0.20312 0.000385-0.032-0.64653 0.0354 0.26041 6.9383-1.72 0.0763 0.78857 19.234-0.11292 0.004 0.23248 5.9534 0.1246-0.003 0.06896 0.24461 0.0098 0.0126 0.02654 0.0286 0.05233 0.0448 0.06266 0.0415 0.17018 0.0813 0.03797 0.0135 0.04058 0.0103 0.09019 0.0113 0.10282-0.00052 0.14114-0.0126 1.4434-0.0243 0.09882 0.00026 5.8108 0.0171 0.03864 0.71855 0.01344 0.24973 1.6186-0.0445-0.07099 1.2626 0.01214 0.59571 0.06954 0.5093 0.41688 1.0823-0.02411 3.311-0.70801-0.0628-2.43-2.4119-0.26962-0.18989-0.33021-0.0859-0.75095 0.00098-0.0058-1.2758-3.8432 0.005 0.01445 3.171 3.8606-0.005-0.02726-1.2462 0.63441-0.0119 0.2733 0.11833 2.7568 2.7383-0.10285 1.8293 0.69549-0.004-0.18314 2.4452-0.85822-0.0619 0.12635-1.8406-0.67829-0.0565-0.19977 2.5044 1.5396 0.11821-0.19152 6.299-1.0716-0.045-1.5166 17.586 14.567 0.55792 9.0734 4.5478 16.391 8.5675-0.05437 20.542 4.8967 0.0898 1.6039 0.69901-0.0408-5.5574z" data-area="upper manhattan" data-id="West Harlem"/>
    <path id="Hamilton Heights" d="m123.11 520.96-4.8098-28.46 5.2458-0.002 2.1086-19.065-5.2264-0.0107-0.11339-42.377-0.0763-0.41583-0.11324-0.40739-0.14932-0.39565-0.18417-0.38071-0.21754-0.36269-0.24914-0.34172-0.27872-0.31799-0.30605-0.29168-0.33089-0.263-0.35306-0.2322-0.0965-0.0961-0.0851-0.10633-0.0727-0.1152-0.0593-0.12263-0.0385-0.22834-0.002-0.23146 0.0342-0.22879 0.0698-0.22042 0.1036-0.20654 0.13481-0.18751-3.0964 0.0002-32.141-0.0639-14.207-0.35352-3.319 0.30663-3.1504-0.45608-1.559 0.18289-1.7758 1.378-0.05141 2.653 0.1681 5.5593 0.31721 1.2032 0.62087 3.1323 0.17325 12.118 0.21457 6.8588 0.48442 7.1808 0.05344 3.816-0.22211 1.8079-0.02957 3.7646-0.85676 0.0474 0.12112 3.7228-6.6018 0.22926 0.0022-0.20312 0.000385-0.032-0.64653 0.0354 0.26041 6.9383-1.72 0.0763 0.78857 19.234-0.11292 0.004 0.23248 5.9534 0.1246-0.003 0.06896 0.24461 0.0098 0.0126 0.02654 0.0286 0.05233 0.0448 0.06266 0.0415 0.17018 0.0813 0.03797 0.0135 0.04058 0.0103 0.09019 0.0113 0.10282-0.00052 0.14114-0.0126 1.4434-0.0243 0.09882 0.00026 5.8108 0.0171 0.03864 0.71855 0.01344 0.24973 1.6186-0.0445-0.07099 1.2626 0.01214 0.59571 0.06954 0.5093 0.41688 1.0823-0.02411 3.311-0.70801-0.0628-2.43-2.4119-0.26962-0.18989-0.33021-0.0859-0.75095 0.00098-0.0058-1.2758-3.8432 0.005 0.01445 3.171 3.8606-0.005-0.02726-1.2462 0.63441-0.0119 0.2733 0.11833 2.7568 2.7383-0.04741 0.84329 21.32 0.0378 30.234 0.14816 10.082 0.049z" data-area="upper manhattan" data-id="Hamilton Heights"/>
    <path id="Central Harlem" d="m105.56 583.66 0.84963 0.70301 0.60341 1.0156 0.21455 0.71969 0.90566 6.4724 0.67221 24.109 6.3047 23.704 16.411 0.0139 50.675-0.22813-0.0699-47.638-8.7362-0.056-0.0451-18.841 8.7885-0.0145-0.0626-4.9169-1.1373-89.04-3.3166-5.7184-0.44539-0.76402-0.72807-1.3128-0.64981 0.28633-2.2636-3.7618-16.786-26.989-6.426-9.9841 0.23769-0.17527-3.2387-4.665 0.0611-0.0663-0.55146-0.74799-0.44827-0.61138-0.0896 0.0629-1.0522-1.6409-2.5628-3.8984-7.2369-9.963-2.5152-3.6858-0.87751-1.3026 0.0796-0.0384-1.5067-2.3489-0.0572 0.0485-1.7949-2.8445 0.15364-0.0882-3.0977-6.1548-3.4589-7.8923-0.44279-2.4455 0.0668-2.977-1.9164 0.0926 0.40246 2.4056-1.3964 5.3046-5.0514 18.134-0.19266 1.5961-0.0661 3.2998 0.0769 1.375 0.15718 1.3684 0.71826 4.1252-0.36202 4.6046 0.00005 0.00072 0.00012 0.00081 0.73925 2.9239-0.14588 0.67807 3.0964-0.0002-0.13481 0.18751-0.1036 0.20654-0.0698 0.22042-0.0342 0.22879 0.002 0.23146 0.0385 0.22834 0.0593 0.12263 0.0727 0.1152 0.0851 0.10633 0.0965 0.0961 0.35306 0.2322 0.33089 0.263 0.30605 0.29168 0.27872 0.31799 0.24914 0.34172 0.21754 0.36269 0.18417 0.38071 0.14932 0.39565 0.11324 0.40739 0.0763 0.41583 0.11339 42.377 5.2264 0.0107-2.1086 19.065-5.2458 0.002 4.8098 28.46 1.6215 9.7916 0.81844 6.8379 0.0498 6.8842-0.73354 9.5974-1.4999 9.3316 0.0255 5.0711 0.0166 5.0289-0.17771 1.7082-0.019 3.0345-17.694-0.14279 0.0408 5.5574z" data-area="upper manhattan" data-id="Central Harlem"/>
  </g>
 </defs>
 <metadata id="metadata8">
  <views>
   <view padding="0" h="718.972177415" w="300">
    <proj id="satellite" dist="1.6" lat0="40.8367759383" tilt="0" up="-29" lon0="-73.9274135445"/>
    <bbox y="998.02" h="3.97" w="1.66" x="999.17"/>
   </view>
  </views>
  <rdf:RDF>
   <cc:Work rdf:about="">
    <dc:format>image/svg+xml</dc:format>
    <dc:type rdf:resource="http://purl.org/dc/dcmitype/StillImage"/>
    <dc:title/>
   </cc:Work>
  </rdf:RDF>
 </metadata>
 <rect width="300" height="691" style="fill:#bfd7e3;stroke:none" />
 <g id="contour" transform="matrix(1.1399 0 0 1.1399 -14.597 -121.34)" fill="#ffffff" stroke="#000000" stroke-width="1">
  <path id="path14" fill-rule="evenodd" d="m255.24 716.97-0.10255-0.12485-0.86733-1.4636-2.5661-7.0158-0.10777-0.63418-0.25836-1.0195 0.0785-3.859 1.4658-4.4498 7.1669-14.18 0.42219-4.9794 0.87922-10.215-0.6449-5.5636-1.2643-6.9764-0.20326-1.1795 5.2137-0.0354 0.002-1.1292-5.601-0.0161 0.00082-4.1955-0.013-8.8627 0.55714-1.9901 0.48536 0.14418 0.54492-1.8596-0.51882-0.13933 0.175-0.67633 3.612-10.777 8.5058-18.368 0.21325-0.92594-0.23572-8.5194-1.8385-5.8079-8.0714-15.761-2.3475-4.0485-3.3195-4.9916-0.96524 0.0349-7.3312-7.2958-2.2926-1.7448-0.28071-0.90521-5.3163-3.8367-8.4613-4.9965-15.778-7.7911-5.7922-4.715-5.0021-6.7695-2.5955-5.2833-5.0324-12.161-4.7605-9.8738-0.69499 0.36807-3.2147-6.5045 0.51605-0.269-2.8503-5.3798-5.8226-10.564-3.3166-5.7184-0.44539-0.76402-0.72807-1.3128-0.64981 0.28633-2.2636-3.7618-16.786-26.989-6.426-9.9841 0.23769-0.17527-3.2387-4.665 0.0611-0.0663-0.55146-0.74799-0.44827-0.61138-0.0896 0.0629-1.0522-1.6409-2.5628-3.8984-7.2369-9.963-2.5152-3.6858-0.87751-1.3026 0.0796-0.0384-1.5067-2.3489-0.0572 0.0485-1.7949-2.8445 0.15364-0.0882-3.0977-6.1548-3.4589-7.8923-0.44279-2.4455 0.0668-2.977-0.4653-2.2747-1.0165-7.3396-1.3218-12.423-2.101-19.91-0.41863-3.2903-0.29524-2.22-1.1109-4.7183-1.5405-6.8086-0.42098-3.1054-0.19497-3.4794-0.0912-3.5695-0.13396-8.3913-0.0125-0.49372-0.02-0.31671-0.0183-0.28952-0.80762-58.53 0.0129-0.41444 0.14929-3.5895 0.0669-1.1251-0.10364-0.009-0.0642-4.9588 0.45792-0.0168-0.0258-2.2775-0.96386 0.0227 0.0835 2.2887 0.16602-0.004 0.0769 4.9562-1.0779-1.6246-0.94232-1.7446-0.98932-1.7279 1.9459-4.8718-0.70281-0.92098 0.77916-2.3756 1.0071 0.48794 0.91379-1.7224-0.49231-3.1485-2.1144 0.21197-2.0568-2.1495-2.0978-1.3934-3.0982-0.19897-0.68856-1.2716-1.0856-4.5774 1.0195-1.4304 6.8467 4.3144 5.18 0.0964 0.58684-11.462 0.10429-12.182 1.2318-2.8066 1.1609-3.6054 0.33409-1.8095 0.22802-1.6124 0.63036 0.009 0.0291-1.7411-1.1162-1.0052-0.24959-1.7123 0.38507-1.2135-1.4238-1.8082-1.1846 0.35852-1.6707 1.2383-1.2056-1.5784 3.4771-2.8702 3.7568-0.0125-0.29349-1.2762-3.2281 0.17532 3.8392-3.3691 0.32792-13.524-1.0951-0.0115-0.73342-18.739-2.9217-0.0606 0.10802-1.3829 2.4144 0.004-0.4836-1.7306-3.4946-7.8668-0.11669-3.1784-2.6227-3.632-5.0746-3.3902-3.2914-1.0791-5.4654-0.39822-15.058 2.5338-4.1547 2.1473-2.1399 2.6666-1.2734 1.9557-1.415 2.4106-0.1776-4.2289-0.4301 0.0238 0.13361 5.172-0.89431 2.5859 1.4915 1.8955-0.41677 0.35944-3.4337-0.14301-1.8765-1.5534-0.89302-2.3974 0.04236-2.4715 0.19689-0.87015-9.4718-0.12727-2.264 0.39776-0.19762 2.0972 1.3551 1.1557 1.9327 1.2793 1.0048 0.87534 3.6208 1.3861 1.6549 0.43887 1.2948 2.4126-1.3268 3.6307-2.4998 1.0988-3.021-0.0648-2.9245-0.77062-2.6659-1.4338-2.7456-2.6005-1.5788-2.5866-1.1801-4.2944-1.4285-3.2153-1.7465-3.3328-1.0941-0.3196-4.5378-0.43556-3.2526 1.4052-4.6098 2.1462-0.27492 1.0292-1.1519 1.7839-1.6835 1.2915-1.2421 0.52703-1.2952-0.3482-0.39041-0.89881 0.20562-0.84454-0.29626-0.59204-0.93808-0.1293-0.56933 3.5802-1.1306 4.4259-1.7874 1.9523-1.5567 7.1969 0.08643 3.2867 0.43062 6.3371 0.44754 9.222 0.15804 1.937 0.12389 4.0738 0.04637 1.676 0.69342 3.5548 0.09017 3.3609 1.1594 3.4604 0.85956 3.1752 0.83306 1.4267 1.0336 0.51889 0.37348 0.53373 0.11466 0.61713 0.12635 0.63632-1.2722 0.0191-0.31763-1.531-0.44686 0.0939 0.38855 1.8801 1.5623-0.0468 0.08037 1.2126-0.86377 1.2016 0.54091 0.71507 0.82692-0.32025 0.55415 0.25187 0.91064 1.2641-1.4441 0.2489 0.15936 1.7304 0.22271-0.0227-0.08546-1.248 1.3177-0.22347 0.24382 0.50417 2.2353 5.5839 0.16769 1.6543-1.4796 0.22102 0.11919 0.85149 1.2172-0.15383 0.86258 12.996-0.43794 0.8574 0.70107 1.9474-0.50923 2.554 0.38722 1.5057-0.09578 4.0927-0.04576 7.5357-0.37489 12.164 0.53907 8.4768-0.005 14.554 0.13818 7.2444-0.55778 3.7304 0.56473 5.861 0.21484 2.8021 0.37353 4.8803 0.52834 4.1879-0.13329 8.9-0.2632 0.92168-0.12898 1.6979-1.1483 4.9098-1.5669 2.0919 0.14701 0.81175-0.84587 0.35233 0.21127 0.5261-0.34784 0.97855-1.0126-0.43064-0.5957 0.59916 0.13152 0.7215-1.6202 2.7318 0.30959 0.42251-0.84301 2.5746-1.9219 1.4879 0.51538 0.56589-0.11866 1.5693-0.52556 0.0768 0.09135-0.67973-0.9263-0.0212-0.09118 0.47249-0.38179 3.5162 0.10172 0.9196 0.33112 1.1277 0.81834 0.48946-0.14532 0.50011 2.7038 3.1118 2.2337 1.935 2.8554 4.8692 1.8036 4.5518 1.1272 2.447 2.4691 1.6615 2.1212 2.1025-0.2207 1.3327 3.4176 2.6273 0.20409 0.89066 2.73 3.4526 1.6455 3.1612 1.0383 7.193 0.22267 7.1447 0.82761 6.4921 1.4484 10.142 1.7435 8.3563 2.5921 10.168 1.4401 0.0126 0.18503 0.28172-0.77531 1.3009 0.83618 2.6399 1.0794 2.524 0.79194 3.2411 1.669 5.7402-0.05141 2.653 0.1681 5.5593 0.31721 1.2032 0.62087 3.1323 0.17325 12.118 0.21457 6.8588 0.48442 7.1808 0.05344 3.816-0.22211 1.8079-0.02957 3.7646-0.85676 0.0474 0.12112 3.7228-6.6018 0.22926 0.0022-0.20312 0.000385-0.032-0.64653 0.0354 0.26041 6.9383-1.72 0.0763 0.78857 19.234-0.11292 0.004 0.23248 5.9534 0.1246-0.003 0.06896 0.24461 0.0098 0.0126 0.02654 0.0286 0.05233 0.0448 0.06266 0.0415 0.17018 0.0813 0.03797 0.0135 0.04058 0.0103 0.09019 0.0113 0.10282-0.00052 0.14114-0.0126 1.4434-0.0243 0.09882 0.00026 5.8108 0.0171 0.03864 0.71855 0.01344 0.24973 1.6186-0.0445-0.07099 1.2626 0.01214 0.59571 0.06954 0.5093 0.41688 1.0823-0.02411 3.311-0.70801-0.0628-2.43-2.4119-0.26962-0.18989-0.33021-0.0859-0.75095 0.00098-0.0058-1.2758-3.8432 0.005 0.01445 3.171 3.8606-0.005-0.02726-1.2462 0.63441-0.0119 0.2733 0.11833 2.7568 2.7383-0.10285 1.8293 0.69549-0.004-0.18314 2.4452-0.85822-0.0619 0.12635-1.8406-0.67829-0.0565-0.19977 2.5044 1.5396 0.11821-0.19152 6.299-1.0716-0.045-1.5166 17.586-0.71871 6.2762-0.80023 5.5788-0.30063 7.0152 0.9299 35.13 0.88558 19.141-0.33258 18.718 1.2123 76.457h195.29zm26.636-11.612-0.73345-1.2919-0.38698-1.5385-0.90899-0.46536-0.77231 0.85098-0.91484 2.8955 0.85882 2.3887 0.90823 0.63391-0.54791 4.0359-0.57327 0.57849-0.26777 2.058 0.99506 0.29786 0.65234-1.2785 0.79275-4.9848 1.1819-0.0805 2.3207-2.0026 0.49264-1.0982-1.9034-2.9489-0.76172 0.19599 0.81739 1.4242-1.2491 0.32977zm18.12-149.23l-0.0599 0.00049-7.0718-4.3371-2.0752-1.677-4.5634-2.3538-4.3074-0.36014-7.8772 3.4899-4.8291 2.8976-0.39715 3.2561 0.11344 6.6536-2.2211-0.14717-0.0957 1.4711 0.27163-0.0337 0.0625-0.97179 1.9625 0.0846-0.14297 1.6166 1.0602 0.0494-0.0658 1.0308-2.8997-0.0677 0.008-1.0343-0.27327-0.004-0.0348 1.3014 3.1824 0.0825-0.12611 0.90373-0.0549 0.39332 1.6252 7.1232 1.6072 5.0826 1.472 2.2796 1.669 1.35-1.5218 1.6602 0.41515 0.3828 1.7947-1.8407 0.65183 0.58334 2.2992 2.4446 1.7234 2.4709 1.7311 3.4669 1.0195 3.6293 0.9319 4.3006 0.11429 10.145 0.71596 1.4456 1.9873 2.8622 3.0787 0.77853 3.1114-1.2129-0.62787 6.6402 0.35933 0.64357 0.59325-0.0493 0.89927-0.66302 0.67834-0.62783 1.0982-0.7435 1.327-0.53984 1.3748-1.0131-0.0936-1.6384-0.75541-1.5054-0.66496-0.81718-1.9952-0.17838-0.64923-0.84587 4.4646-1.8523v-56.006zm0 64.748-1.4514 0.48445-5.1108 2.5725-2.7257 0.43338-0.46851 0.43529-5.7125-0.006-3.6669 4.8455-1.1267 4.4699-0.83228 6.3663-0.79352 0.24472 0.44886 3.8896 3.4366 3.4606-0.40347 22.637-3.1182 6.68 2.4729 5.1189 7.1479 3.0646 11.904-3.4924v-61.204zm0-8.2174-3.2061 1.3506 0.17454 0.46996 1.9425-0.28127 0.56453 0.95046 0.52453 0.59247z"/>
 </g>
 <use xlink:href="#neighs" class="neighBack" fill="#000000" fill-opacity="0" stroke="#000000" stroke-width="0.4"/>
 <g id="parks" fill-rule="evenodd" transform="matrix(1.1399 0 0 1.1399 -14.597 -121.34)" fill="#c7deb3" stroke="none">
  <path id="path17" d="m182.27 716.97-0.0322-9.5817 0.0687-9.7262-0.047-38.104-0.0636-19.39-2.9553-0.0436-14.959-0.0652-0.48122 0.021-0.39512 0.0143-1.3491-0.0209-13.638-0.0271-0.30271-0.00065-0.40159-0.00079-0.43955 0.003-14.199-0.007-1.553 0.35526-0.004 1.6346-0.008 2.9167-0.003 4.6911 0.0162 4.7472 0.0182 5.0966-0.0115 5.0321 0.0163 4.7179-0.007 4.7158 0.012 4.7333-0.005 4.71 0.019 4.8747-0.0446 8.9422 0.0482 4.8583 0.005 5.2359 0.005 5.0534 0.0241 4.6141h50.669z"/>
  <path id="path19" d="m115.11 640.38 8.0484 0.003 0.0207-14.365-6.9616-11.931-0.9626-2.5889-0.0671-33.321-9.6686-0.0781 0.0408 5.5574 0.84963 0.70301 0.60341 1.0156 0.21455 0.71969 0.90566 6.4724 0.67221 24.109 6.3047 23.704z"/>
  <path id="path21" d="m44.632 262.66-0.30375-4.8019-0.42993-6.3345 1.2714-4.8782 1.3662-0.94168 4.7297-0.91773 1.13 4.7494 5.3805-0.3794-1.1597-10.279 4.5454-0.82527-0.79015-3.0483-0.74094-3.6961-0.07608-1.803-0.59624-5.2208-0.76329-5.339-1.4613-2.7855-3.0139-4.6138-0.4461-2.6763 1.2631-7.3155 4.4581-8.7608-4.9819 1.9575-7.5549 1.7153-7.4088-1.8975-2.6301-0.0693-2.447 1.7632-1.3556 4.0076-1.4729 9.0144-0.43794 0.8574 0.70107 1.9474-0.50923 2.554 0.38722 1.5057-0.09578 4.0927-0.04576 7.5357-0.37489 12.164 0.53907 8.4768-0.005 14.554 7.4415-0.22986 5.8881-0.0814z"/>
  <path id="path23" d="m182.12 592.53 9.0926 0.10176-0.24905-18.95-8.8364-0.0632-8.7885 0.0145 0.0451 18.841 8.7362 0.056z"/>
  <path id="path25" d="m124.86 554.07 0.73354-9.5974-0.0498-6.8842-0.81844-6.8379-1.6215-9.7916-4.8098-28.46-11.483-0.16038 0.0269 4.7261 3.5652 0.0568 4.8682 4.6944 0.0846 8.8171-0.54608 2.629-1.7538 4.0637-0.0345 3.5841 0.56112 3.6926 1.9174 3.4877 3.3432 2.4444 1.1301 2.175-0.0681 2.482 0.0571 18.817 4.8979 0.0619z"/>
 </g>
 <g id="streets" fill-rule="evenodd" transform="matrix(1.1399 0 0 1.1399 -14.597 -121.34)" stroke="#357087" stroke-width="3">
  <path id="path37" d="m91.004 716.97 0.01875-4.7154 0.02134-5.1129 0.07967-19.148-0.75562-18.886-1.3933-4.8267-4.4532-10.007-1.5779-4.716 0.09058-9.2248-0.31418-86.574 0.07236-32.999-0.10722-14.221-0.01949-14.299-0.08111-19.005 0.22109-47.409-0.36445-67.633-4.144-8.5872-3.3026-9.0533-6.5974-24.23 2.7609-13.542 0.016-1.4571-3.8587-27.662-2.8125-10.736-0.68113-5.0457-2.1195-17.451-0.54033-2.3836-0.79015-3.0483-0.74094-3.6961-0.07608-1.803-0.59624-5.2208-0.76329-5.339-1.4613-2.7855-3.0139-4.6138-0.4461-2.6763 1.2631-7.3155 2.3016-4.2287 2.1566-4.5321 19.517-26.934 5.1708-6.0256 5.1268-7.0544 5.8083-11.206 8.0065-30.794"/>
  <path id="path39" d="m182.27 716.97-0.0322-9.5817 0.0687-9.7262-0.047-38.104-0.0636-19.39-0.0699-47.638"/>
  <path id="path41" d="m131.58 716.97-0.0235-28.704-0.0428-47.87-0.11179-71.952-0.15645-95.03-0.082-47.503-0.0402-22.774"/>
  <path id="path43" d="m72.61 707.15 18.434-0.002 40.534 0.12713"/>
  <path id="path45" d="m182.23 707.39 3.0943 0.005 33.554 0.12444 30.997 0.20241"/>
  <path id="path47" d="m182.19 640.17-50.675 0.22814-8.3627-0.0105-8.0502-0.0103-32.046-0.0422-7.655 0.0565"/>
  <path id="path49" d="m246.36 568.55-64.295 0.14956-50.661-0.25726-8.0163 0.0275-13.123-0.15365-11.157-5.9912-16.391-8.5675"/>
  <path id="path51" d="m177.17 473.18-3.0776 0.58157-42.841-0.34664-5.597 0.0174-5.2264-0.0107-37.842-0.18418-12.05 0.0661-5.9689 3.8952-3.2361 3.088"/>
  <path id="path53" d="m146.82 425.76-3.5184 0.15313-12.137-0.005-13.125-0.0194-3.0964 0.0002-32.141-0.0639-14.207-0.35352-1.8771-0.93714"/>
  <path id="path55" d="m112.86 301.96-41.686-0.63308-22.116 3.555-5.0648 2.8653-4.6528-1.013"/>
  <path id="path57" d="m98.34 220.12-39.346-27.333-0.96301-0.44662-4.6852-1.4969-4.4398-1.4607-4.2383-1.4796-4.5757-1.6105-8.1683-2.5471-2.6549-0.82318"/>
 </g>
</svg>
