<?xml version="1.0" encoding="UTF-8" standalone="no"?>
<svg enable_background="new 0 0 300 399" fill="none" height="460.7" id="svg2" pretty_print="False" stroke="#000000" stroke-linejoin="round" version="1.1" viewBox="0 0 300.00024 460.65985" width="300" xmlns="http://www.w3.org/2000/svg" xmlns:cc="http://creativecommons.org/ns#" xmlns:dc="http://purl.org/dc/elements/1.1/" xmlns:rdf="http://www.w3.org/1999/02/22-rdf-syntax-ns#" xmlns:xlink="http://www.w3.org/1999/xlink">
  <defs id="defs4">
    <style id="style6" type="text/css"><![CDATA[path { fill-rule: evenodd; }]]></style>
    <g id="neighs" transform="matrix(1.155 0 0 1.155 -47.16 .5776)" pointer-events="all">
      <path id="Upper West Side" d="m122.6 96.77-47.1-0.04182-23.6 0.1841 2.275 139.8-5.135 2.62-0.1785 1.045 0.4293 0.204 0.1836-1.148 4.708-2.351 0.06216 2.912 0.01792 0.8394-0.6268 0.0114-0.0078 0.2381-2.834 0.005-0.000469-0.3442-0.2576-0.0005 0.0011 0.8271 0.266 0.00051-0.000453-0.3361 2.817-0.002 0.02226 0.2924 0.6351-0.0265 0.09926 3.649-4.815-2.031-0.2305-1.117-0.4583 0.1807 0.209 0.7382-1.214 7.32 0.2611 0.006 1.084-7.009 5.174 2.295 1.28 36.73 0.7481 1.554 0.4649 0.306-10.32 6.619 0.0032 1.314 10.96-7.092 0.0644 15.49-2.187 1.344 0.04689 14.63 1.566-0.4327 0.3351 3.971-1.098 0.2695-0.0031 13.09 3.656 0.5127 47.32 0.0753-0.0256-4.52 12.34 0.1311 3.4 4.533-0.1089-50.23-0.011-9.555-0.1611-131-0.0607-46.51z" data-area="uptown" data-id="Upper West Side"/>
      <path id="Roosevelt Island" d="m289.3 234.3 1.746-3.649-0.3075-3.46 0.1804-4.363-0.5655-2.281-0.7337-1.606-2.137-3.081-1.839-3.271-0.4031-1.698-0.1279-1.953-0.5343-0.3151-0.5373 0.0564-0.3646 0.2889-0.2168 2.547-0.5917 2.095-1.844 1.485-2.348 3.304-0.8778 2.915-0.1086 2.183-0.3404 3.241-2.693 10.29 0.2402 4.739 0.6954 2.131-0.548 0.6036-0.8832-0.0178 0.0655 0.7574 0.828 0.0381-0.0116 1.129-0.5486 2.178-1.181 29.46-1.83 5.522-0.2445 3.579-0.5077 4.682-0.1477 6.585 0.5772 5.636-0.2495 1.804-0.7337 5.305-0.9-0.1622-0.3359 2.053 0.4452 0.1236-0.7848 4.411-1.002 14.98 0.1318 0.8582-2.899 27.37-0.4787 0.0279-0.0729 4.698 1.321 7.471-0.8386 9.443 0.7409 3.424-0.0451 2.219 0.4064 1.303 0.5693 0.7784 0.7091-0.2982 0.7605-1.13 0.0312-1.275 0.1511-1.832 0.7793-2.953 1.793-5.067 0.7518-3.938-0.3456-0.502 2.537-6.638 1.553-7.069 1.698-14.17 0.4398-0.42 1.484-7.068 1.427-7.128 0.5675-8.044-0.7632-2.563 0.4782-5.176 1.189-9.34 1.67-5.972 3.081-40.18 0.003-6.138 0.009-4.06 0.7022-8.285 2.157-6.619zm-20.6-74.52-0.7131-1.255-0.3766-1.494-0.8833-0.4517-0.75 0.827-0.8876 2.813 0.8353 2.32 0.8826 0.6155-0.5307 3.921-0.5567 0.5622-0.2593 1.999 0.9668 0.289 0.6332-1.242 0.7682-4.843 1.148-0.0787 2.254-1.946 0.4782-1.067-1.85-2.864-0.7399 0.1907 0.7947 1.383-1.213 0.3209z" data-area="uptown" data-id="Roosevelt Island"/>
      <path id="Upper East Side" d="m207.5 161.9-32.6-0.1075-3.006-0.004 0.1752 46.5 0.0139 23.6 0.0169 19.03 0.0584 83.09 26.74 0.077 52 0.0954 1.669-8.739 2.913-14.93 1.736-8.371 0.7854-9.071 0.7928-9.09 0.8186-9.329 1.002-9.701 0.2826-9.297-0.0127-4.218 0.4831-4.346 0.6374-5.854 0.9674-8.546 1.248-5.608 1.172-5.22 0.9056-7.51 0.521-5.254 0.2868-3.551-0.2311-3.83-0.7829-3.271 0.2645-3.49-2.568-3.918-1.977-0.7045-6.731-6.838 0.0362-3.498-3.677-1.962 0.1104 2.287-4.236-3.788-4.588-5.58-0.8432-1.422-2.496-6.815-0.105-0.6161-31.78-0.1944z" data-area="uptown" data-id="Upper East Side"/>
      <path id="Yorkville" d="m262 241.3 0.9674-8.546 1.248-5.608 1.172-5.22 0.9056-7.51 0.521-5.254 0.2868-3.551-0.2311-3.83-0.7829-3.271 0.2645-3.49-2.568-3.918-1.977-0.7045-6.731-6.838 0.0362-3.498-3.677-1.962 0.1104 2.287-4.236-3.788-4.588-5.58-0.8432-1.422-2.496-6.815-0.105-0.6161-31.78-0.1944 0.1846 46.39 0.0393 33.08 54.28-0.1411z" data-area="uptown" data-id="Yorkville"/>
      <path id="Lenox Hill" d="m172.1 251 0.0173 23.49 0.0411 59.6 26.74 0.077-0.0618-59.67-0.0254-23.45-26.71-0.0501z" data-area="uptown" data-id="Lenox Hill"/>
      <path id="Carnegie Hill" d="m172 208.3 35.61 0.00074-0.1846-46.39-32.6-0.1075-3.006-0.004 0.1752 46.5z" data-area="uptown" data-id="Carnegie Hill"/>
      <path id="Morningside Heights" d="m52.16 7.672-0.6957 6.098-0.7752 5.42-0.2893 6.815 0.9174 34.13 0.868 18.59-0.3156 18.18 23.6-0.1841 31.16 0.03487-6.134-23.03-0.6627-23.42-0.8824-6.288-0.2087-0.6991-0.5866-0.9864-0.8257-0.6826-1.558-0.6784-4.757-0.08526 0.04462-19.96-15.93-8.317-8.817-4.414-14.15-0.5362z" data-area="uptown" data-id="Morningside Heights"/>
      <path id="Upper Carnegie Hill" d="m171.9 152.4-0.0628 9.449 3.006 0.004 32.6 0.1075 0.0195-9.68-32.63 0.1099-2.927 0.01z" data-area="uptown" data-id="Upper Carnegie Hill"/>
      <path id="Museum Mile" d="m171.9 115.4 0.0609 37.02-0.0628 9.449 0.1752 46.5 0.0139 23.6 2.933 0.0323-0.1158-70.13-0.0805-46.47-2.924 0.003z" data-area="uptown" data-id="Museum Mile"/>
      <path id="Manhattan Valley" d="m75.47 96.73-0.08431 8.962 1.535 4.581 4.33 9.72 1.356 4.688 0.7416 18.35 39.28 0.2482-0.0607-46.51-15.94-0.0069-31.16-0.03487z" data-area="uptown" data-id="Manhattan Valley"/>
      <path id="Lincoln Square" d="m122.8 283.9-65.95 0.3007-10.32 6.619 0.0032 1.314 10.96-7.092 0.0644 15.49-2.187 1.344 0.04689 14.63 1.566-0.4327 0.3351 3.971-1.098 0.2695-0.0031 13.09 3.656 0.5127 47.32 0.0753-0.0256-4.52 12.34 0.1311 3.4 4.533-0.1089-50.23z" data-area="uptown" data-id="Lincoln Square"/>
    </g>
  </defs>
  <metadata id="metadata8">
    <views>
      <view h="399.74933796" padding="0" w="300">
        <proj dist="1.6" id="satellite" lat0="40.7845" lon0="-73.96346" tilt="0" up="-29"/>
        <bbox h="2.27" w="1.7" x="999.15" y="998.87"/>
      </view>
    </views>
    <rdf:RDF>
      <cc:Work rdf:about="">
        <dc:format>image/svg+xml</dc:format>
        <dc:type rdf:resource="http://purl.org/dc/dcmitype/StillImage"/>
        <dc:title/>
      </cc:Work>
    </rdf:RDF>
  </metadata>
  <rect height="460.7" style="fill:#bfd7e3;" width="300"/>
  <g class="" fill="#fff" id="contour" stroke="#000" transform="matrix(1.155 0 0 1.155 -47.16 .5776)">
    <path id="path11" d="m52.82 0-0.6584 7.672-0.6957 6.098-0.7752 5.42-0.2893 6.815 0.9174 34.13 0.868 18.59-0.3156 18.18 2.275 139.8-5.135 2.62-0.1785 1.045 0.4293 0.204 0.1836-1.148 4.708-2.351 0.06216 2.912 0.01792 0.8394-0.6268 0.0114-0.0078 0.2381-2.834 0.005-0.000469-0.3442-0.2576-0.0005 0.0011 0.8271 0.266 0.00051-0.000453-0.3361 2.817-0.002 0.02226 0.2924 0.6351-0.0265 0.09926 3.649-4.815-2.031-0.2305-1.117-0.4583 0.1807 0.209 0.7382-1.214 7.32 0.2611 0.006 1.084-7.009 5.174 2.295 1.28 36.73 0.7481 1.554 0.4649 0.306-10.32 6.619 0.0032 1.314 10.96-7.092 0.0644 15.49-2.187 1.344 0.04689 14.63 1.566-0.4327 0.3351 3.971-1.098 0.2695-0.0031 13.09-11.93-0.006-0.1353 2.003 6.536-0.0437-0.0017-1.093 4.086 0.1065 0.01192 0.8442 2.022 0.0226 0.02574-0.685 0.5901-0.013-0.02146 3.452-13.79-0.0181-0.0058 0.2857 2.403-0.0503-0.03289 1.76 5.001 0.016-0.01577-0.9235 5.583 0.0104-0.0073 3.268-11.82-0.0434 0.0077 2.035 11.82-0.003-0.0072 0.3591 0.7366 0.4796-0.02892 0.2815-0.7089 0.3813 0.01936 1.847-3.256-0.1139-0.06441 1.43 3.325-0.1206 0.02642 3.463-0.7448-0.0143-0.0017 1.155 0.7462-0.0175 0.0288 4.372-13.52 0.005-0.000898 2.638 13.59 0.0492 0.02773 4.975-13.64-0.0691-0.02333 2.214 18.22 0.0108 0.04501 7.048-18.2-0.1109-0.0123 2.235 18.21 0.0995 0.03266 7.021-18.27-0.187 0.03258 2.244 18.36 0.0404 0.07138 1.495-0.1763 0.4868-0.5225 0.5618-0.1507 0.3022 0.1525 0.3195 0.3458 0.321 0.7029 0.3826 0.02321 3.117-17.45-0.0376 0.0067 2.641 17.44 0.0516-0.04259 2.106h183.3l1.705-21.3 1.228-13.73 0.3486-4.416 0.00005-0.00065 1.728-6.579 0.128-5.921 0.341-9.041 0.2082-2.535 1.669-8.739 2.913-14.93 1.736-8.371 0.7854-9.071 0.7928-9.09 0.8186-9.329 1.002-9.701 0.2826-9.297-0.0127-4.218 0.4831-4.346 0.6374-5.854 0.9674-8.546 1.248-5.608 1.172-5.22 0.9056-7.51 0.521-5.254 0.2868-3.551-0.2311-3.83-0.7829-3.271 0.2645-3.49-2.568-3.918-1.977-0.7045-6.731-6.838 0.0362-3.498-3.677-1.962 0.1104 2.287-4.236-3.788-4.588-5.58-0.8432-1.422-2.496-6.815-0.105-0.6161-0.2514-0.9904 0.0747-3.749 1.422-4.324 6.957-13.78 0.4082-4.838 0.8501-9.924-0.6287-5.405-1.231-6.777-0.1979-1.146 5.065-0.0365 0.002-1.097-5.441-0.0134-0.00087-4.076-0.0161-8.61 0.5405-1.934 0.4716 0.1399 0.5286-1.807-0.5041-0.1352 0.1697-0.6571 3.505-10.47 8.256-17.85 0.2068-0.8996-0.2324-8.276-1.788-5.642-7.848-15.31-2.282-3.932-3.227-4.848-0.9377 0.03434-7.125-7.085-2.228-1.694-0.2731-0.8793-5.166-3.725-8.4-5.046-15.3-7.554h-152zm236.4 234.3 1.746-3.649-0.3075-3.46 0.1804-4.363-0.5655-2.281-0.7337-1.606-2.137-3.081-1.839-3.271-0.4031-1.698-0.1279-1.953-0.5343-0.3151-0.5373 0.0564-0.3646 0.2889-0.2168 2.547-0.5917 2.095-1.844 1.485-2.348 3.304-0.8778 2.915-0.1086 2.183-0.3404 3.241-2.693 10.29 0.2402 4.739 0.6954 2.131-0.548 0.6036-0.8832-0.0178 0.0655 0.7574 0.828 0.0381-0.0116 1.129-0.5486 2.178-1.181 29.46-1.83 5.522-0.2445 3.579-0.5077 4.682-0.1477 6.585 0.5772 5.636-0.2495 1.804-0.7337 5.305-0.9-0.1622-0.3359 2.053 0.4452 0.1236-0.7848 4.411-1.002 14.98 0.1318 0.8582-2.899 27.37-0.4787 0.0279-0.0729 4.698 1.321 7.471-0.8386 9.443 0.7409 3.424-0.0451 2.219 0.4064 1.303 0.5693 0.7784 0.7091-0.2982 0.7605-1.13 0.0312-1.275 0.1511-1.832 0.7793-2.953 1.793-5.067 0.7518-3.938-0.3456-0.502 2.537-6.638 1.553-7.069 1.698-14.17 0.4398-0.42 1.484-7.068 1.427-7.128 0.5675-8.044-0.7632-2.563 0.4782-5.176 1.189-9.34 1.67-5.972 3.081-40.18 0.003-6.138 0.009-4.06 0.7022-8.285 2.157-6.619zm-20.6-74.52-0.7131-1.255-0.3766-1.494-0.8833-0.4517-0.75 0.827-0.8876 2.813 0.8353 2.32 0.8826 0.6155-0.5307 3.921-0.5567 0.5622-0.2593 1.999 0.9668 0.289 0.6332-1.242 0.7682-4.843 1.148-0.0787 2.254-1.946 0.4782-1.067-1.85-2.864-0.7399 0.1907 0.7947 1.383-1.213 0.3209zm31.4-145.1l-13.84 0.1172-6.872-4.211-2.017-1.628-4.434-2.285-4.185-0.3481-7.651 3.394-4.69 2.817-0.3845 3.163 0.1129 6.464-2.158-0.1421-0.0924 1.429 0.2639-0.03286 0.0603-0.9441 1.907 0.08145-0.1382 1.571 1.03 0.04755-0.0635 1.001-2.817-0.06462 0.008-1.005-0.2655-0.004-0.0333 1.264 3.092 0.07885-0.1222 0.878-0.0532 0.3821 1.582 6.919 1.563 4.937 1.431 2.214 1.622 1.311-1.478 1.613 0.4035 0.3717 1.743-1.789 0.6335 0.5664 2.235 2.374 1.675 2.4 1.683 3.367 0.9918 3.525 0.907 4.178 0.1151 9.856 0.6961 1.404 1.932 2.78 2.991 0.7551 3.022-1.18-0.6073 6.451 0.3493 0.6251 0.5763-0.0481 0.8734-0.6445 0.6588-0.6102 1.067-0.7227 1.289-0.525 1.335-0.9848-0.0916-1.592-0.7345-1.462-0.6463-0.7936-1.938-0.1725-0.6311-0.8215 5.051-2.098 0.2432 0.1674 0.0752 0.2038-4.147 1.749 0.1698 0.4565 1.887-0.274 0.5488 0.9231 1.605 1.811 0.0769 0.5804 0.9312 1.41 0.1221 0.6349-0.5196 0.5587-3.113 1.041-4.964 2.501-2.648 0.4221-0.455 0.4231-5.55-0.0039-3.56 4.709-1.093 4.343-0.806 6.185-0.7708 0.2381 0.4376 3.779-0.3873 3.686-1.517 22.8 1.835 5.354 2.404 4.972 6.945 2.974 20.83-6.119 4.471 0.4618v-120.2z" fill-rule="evenodd"/>
  </g>
  <g class="" fill="#c7deb3" fill-rule="evenodd" id="parks" stroke="none" transform="matrix(1.155 0 0 1.155 -47.16 .5776)">
    <path id="path14" d="m172.1 334-0.0516-59.64-0.007-23.45-0.0169-19.03-0.0139-23.6-0.1752-46.5 0.0628-9.449-0.0609-37.02-0.0696-18.84-2.871-0.04114-14.53-0.05732-0.4675 0.02055-0.3838 0.0141-1.311-0.01975-13.25-0.02089-0.2941-0.000507-0.3901-0.000615-0.427 0.0032-13.79-0.0015-1.509 0.3458-0.003 1.588-0.007 2.834-0.001 4.557 0.0176 4.612 0.0198 4.951-0.009 4.889 0.0177 4.583-0.005 4.581 0.0135 4.598-0.003 4.576 0.0204 4.736-0.0398 8.687 0.0487 4.72 0.007 5.087 0.007 4.909 0.0256 4.538-0.0191 4.618 0.008 4.57 0.0167 4.588 0.0493 4.465-0.0423 4.684 0.001 4.563 0.004 4.58 0.006 4.912 0.0125 4.969-0.0138 4.642 0.0233 4.62 0.005 4.62 0.004 4.991 0.0568 18.52-0.0144 4.912 0.004 4.647-0.001 4.633 0.008 4.617 0.004 4.949 0.0106 9.551 0.1089 50.23 49.22-0.0482z"/>
    <path id="path16" d="m106.6 96.76 7.819 0.000063 0.0144-13.96-6.768-11.59-0.9362-2.515-0.0785-32.37-9.393-0.07201 0.04181 5.399 0.8257 0.6826 0.5866 0.9864 0.2087 0.6991 0.8824 6.288 0.6627 23.42 6.134 23.03z"/>
    <path id="path18" d="m111.3 0 0.0443 12.85 4.758 0.05815 0.7088-9.324v-3.586h-5.5z"/>
  </g>
  <use class="neighBack" fill="#000000" fill-opacity="0" stroke="#000000" stroke-width="0.5" xlink:href="#neighs"/>
  <g class="" fill-rule="evenodd" id="streets" stroke="#357087" stroke-width="3" transform="matrix(1.155 0 0 1.155 -47.16 .5776)">
    <path id="path33" d="m138.6 397.7-2.72-8.415-0.9954-4.571-0.8885-9.154-0.7384-13.51-1.592-9.191-5.357-14.45-3.349-4.371-3.4-4.533-12.38-21.3-13.12-24.44-4.084-6.918-0.8617-2.541-1.696-5.003-5.39-23.13 0.5014-33.13 0.224-4.976 0.43-9.552 0.114-31.98 0.01869-4.967 0.06976-18.6-0.7416-18.35-1.356-4.688-4.33-9.72-1.535-4.581 0.08431-8.962l-0.39-84.02 0.02-12.62"/>
    <path id="path35" d="m172.2 397.7-0.0785-54.09-0.004-9.611-0.0411-59.6-0.0173-23.49-0.0169-19.03-0.0139-23.6-0.1752-46.5 0.0628-9.449-0.0609-37.02-0.0696-18.84-0.087-46.28"/>
    <path id="path37" d="m123 397.7-0.0409-54.21-0.0135-9.448-0.1089-50.23-0.011-9.555-0.1611-131-0.0607-46.51l-0.2-69.92v-26.87"/>
    <path id="path39" d="m59.99 343.1 15.81 0.3358 15.69 0.056 31.44 0.0467 49.21 0.1149 26.76 0.0192 48.66 0.0709"/>
    <path id="path41" d="m172.1 274.5 26.72 0.006 17.03-0.0501 2.038 0.4737 2.005-0.3096 35.83-0.0471"/>
    <path id="path43" d="m122.8 274.3-33.72 0.0571-25.7-0.1391-1.122 0.7647"/>
    <path id="path45" d="m172 208.3 35.61 0.00074 9.148 0.042 1.909 0.3445 3.238-0.564 4.682 0.4392 31.77-0.1238"/>
    <path id="path47" d="m122.7 208.1-40 0.0159-21.03-0.0285"/>
    <path id="path49" d="m65.37 161.6 17.91-0.009 39.38 0.1073"/>
    <path id="path51" d="m171.9 161.8 3.006 0.004 32.6 0.1075 30.11 0.1843"/>
    <path id="path53" d="m171.8 96.53-49.23 0.2419-8.124-0.0069-7.821-0.0068-31.13-0.02815-7.437 0.05794"/>
    <path id="path55" d="m234.1 26.93-62.46 0.1709-49.22-0.2297-7.788 0.02993-12.75-0.144l-10.74-5.82-15.93-8.32"/>
  </g>
</svg>